{
classes = (
{
automatic = 1;
code = "A Aacute Abreve Abreveacute Abrevedotbelow Abrevegrave Abrevehookabove Abrevetilde Acircumflex Acircumflexacute Acircumflexdotbelow Acircumflexgrave Acircumflexhookabove Acircumflextilde Adieresis Adotbelow Agrave Ahookabove Amacron Aogonek Aring Aringacute Atilde AE AEacute B C Cacute Ccaron Ccedilla Ccircumflex Cdotaccent D DZ DZcaron Eth Dcaron Dcroat Ddotbelow Dz Dzcaron E Eacute Ebreve Ecaron Ecircumflex Ecircumflexacute Ecircumflexdotbelow Ecircumflexgrave Ecircumflexhookabove Ecircumflextilde Edieresis Edotaccent Edotbelow Egrave Ehookabove Emacron Eogonek Etilde F G Gbreve Gcircumflex Gcommaaccent Gdotaccent H Hbar Hcircumflex Hdotbelow I IJ Iacute Ibreve Icircumflex Idieresis Idotaccent Idotbelow Igrave Ihookabove Imacron Iogonek Itilde J Jcircumflex K Kcommaaccent L LJ Lacute Lcaron Lcommaaccent Ldot Lj Lslash M N NJ Nacute Ncaron Ncommaaccent Ndotaccent Eng Nj Ntilde O Oacute Obreve Ocircumflex Ocircumflexacute Ocircumflexdotbelow Ocircumflexgrave Ocircumflexhookabove Ocircumflextilde Odieresis Odotbelow Ograve Ohookabove Ohorn Ohornacute Ohorndotbelow Ohorngrave Ohornhookabove Ohorntilde Ohungarumlaut Omacron Oogonek Oslash Oslashacute Otilde OE P Thorn Q R Racute Rcaron Rcommaaccent Rdotbelow S Sacute Scaron Scedilla Scircumflex Scommaaccent Sdotbelow Germandbls Schwa T Tbar Tcaron Tcedilla Tcommaaccent Tdotbelow U Uacute Ubreve Ucircumflex Udieresis Udotbelow Ugrave Uhookabove Uhorn Uhornacute Uhorndotbelow Uhorngrave Uhornhookabove Uhorntilde Uhungarumlaut Umacron Uogonek Uring Utilde V W Wacute Wcircumflex Wdieresis Wgrave X Y Yacute Ycircumflex Ydieresis Ydotbelow Ygrave Yhookabove Ytilde Z Zacute Zcaron Zdotaccent Zdotbelow Iacute_J.loclNLD Y.loclGUA Yacute.loclGUA Ycircumflex.loclGUA Ydieresis.loclGUA Ydotbelow.loclGUA Ygrave.loclGUA Yhookabove.loclGUA Ytilde.loclGUA Cacute.loclPLK Nacute.loclPLK Oacute.loclPLK Sacute.loclPLK Zacute.loclPLK Delta Omega";
name = Uppercase;
},
{
automatic = 1;

glyphs = (
{
glyphname = A;
lastChange = "2015-01-14 23:02:34 +0000";
layers = (
{
anchors = (
{
name = bottom;
position = "{144.5, 0}";
},
{
name = ogonek;
position = "{272, 0}";
},
{
name = top;
position = "{143, 326}";
}
);
layerId = "63CB2BE0-8E67-47A9-A148-3C9E8B72ABA2";
name = Regular;
paths = (
{
closed = 1;
nodes = (
"28 -1 LINE SMOOTH",
"37.5 -1 OFFCURVE",
"44.5 1 OFFCURVE",
"46.5 6.5 CURVE SMOOTH",
"73 83 LINE",
"210 83 LINE",
"237.5 6.5 LINE SMOOTH",
"239.5 1 OFFCURVE",
"247 -1 OFFCURVE",
"256.5 -1 CURVE SMOOTH",
"260 -1 LINE SMOOTH",
"274 -1 OFFCURVE",
"280 2.5 OFFCURVE",
"280 7 CURVE SMOOTH",
"280 9 OFFCURVE",
"279.5 10.5 OFFCURVE",
"278.5 13 CURVE SMOOTH",
"168 319.5 LINE SMOOTH",
"166.5 325.5 OFFCURVE",
"159 327 OFFCURVE",
"149.5 327 CURVE SMOOTH",
"136 327 LINE SMOOTH",
"127 327 OFFCURVE",
"119.5 325.5 OFFCURVE",
"117.5 319.5 CURVE SMOOTH",
"7 13.5 LINE SMOOTH",
"6 10.5 OFFCURVE",
"5.5 9 OFFCURVE",
"5.5 7 CURVE SMOOTH",
"5.5 2 OFFCURVE",
"11.5 -1 OFFCURVE",
"25.5 -1 CURVE SMOOTH"
);
},
{
closed = 1;
nodes = (
"135 257 LINE SMOOTH",
"138.5 266 OFFCURVE",
"140.5 275.5 OFFCURVE",
"142 284.5 CURVE",
"143 284.5 LINE",
"144.5 275.5 OFFCURVE",
"146 265.5 OFFCURVE",
"148.5 257 CURVE SMOOTH",
"197.5 118.5 LINE",
"86 118.5 LINE"
);
}
);
width = 285.5;
},
{
anchors = (
{
name = bottom;
position = "{144.5, 0}";
},
{
name = ogonek;
position = "{257, 0}";
},
{
name = top;
position = "{143, 326}";
}
);
layerId = "209CD697-34B5-4613-8FA2-E55A274D1785";
name = Bold;
paths = (
{
closed = 1;
nodes = (
"47 -1 LINE SMOOTH",
"58 -1 OFFCURVE",
"66 2 OFFCURVE",
"68.5 9 CURVE SMOOTH",
"87 65.5 LINE",
"197 65.5 LINE",
"216 9 LINE SMOOTH",
"218 1.5 OFFCURVE",
"228.5 -1 OFFCURVE",
"242 -1 CURVE SMOOTH",
"262.5 -1 LINE SMOOTH",
"278.5 -1 OFFCURVE",
"285.5 3 OFFCURVE",
"285.5 9.5 CURVE SMOOTH",
"285.5 11.5 OFFCURVE",
"285 14.5 OFFCURVE",
"284.5 17.5 CURVE SMOOTH",
"181.5 317.5 LINE SMOOTH",
"179 325 OFFCURVE",
"168.5 327 OFFCURVE",
"155 327 CURVE SMOOTH",
"131 327 LINE SMOOTH",
"117.5 327 OFFCURVE",
"107 325 OFFCURVE",
"104.5 317.5 CURVE SMOOTH",
"2 17.5 LINE SMOOTH",
"1 14.5 OFFCURVE",
"0 11.5 OFFCURVE",
"0 9.5 CURVE SMOOTH",
"0 3 OFFCURVE",
"9 -1 OFFCURVE",
"28.5 -1 CURVE SMOOTH"
);
},
{
closed = 1;
nodes = (
"134.5 210 LINE SMOOTH",
"138.5 220 OFFCURVE",
"140 230 OFFCURVE",
"141.5 240 CURVE",
"143.5 240 LINE",
"145.5 230 OFFCURVE",
"147.5 220 OFFCURVE",
"150.5 210 CURVE SMOOTH",
"177 127 LINE",
"107 127 LINE"
);
}
);
width = 285.5;
}
);
leftKerningGroup = A;
rightKerningGroup = A;
unicode = 0041;
},
{
glyphname = Aringacute;
lastChange = "2015-01-14 23:02:33 +0000";
layers = (
{
components = (
{
disableAlignment = 1;
name = ring;
transform = "{1, 0, 0, 1, 68.502, 27.96}";
}
);
layerId = "63CB2BE0-8E67-47A9-A148-3C9E8B72ABA2";
name = Regular;
paths = (
{
closed = 1;
nodes = (
"28 -1 LINE SMOOTH",
"37.5 -1 OFFCURVE",
"44.5 1 OFFCURVE",
"46.5 6.5 CURVE SMOOTH",
"73 83 LINE",
"210 83 LINE",
"237.5 6.5 LINE SMOOTH",
"239.5 1 OFFCURVE",
"247 -1 OFFCURVE",
"256.5 -1 CURVE SMOOTH",
"260 -1 LINE SMOOTH",
"274 -1 OFFCURVE",
"280 2.5 OFFCURVE",
"280 7 CURVE SMOOTH",
"280 9 OFFCURVE",
"279.5 10.5 OFFCURVE",
"278.5 13 CURVE SMOOTH",
"168 319.5 LINE",
"149.5 299 LINE",
"136 299 LINE",
"117.5 319.5 LINE",
"7 13.5 LINE SMOOTH",
"6 10.5 OFFCURVE",
"5.5 9 OFFCURVE",
"5.5 7 CURVE SMOOTH",
"5.5 2 OFFCURVE",
"11.5 -1 OFFCURVE",
"25.5 -1 CURVE SMOOTH"
);
},
{
closed = 1;
nodes = (
"135 257 LINE SMOOTH",
"138.5 266 OFFCURVE",
"140.5 275.5 OFFCURVE",
"142 284.5 CURVE",
"143 284.5 LINE",
"144.5 275.5 OFFCURVE",
"146 265.5 OFFCURVE",
"148.5 257 CURVE SMOOTH",
"197.5 118.5 LINE",
"86 118.5 LINE"
);
},
{
closed = 1;
nodes = (
"145 383 OFFCURVE",
"154 386 OFFCURVE",
"159 391.5 CURVE SMOOTH",
"188.5 421.5 OFFCURVE",
"193 423.5 OFFCURVE",
"193 427 CURVE SMOOTH",
"193 431.5 OFFCURVE",
"185.5 433 OFFCURVE",
"170.5 433 CURVE SMOOTH",
"155.5 433 OFFCURVE",
"147 430 OFFCURVE",
"141.5 421 CURVE SMOOTH",
"136 410.5 OFFCURVE",
"133 404.5 OFFCURVE",
"124.5 387.5 CURVE SMOOTH",
"124.5 384.5 OFFCURVE",
"127.5 383 OFFCURVE",
"135 383 CURVE SMOOTH"
);
}
);
width = 285.5;
},
{
components = (
{
disableAlignment = 1;
name = ring;
transform = "{1, 0, 0, 1, 68.502, 21.902}";
}
);
layerId = "209CD697-34B5-4613-8FA2-E55A274D1785";
name = Bold;
paths = (
{
closed = 1;
nodes = (
"47 -1 LINE SMOOTH",
"58 -1 OFFCURVE",
"66 2 OFFCURVE",
"68.5 9 CURVE SMOOTH",
"87 65.5 LINE",
"197 65.5 LINE",
"216 9 LINE SMOOTH",
"218 1.5 OFFCURVE",
"228.5 -1 OFFCURVE",
"242 -1 CURVE SMOOTH",
"262.5 -1 LINE SMOOTH",
"278.5 -1 OFFCURVE",
"285.5 3 OFFCURVE",
"285.5 9.5 CURVE SMOOTH",
"285.5 11.5 OFFCURVE",
"285 14.5 OFFCURVE",
"284.5 17.5 CURVE SMOOTH",
"181.5 317.5 LINE",
"155 294.5 LINE",
"131 294.5 LINE",
"104.5 317.5 LINE",
"2 17.5 LINE SMOOTH",
"1 14.5 OFFCURVE",
"0 11.5 OFFCURVE",
"0 9.5 CURVE SMOOTH",
"0 3 OFFCURVE",
"9 -1 OFFCURVE",
"28.5 -1 CURVE SMOOTH"
);
},
{
closed = 1;
nodes = (
"134.5 210 LINE SMOOTH",
"138.5 220 OFFCURVE",
"140 230 OFFCURVE",
"141.5 240 CURVE",
"143.5 240 LINE",
"145.5 230 OFFCURVE",
"147.5 220 OFFCURVE",
"150.5 210 CURVE SMOOTH",
"177 127 LINE",
"107 127 LINE"
);
},
{
closed = 1;
nodes = (
"158 378.5 OFFCURVE",
"166 384.5 OFFCURVE",
"171 390 CURVE SMOOTH",
"206 422.5 OFFCURVE",
"208.5 423.5 OFFCURVE",
"208.5 427.5 CURVE SMOOTH",
"208.5 432.5 OFFCURVE",
"199 434 OFFCURVE",
"180.5 434 CURVE SMOOTH",
"161.5 434 OFFCURVE",
"146.5 431 OFFCURVE",
"140.5 421.5 CURVE SMOOTH",
"133.5 410.5 OFFCURVE",
"129 402.5 OFFCURVE",
"121.5 385.5 CURVE SMOOTH",
"121.5 380.5 OFFCURVE",
"125 378.5 OFFCURVE",
"136 378.5 CURVE SMOOTH"
);
}
);
width = 285.5;
}
);
leftKerningGroup = A;
rightKerningGroup = A;
unicode = 01FA;
},
{
glyphname = AE;
lastChange = "2015-01-14 23:02:33 +0000";
layers = (
{
anchors = (
{
name = top;
position = "{213.5, 326}";
}
);
layerId = "63CB2BE0-8E67-47A9-A148-3C9E8B72ABA2";
name = Regular;
paths = (
{
closed = 1;
nodes = (
"15.5 -1 LINE SMOOTH",
"24 -1 OFFCURVE",
"31 1.5 OFFCURVE",
"34 6.5 CURVE SMOOTH",
"71.5 83 LINE",
"209 83 LINE",
"223.5 13.5 LINE SMOOTH",
"225.5 4 OFFCURVE",
"230.5 0 OFFCURVE",
"240.5 0 CURVE SMOOTH",
"374 0 LINE SMOOTH",
"380.5 0 OFFCURVE",
"383.5 4 OFFCURVE",
"383.5 14 CURVE SMOOTH",
"383.5 21.5 LINE SMOOTH",
"383.5 31 OFFCURVE",
"380.5 35.5 OFFCURVE",
"374 35.5 CURVE SMOOTH",
"260.5 35.5 LINE",
"236 149 LINE",
"360 149 LINE SMOOTH",
"366.5 149 OFFCURVE",
"369 153.5 OFFCURVE",
"369 163 CURVE SMOOTH",
"369 170.5 LINE SMOOTH",
"369 180.5 OFFCURVE",
"366.5 184.5 OFFCURVE",
"360 184.5 CURVE SMOOTH",
"228.5 184.5 LINE",
"205 291 LINE",
"373.5 291 LINE SMOOTH",
"380.5 291 OFFCURVE",
"383 295 OFFCURVE",
"383 305 CURVE SMOOTH",
"383 312 LINE SMOOTH",
"383 322 OFFCURVE",
"380.5 326 OFFCURVE",
"373.5 326 CURVE SMOOTH",
"166.5 326 LINE SMOOTH",
"156.5 326 OFFCURVE",
"150.5 322.5 OFFCURVE",
"146.5 313.5 CURVE SMOOTH",
"-3.5 14.5 LINE SMOOTH",
"-4.5 11.5 OFFCURVE",
"-5 9 OFFCURVE",
"-5 7 CURVE SMOOTH",
"-5 2 OFFCURVE",
"-1 -1 OFFCURVE",
"13 -1 CURVE SMOOTH"
);
},
{
closed = 1;
nodes = (
"158.5 257 LINE",
"168 284.5 LINE",
"169 284.5 LINE",
"171 257 LINE",
"201 118 LINE",
"89.5 118 LINE"
);
}
);
width = 426.5;
},
{
anchors = (
{
name = top;
position = "{213.5, 326}";
}
);
layerId = "209CD697-34B5-4613-8FA2-E55A274D1785";
name = Bold;
paths = (
{
closed = 1;
nodes = (
"46 -1 LINE SMOOTH",
"57.5 -1 OFFCURVE",
"64.5 2.5 OFFCURVE",
"67.5 9 CURVE SMOOTH",
"95.5 65.5 LINE",
"209 65.5 LINE",
"218.5 14 LINE SMOOTH",
"220.5 4 OFFCURVE",
"224.5 0 OFFCURVE",
"235 0 CURVE SMOOTH",
"389 0 LINE SMOOTH",
"399 0 OFFCURVE",
"403 7 OFFCURVE",
"403 23.5 CURVE SMOOTH",
"403 37.5 LINE SMOOTH",
"403 54 OFFCURVE",
"399 61 OFFCURVE",
"389 61 CURVE SMOOTH",
"280.5 61 LINE",
"266 136.5 LINE",
"376 136.5 LINE SMOOTH",
"386 136.5 OFFCURVE",
"390 143.5 OFFCURVE",
"390 160 CURVE SMOOTH",
"390 174.5 LINE SMOOTH",
"390 190.5 OFFCURVE",
"386 197.5 OFFCURVE",
"376 197.5 CURVE SMOOTH",
"254 197.5 LINE",
"241 265 LINE",
"388.5 265 LINE SMOOTH",
"398.5 265 OFFCURVE",
"402.5 272 OFFCURVE",
"402.5 288.5 CURVE SMOOTH",
"402.5 303 LINE SMOOTH",
"402.5 319 OFFCURVE",
"398.5 326 OFFCURVE",
"388.5 326 CURVE SMOOTH",
"172.5 326 LINE SMOOTH",
"162.5 326 OFFCURVE",
"156.5 322.5 OFFCURVE",
"152 313.5 CURVE SMOOTH",
"2.5 17.5 LINE SMOOTH",
"1 15 OFFCURVE",
"0.5 11.5 OFFCURVE",
"0.5 9.5 CURVE SMOOTH",
"0.5 3 OFFCURVE",
"9.5 -1 OFFCURVE",
"29 -1 CURVE SMOOTH"
);
},
{
closed = 1;
nodes = (
"167.5 212 LINE",
"180.5 250 LINE",
"182 250 LINE",
"182 211.5 LINE",
"197.5 127 LINE",
"126 127 LINE"
);
}
);
width = 426.5;
}
);
unicode = 00C6;
},
{
glyphname = B;
lastChange = "2015-01-14 23:02:33 +0000";
layers = (
{
layerId = "63CB2BE0-8E67-47A9-A148-3C9E8B72ABA2";
name = Regular;
paths = (
{
closed = 1;
nodes = (
"139.5 0 LINE SMOOTH",
"217.5 0 OFFCURVE",
"261 29 OFFCURVE",
"261 93.5 CURVE SMOOTH",
"261 155 OFFCURVE",
"195.5 171 OFFCURVE",
"195.5 171 CURVE",
"195.5 173 LINE",
"222.5 180.5 OFFCURVE",
"247 212.5 OFFCURVE",
"247 243.5 CURVE SMOOTH",
"247 292.5 OFFCURVE",
"212 326 OFFCURVE",
"142.5 326 CURVE SMOOTH",
"59 326 LINE SMOOTH",
"49.5 326 OFFCURVE",
"45 322 OFFCURVE",
"45 312 CURVE SMOOTH",
"45 14 LINE SMOOTH",
"45 4 OFFCURVE",
"49.5 0 OFFCURVE",
"59 0 CURVE SMOOTH"
);
},
{
closed = 1;
nodes = (
"86 150 LINE",
"146.5 150 LINE SMOOTH",
"194.5 150 OFFCURVE",
"218.5 129.5 OFFCURVE",
"218.5 95.5 CURVE SMOOTH",
"218.5 58.5 OFFCURVE",
"195.5 35.5 OFFCURVE",
"154 35.5 CURVE SMOOTH",
"86 35.5 LINE"
);
},
{
closed = 1;
nodes = (
"86 291 LINE",
"138.5 291 LINE SMOOTH",
"185 291 OFFCURVE",
"204.5 274.5 OFFCURVE",
"204.5 240 CURVE SMOOTH",
"204.5 209.5 OFFCURVE",
"178 185.5 OFFCURVE",
"140.5 185.5 CURVE SMOOTH",
"86 185.5 LINE"
);
}
);
width = 276.5;
},
{
layerId = "209CD697-34B5-4613-8FA2-E55A274D1785";
name = Bold;
paths = (
{
closed = 1;
nodes = (
"149.5 0 LINE SMOOTH",
"228.5 0 OFFCURVE",
"266 34.5 OFFCURVE",
"266 94.5 CURVE SMOOTH",
"266 130.5 OFFCURVE",
"240.5 163.5 OFFCURVE",
"203 171 CURVE",
"202.5 173 LINE",
"230.5 184.5 OFFCURVE",
"253 212 OFFCURVE",
"253 243.5 CURVE SMOOTH",
"253 292.5 OFFCURVE",
"222 326 OFFCURVE",
"143 326 CURVE SMOOTH",
"51 326 LINE SMOOTH",
"37.5 326 OFFCURVE",
"32 320.5 OFFCURVE",
"32 307.5 CURVE SMOOTH",
"32 18.5 LINE SMOOTH",
"32 5.5 OFFCURVE",
"37.5 0 OFFCURVE",
"51 0 CURVE SMOOTH"
);
},
{
closed = 1;
nodes = (
"104 135 LINE",
"142 135 LINE SMOOTH",
"174.5 135 OFFCURVE",
"192.5 123 OFFCURVE",
"192.5 99 CURVE SMOOTH",
"192.5 74.5 OFFCURVE",
"176.5 61 OFFCURVE",
"149.5 61 CURVE SMOOTH",
"104 61 LINE"
);
},
{
closed = 1;
nodes = (
"104 265.5 LINE",
"137 265.5 LINE SMOOTH",
"165.5 265.5 OFFCURVE",
"179.5 254 OFFCURVE",
"179.5 231 CURVE SMOOTH",
"179.5 211.5 OFFCURVE",
"164 196 OFFCURVE",
"136 196 CURVE SMOOTH",
"104 196 LINE"
);
}
);
width = 276.5;
}
);
unicode = 0042;
},
{
glyphname = C;
lastChange = "2015-01-14 23:02:33 +0000";
layers = (
{
anchors = (
{
name = bottom;
position = "{168, 0}";
},
{
name = top;
position = "{165.5, 326}";
}
);
layerId = "63CB2BE0-8E67-47A9-A148-3C9E8B72ABA2";
name = Regular;
paths = (
{
closed = 1;
nodes = (
"231 -3 OFFCURVE",
"273 18 OFFCURVE",
"273 31 CURVE SMOOTH",
"273 36.5 OFFCURVE",
"263 56 OFFCURVE",
"257 56 CURVE SMOOTH",
"250.5 56 OFFCURVE",
"224.5 32.5 OFFCURVE",
"176.5 32.5 CURVE SMOOTH",
"103.5 32.5 OFFCURVE",
"69 73 OFFCURVE",
"69 162.5 CURVE SMOOTH",
"69 254.5 OFFCURVE",
"104 293.5 OFFCURVE",
"178.5 293.5 CURVE SMOOTH",
"223 293.5 OFFCURVE",
"245.5 273 OFFCURVE",
"250.5 273 CURVE SMOOTH",
"257 273 OFFCURVE",
"266.5 292 OFFCURVE",
"266.5 300 CURVE SMOOTH",
"266.5 312.5 OFFCURVE",
"223.5 329 OFFCURVE",
"177.5 329 CURVE SMOOTH",
"78 329 OFFCURVE",
"26.5 274.5 OFFCURVE",
"26.5 163 CURVE SMOOTH",
"26.5 49.5 OFFCURVE",
"74.5 -3 OFFCURVE",
"176.5 -3 CURVE SMOOTH"
);
}
);
width = 288.5;
},
{
anchors = (
{
name = bottom;
position = "{174, 0}";
},
{
name = top;
position = "{171.5, 326}";
}
);
layerId = "209CD697-34B5-4613-8FA2-E55A274D1785";
name = Bold;
paths = (
{
closed = 1;
nodes = (
"211.5 -3.5 OFFCURVE",
"278 7.5 OFFCURVE",
"278 35.5 CURVE SMOOTH",
"278 43.5 OFFCURVE",
"265.5 76 OFFCURVE",
"250.5 76 CURVE SMOOTH",
"243.5 76 OFFCURVE",
"218.5 57.5 OFFCURVE",
"174.5 57.5 CURVE SMOOTH",
"120.5 57.5 OFFCURVE",
"94.5 93.5 OFFCURVE",
"94.5 163.5 CURVE SMOOTH",
"94.5 233.5 OFFCURVE",
"120 268.5 OFFCURVE",
"175 268.5 CURVE SMOOTH",
"219.5 268.5 OFFCURVE",
"238 253.5 OFFCURVE",
"243.5 253.5 CURVE SMOOTH",
"255.5 253.5 OFFCURVE",
"274 284.5 OFFCURVE",
"274 297.5 CURVE SMOOTH",
"274 317 OFFCURVE",
"217.5 330 OFFCURVE",
"176.5 330 CURVE SMOOTH",
"73 330 OFFCURVE",
"21 275 OFFCURVE",
"21 164 CURVE SMOOTH",
"21 49 OFFCURVE",
"70 -3.5 OFFCURVE",
"174.5 -3.5 CURVE SMOOTH"
);
}
);
width = 288.5;
}
);
unicode = 0043;
},
{
glyphname = D;
lastChange = "2015-01-14 23:02:33 +0000";
layers = (
{
anchors = (
{
name = bottom;
position = "{152.5, 0}";
},
{
name = center;
position = "{162, 163}";
},
{
name = top;
position = "{145.5, 326}";
}
);
layerId = "63CB2BE0-8E67-47A9-A148-3C9E8B72ABA2";
name = Regular;
paths = (
{
closed = 1;
nodes = (
"153.5 0 LINE SMOOTH",
"233.5 0 OFFCURVE",
"297.5 42 OFFCURVE",
"297.5 163 CURVE SMOOTH",
"297.5 284 OFFCURVE",
"233.5 326 OFFCURVE",
"153.5 326 CURVE SMOOTH",
"59 326 LINE SMOOTH",
"49.5 326 OFFCURVE",
"45 322 OFFCURVE",
"45 312 CURVE SMOOTH",
"45 14 LINE SMOOTH",
"45 4 OFFCURVE",
"49.5 0 OFFCURVE",
"59 0 CURVE SMOOTH"
);
},
{
closed = 1;
nodes = (
"86 291 LINE",
"150 291 LINE SMOOTH",
"208.5 291 OFFCURVE",
"255 256 OFFCURVE",
"255 163 CURVE SMOOTH",
"255 70 OFFCURVE",
"208.5 35.5 OFFCURVE",
"150 35.5 CURVE SMOOTH",
"86 35.5 LINE"
);
}
);
width = 324;
},
{
anchors = (
{
name = bottom;
position = "{154, 0}";
},
{
name = center;
position = "{162, 163}";
},
{
name = top;
position = "{155, 326}";
}
);
layerId = "209CD697-34B5-4613-8FA2-E55A274D1785";
name = Bold;
paths = (
{
closed = 1;
nodes = (
"155 0 LINE SMOOTH",
"251 0 OFFCURVE",
"304.5 58 OFFCURVE",
"304.5 163 CURVE SMOOTH",
"304.5 268.5 OFFCURVE",
"251 326 OFFCURVE",
"155 326 CURVE SMOOTH",
"51 326 LINE SMOOTH",
"37.5 326 OFFCURVE",
"32 320.5 OFFCURVE",
"32 307.5 CURVE SMOOTH",
"32 18.5 LINE SMOOTH",
"32 5.5 OFFCURVE",
"37.5 0 OFFCURVE",
"51 0 CURVE SMOOTH"
);
},
{
closed = 1;
nodes = (
"104.5 265 LINE",
"155 265 LINE SMOOTH",
"205 265 OFFCURVE",
"230.5 229.5 OFFCURVE",
"230.5 163 CURVE SMOOTH",
"230.5 97 OFFCURVE",
"205 61 OFFCURVE",
"155 61 CURVE SMOOTH",
"104.5 61 LINE"
);
}
);
width = 324;
}
);
unicode = 0044;
},
{
glyphname = Eth;
lastChange = "2015-01-14 23:02:33 +0000";
layers = (
{
layerId = "63CB2BE0-8E67-47A9-A148-3C9E8B72ABA2";
name = Regular;
paths = (
{
closed = 1;
nodes = (
"154 0 LINE SMOOTH",
"234 0 OFFCURVE",
"298.5 42 OFFCURVE",
"298.5 163 CURVE SMOOTH",
"298.5 284 OFFCURVE",
"234 326 OFFCURVE",
"154 326 CURVE SMOOTH",
"53.5 326 LINE SMOOTH",
"44 326 OFFCURVE",
"39.5 322 OFFCURVE",
"39.5 312 CURVE SMOOTH",
"39.5 184.5 LINE",
"9.5 184.5 LINE SMOOTH",
"3 184.5 OFFCURVE",
"0 180.5 OFFCURVE",
"0 170.5 CURVE SMOOTH",
"0 163 LINE SMOOTH",
"0 153.5 OFFCURVE",
"3 149 OFFCURVE",
"9.5 149 CURVE SMOOTH",
"39.5 149 LINE",
"39.5 14 LINE SMOOTH",
"39.5 4 OFFCURVE",
"44 0 OFFCURVE",
"53.5 0 CURVE SMOOTH"
);
},
{
closed = 1;
nodes = (
"80.5 149 LINE",
"132 149 LINE SMOOTH",
"138.5 149 OFFCURVE",
"141 153.5 OFFCURVE",
"141 163 CURVE SMOOTH",
"141 170.5 LINE SMOOTH",
"141 180.5 OFFCURVE",
"138.5 184.5 OFFCURVE",
"132 184.5 CURVE SMOOTH",
"80.5 184.5 LINE",
"80.5 291 LINE",
"150.5 291 LINE SMOOTH",
"209 291 OFFCURVE",
"256.5 256 OFFCURVE",
"256.5 163 CURVE SMOOTH",
"256.5 70 OFFCURVE",
"209 35.5 OFFCURVE",
"150.5 35.5 CURVE SMOOTH",
"80.5 35.5 LINE"
);
}
);
width = 324.5;
},
{
layerId = "209CD697-34B5-4613-8FA2-E55A274D1785";
name = Bold;
paths = (
{
closed = 1;
nodes = (
"156 0 LINE SMOOTH",
"252 0 OFFCURVE",
"305 58 OFFCURVE",
"305 163 CURVE SMOOTH",
"305 268.5 OFFCURVE",
"252 326 OFFCURVE",
"156 326 CURVE SMOOTH",
"51.5 326 LINE SMOOTH",
"38.5 326 OFFCURVE",
"33 320.5 OFFCURVE",
"33 307.5 CURVE SMOOTH",
"33 196 LINE",
"19.5 196 LINE SMOOTH",
"10 196 OFFCURVE",
"5.5 189 OFFCURVE",
"5.5 173 CURVE SMOOTH",
"5.5 159 LINE SMOOTH",
"5.5 142.5 OFFCURVE",
"10 135.5 OFFCURVE",
"19.5 135.5 CURVE SMOOTH",
"33 135.5 LINE",
"33 18.5 LINE SMOOTH",
"33 5.5 OFFCURVE",
"38.5 0 OFFCURVE",
"51.5 0 CURVE SMOOTH"
);
},
{
closed = 1;
nodes = (
"105.5 135.5 LINE",
"133 135.5 LINE SMOOTH",
"142.5 135.5 OFFCURVE",
"147 142.5 OFFCURVE",
"147 159 CURVE SMOOTH",
"147 173 LINE SMOOTH",
"147 189 OFFCURVE",
"142.5 196 OFFCURVE",
"133 196 CURVE SMOOTH",
"105.5 196 LINE",
"105.5 265 LINE",
"156 265 LINE SMOOTH",
"206 265 OFFCURVE",
"231.5 229.5 OFFCURVE",
"231.5 163 CURVE SMOOTH",
"231.5 97 OFFCURVE",
"206 61 OFFCURVE",
"156 61 CURVE SMOOTH",
"105.5 61 LINE"
);
}
);
width = 324.5;
}
);
unicode = 00D0;
},
{
glyphname = E;
lastChange = "2015-01-14 23:02:33 +0000";
layers = (
{
anchors = (
{
name = bottom;
position = "{140, 0}";
},
{
name = ogonek;
position = "{222.5, 0}";
},
{
name = top;
position = "{138, 326}";
}
);
layerId = "63CB2BE0-8E67-47A9-A148-3C9E8B72ABA2";
name = Regular;
paths = (
{
closed = 1;
nodes = (
"222.5 0 LINE SMOOTH",
"229 0 OFFCURVE",
"231.5 4 OFFCURVE",
"231.5 14 CURVE SMOOTH",
"231.5 21.5 LINE SMOOTH",
"231.5 31 OFFCURVE",
"229 35.5 OFFCURVE",
"222.5 35.5 CURVE SMOOTH",
"86 35.5 LINE",
"86 149 LINE",
"208 149 LINE SMOOTH",
"214.5 149 OFFCURVE",
"217 153.5 OFFCURVE",
"217 163 CURVE SMOOTH",
"217 170.5 LINE SMOOTH",
"217 180.5 OFFCURVE",
"214.5 184.5 OFFCURVE",
"208 184.5 CURVE SMOOTH",
"86 184.5 LINE",
"86 291 LINE",
"222 291 LINE SMOOTH",
"228.5 291 OFFCURVE",
"231 295 OFFCURVE",
"231 305 CURVE SMOOTH",
"231 312 LINE SMOOTH",
"231 322 OFFCURVE",
"228.5 326 OFFCURVE",
"222 326 CURVE SMOOTH",
"59 326 LINE SMOOTH",
"49.5 326 OFFCURVE",
"45 322 OFFCURVE",
"45 312 CURVE SMOOTH",
"45 14 LINE SMOOTH",
"45 4 OFFCURVE",
"49.5 0 OFFCURVE",
"59 0 CURVE SMOOTH"
);
}
);
width = 254.5;
},
{
anchors = (
{
name = bottom;
position = "{133.5, 0}";
},
{
name = ogonek;
position = "{220.5, 0}";
},
{
name = top;
position = "{137.5, 326}";
}
);
layerId = "209CD697-34B5-4613-8FA2-E55A274D1785";
name = Bold;
paths = (
{
closed = 1;
nodes = (
"222 0 LINE SMOOTH",
"231.5 0 OFFCURVE",
"236 7 OFFCURVE",
"236 23.5 CURVE SMOOTH",
"236 37.5 LINE SMOOTH",
"236 54 OFFCURVE",
"231.5 61 OFFCURVE",
"222 61 CURVE SMOOTH",
"104 61 LINE",
"104 136.5 LINE",
"209 136.5 LINE SMOOTH",
"218.5 136.5 OFFCURVE",
"222.5 143.5 OFFCURVE",
"222.5 160 CURVE SMOOTH",
"222.5 174.5 LINE SMOOTH",
"222.5 190.5 OFFCURVE",
"218.5 197.5 OFFCURVE",
"209 197.5 CURVE SMOOTH",
"104 197.5 LINE",
"104 265 LINE",
"221.5 265 LINE SMOOTH",
"231 265 OFFCURVE",
"235.5 272 OFFCURVE",
"235.5 288.5 CURVE SMOOTH",
"235.5 303 LINE SMOOTH",
"235.5 319 OFFCURVE",
"231 326 OFFCURVE",
"221.5 326 CURVE SMOOTH",
"51 326 LINE SMOOTH",
"37.5 326 OFFCURVE",
"32 320.5 OFFCURVE",
"32 307.5 CURVE SMOOTH",
"32 18.5 LINE SMOOTH",
"32 5.5 OFFCURVE",
"37.5 0 OFFCURVE",
"51 0 CURVE SMOOTH"
);
}
);
width = 254.5;
}
);
unicode = 0045;
},
{
glyphname = F;
lastChange = "2015-01-14 23:02:33 +0000";
layers = (
{
layerId = "63CB2BE0-8E67-47A9-A148-3C9E8B72ABA2";
name = Regular;
paths = (
{
closed = 1;
nodes = (
"67.5 -1 LINE SMOOTH",
"80.5 -1 OFFCURVE",
"86 3 OFFCURVE",
"86 9.5 CURVE SMOOTH",
"86 149 LINE",
"197.5 149 LINE SMOOTH",
"204 149 OFFCURVE",
"207 153.5 OFFCURVE",
"207 163 CURVE SMOOTH",
"207 170.5 LINE SMOOTH",
"207 180.5 OFFCURVE",
"204 184.5 OFFCURVE",
"197.5 184.5 CURVE SMOOTH",
"86 184.5 LINE",
"86 291 LINE",
"206 291 LINE SMOOTH",
"212.5 291 OFFCURVE",
"215.5 295 OFFCURVE",
"215.5 305 CURVE SMOOTH",
"215.5 312 LINE SMOOTH",
"215.5 322 OFFCURVE",
"212.5 326 OFFCURVE",
"206 326 CURVE SMOOTH",
"59 326 LINE SMOOTH",
"49.5 326 OFFCURVE",
"45 322 OFFCURVE",
"45 312 CURVE SMOOTH",
"45 9.5 LINE SMOOTH",
"45 3 OFFCURVE",
"51 -1 OFFCURVE",
"64 -1 CURVE SMOOTH"
);
}
);
width = 234.5;
},
{
layerId = "209CD697-34B5-4613-8FA2-E55A274D1785";
name = Bold;
paths = (
{
closed = 1;
nodes = (
"76 -1 LINE SMOOTH",
"95.5 -1 OFFCURVE",
"104 4 OFFCURVE",
"104 14 CURVE SMOOTH",
"104 136 LINE",
"203 136 LINE SMOOTH",
"213 136 OFFCURVE",
"217 143 OFFCURVE",
"217 159.5 CURVE SMOOTH",
"217 174 LINE SMOOTH",
"217 190 OFFCURVE",
"213 197 OFFCURVE",
"203 197 CURVE SMOOTH",
"104 197 LINE",
"104 265 LINE",
"206.5 265 LINE SMOOTH",
"216 265 OFFCURVE",
"220.5 272 OFFCURVE",
"220.5 288.5 CURVE SMOOTH",
"220.5 303 LINE SMOOTH",
"220.5 319 OFFCURVE",
"216 326 OFFCURVE",
"206.5 326 CURVE SMOOTH",
"51 326 LINE SMOOTH",
"37.5 326 OFFCURVE",
"32 320.5 OFFCURVE",
"32 307.5 CURVE SMOOTH",
"32 14 LINE SMOOTH",
"32 4 OFFCURVE",
"40.5 -1 OFFCURVE",
"60 -1 CURVE SMOOTH"
);
}
);
width = 234.5;
}
);
unicode = 0046;
},
{
glyphname = G;
lastChange = "2015-01-14 23:02:33 +0000";
layers = (
{
anchors = (
{
name = bottom;
position = "{180.5, 0}";
},
{
name = top;
position = "{156.5, 326}";
}
);
layerId = "63CB2BE0-8E67-47A9-A148-3C9E8B72ABA2";
name = Regular;
paths = (
{
closed = 1;
nodes = (
"223.5 -3 OFFCURVE",
"274.5 4.5 OFFCURVE",
"274.5 31 CURVE SMOOTH",
"274.5 154 LINE SMOOTH",
"274.5 164 OFFCURVE",
"270.5 168 OFFCURVE",
"260.5 168 CURVE SMOOTH",
"179 168 LINE SMOOTH",
"172.5 168 OFFCURVE",
"169.5 164 OFFCURVE",
"169.5 154 CURVE SMOOTH",
"169.5 147 LINE SMOOTH",
"169.5 137 OFFCURVE",
"172.5 133 OFFCURVE",
"179 133 CURVE SMOOTH",
"233.5 133 LINE",
"233.5 38.5 LINE",
"221 35.5 OFFCURVE",
"197.5 32.5 OFFCURVE",
"173.5 32.5 CURVE SMOOTH",
"90.5 32.5 OFFCURVE",
"69 93 OFFCURVE",
"69 164.5 CURVE SMOOTH",
"69 245.5 OFFCURVE",
"96 293.5 OFFCURVE",
"178.5 293.5 CURVE SMOOTH",
"223 293.5 OFFCURVE",
"245.5 273 OFFCURVE",
"250.5 273 CURVE SMOOTH",
"257 273 OFFCURVE",
"266.5 292 OFFCURVE",
"266.5 300 CURVE SMOOTH",
"266.5 312.5 OFFCURVE",
"223.5 329 OFFCURVE",
"177.5 329 CURVE SMOOTH",
"80 329 OFFCURVE",
"26.5 276.5 OFFCURVE",
"26.5 160.5 CURVE SMOOTH",
"26.5 49.5 OFFCURVE",
"78 -3 OFFCURVE",
"170.5 -3 CURVE SMOOTH"
);
}
);
width = 313;
},
{
anchors = (
{
name = bottom;
position = "{165.5, 0}";
},
{
name = top;
position = "{163, 326}";
}
);
layerId = "209CD697-34B5-4613-8FA2-E55A274D1785";
name = Bold;
paths = (
{
closed = 1;
nodes = (
"207.5 -3.5 OFFCURVE",
"283 1 OFFCURVE",
"283 33 CURVE SMOOTH",
"283 162.5 LINE SMOOTH",
"283 175.5 OFFCURVE",
"277.5 181.5 OFFCURVE",
"264 181.5 CURVE SMOOTH",
"169.5 181.5 LINE SMOOTH",
"160 181.5 OFFCURVE",
"155.5 174.5 OFFCURVE",
"155.5 158 CURVE SMOOTH",
"155.5 143 LINE SMOOTH",
"155.5 127 OFFCURVE",
"160 120 OFFCURVE",
"169.5 120 CURVE SMOOTH",
"210.5 120 LINE",
"210.5 60.5 LINE",
"198 58 OFFCURVE",
"187.5 57.5 OFFCURVE",
"174.5 57.5 CURVE SMOOTH",
"120.5 57.5 OFFCURVE",
"94.5 93.5 OFFCURVE",
"94.5 163.5 CURVE SMOOTH",
"94.5 233.5 OFFCURVE",
"120 268.5 OFFCURVE",
"175 268.5 CURVE SMOOTH",
"219.5 268.5 OFFCURVE",
"240.5 253.5 OFFCURVE",
"246 253.5 CURVE SMOOTH",
"257.5 253.5 OFFCURVE",
"276.5 284.5 OFFCURVE",
"276.5 297.5 CURVE SMOOTH",
"276.5 317 OFFCURVE",
"217.5 330 OFFCURVE",
"176.5 330 CURVE SMOOTH",
"73 330 OFFCURVE",
"21 275 OFFCURVE",
"21 164 CURVE SMOOTH",
"21 49 OFFCURVE",
"70 -3.5 OFFCURVE",
"174.5 -3.5 CURVE SMOOTH"
);
}
);
width = 313;
}
);
unicode = 0047;
},
{
glyphname = H;
lastChange = "2015-01-14 23:02:33 +0000";
layers = (
{
anchors = (
{
name = bottom;
position = "{175, 0}";
},
{
name = center;
position = "{173.5, 243.5}";
},
{
name = top;
position = "{171, 326}";
}
);
layerId = "63CB2BE0-8E67-47A9-A148-3C9E8B72ABA2";
name = Regular;
paths = (
{
closed = 1;
nodes = (
"67.5 -1 LINE SMOOTH",
"80.5 -1 OFFCURVE",
"86 3 OFFCURVE",
"86 9.5 CURVE SMOOTH",
"86 149.5 LINE",
"255 149.5 LINE",
"255 9.5 LINE SMOOTH",
"255 3 OFFCURVE",
"260.5 -1 OFFCURVE",
"273.5 -1 CURVE SMOOTH",
"277.5 -1 LINE SMOOTH",
"290.5 -1 OFFCURVE",
"296 3 OFFCURVE",
"296 9.5 CURVE SMOOTH",
"296 317 LINE SMOOTH",
"296 323.5 OFFCURVE",
"290.5 327 OFFCURVE",
"277.5 327 CURVE SMOOTH",
"273.5 327 LINE SMOOTH",
"260.5 327 OFFCURVE",
"255 323.5 OFFCURVE",
"255 317 CURVE SMOOTH",
"255 185 LINE",
"86 185 LINE",
"86 317 LINE SMOOTH",
"86 323.5 OFFCURVE",
"80.5 327 OFFCURVE",
"67.5 327 CURVE SMOOTH",
"64 327 LINE SMOOTH",
"51 327 OFFCURVE",
"45 323.5 OFFCURVE",
"45 317 CURVE SMOOTH",
"45 9.5 LINE SMOOTH",
"45 3 OFFCURVE",
"51 -1 OFFCURVE",
"64 -1 CURVE SMOOTH"
);
}
);
width = 341.5;
},
{
anchors = (
{
name = bottom;
position = "{177.5, 0}";
},
{
name = center;
position = "{174.5, 243.5}";
},
{
name = top;
position = "{171, 326}";
}
);
layerId = "209CD697-34B5-4613-8FA2-E55A274D1785";
name = Bold;
paths = (
{
closed = 1;
nodes = (
"83.5 -1 LINE SMOOTH",
"103 -1 OFFCURVE",
"111.5 4 OFFCURVE",
"111.5 14 CURVE SMOOTH",
"111.5 135.5 LINE",
"237 135.5 LINE",
"237 14 LINE SMOOTH",
"237 4 OFFCURVE",
"245.5 -1 OFFCURVE",
"265 -1 CURVE SMOOTH",
"281.5 -1 LINE SMOOTH",
"301 -1 OFFCURVE",
"309.5 4 OFFCURVE",
"309.5 14 CURVE SMOOTH",
"309.5 312 LINE SMOOTH",
"309.5 322 OFFCURVE",
"301 327 OFFCURVE",
"281.5 327 CURVE SMOOTH",
"265 327 LINE SMOOTH",
"245.5 327 OFFCURVE",
"237 322 OFFCURVE",
"237 312 CURVE SMOOTH",
"237 197 LINE",
"111.5 197 LINE",
"111.5 312 LINE SMOOTH",
"111.5 322 OFFCURVE",
"103 327 OFFCURVE",
"83.5 327 CURVE SMOOTH",
"67 327 LINE SMOOTH",
"47.5 327 OFFCURVE",
"39 322 OFFCURVE",
"39 312 CURVE SMOOTH",
"39 14 LINE SMOOTH",
"39 4 OFFCURVE",
"47.5 -1 OFFCURVE",
"67 -1 CURVE SMOOTH"
);
}
);
width = 341.5;
}
);
unicode = 0048;
},
{
glyphname = I;
lastChange = "2015-01-14 23:02:33 +0000";
layers = (
{
anchors = (
{
name = bottom;
position = "{65, 0}";
},
{
name = ogonek;
position = "{77.5, 0}";
},
{
name = top;
position = "{65.5, 326}";
}
);
layerId = "63CB2BE0-8E67-47A9-A148-3C9E8B72ABA2";
name = Regular;
paths = (
{
closed = 1;
nodes = (
"67.5 -1 LINE SMOOTH",
"80.5 -1 OFFCURVE",
"86 3 OFFCURVE",
"86 9.5 CURVE SMOOTH",
"86 317 LINE SMOOTH",
"86 323.5 OFFCURVE",
"80.5 327 OFFCURVE",
"67.5 327 CURVE SMOOTH",
"64 327 LINE SMOOTH",
"51 327 OFFCURVE",
"45 323.5 OFFCURVE",
"45 317 CURVE SMOOTH",
"45 9.5 LINE SMOOTH",
"45 3 OFFCURVE",
"51 -1 OFFCURVE",
"64 -1 CURVE SMOOTH"
);
}
);
width = 131.5;
},
{
anchors = (
{
name = bottom;
position = "{65.5, 0}";
},
{
name = ogonek;
position = "{85, 0}";
},
{
name = top;
position = "{65.5, 326}";
}
);
layerId = "209CD697-34B5-4613-8FA2-E55A274D1785";
name = Bold;
paths = (
{
closed = 1;
nodes = (
"73.5 -1.5 LINE SMOOTH",
"93 -1.5 OFFCURVE",
"101.5 4 OFFCURVE",
"101.5 14 CURVE SMOOTH",
"101.5 312 LINE SMOOTH",
"101.5 322 OFFCURVE",
"93 327.5 OFFCURVE",
"73.5 327.5 CURVE SMOOTH",
"57.5 327.5 LINE SMOOTH",
"37.5 327.5 OFFCURVE",
"29.5 322 OFFCURVE",
"29.5 312 CURVE SMOOTH",
"29.5 14 LINE SMOOTH",
"29.5 4 OFFCURVE",
"37.5 -1.5 OFFCURVE",
"57.5 -1.5 CURVE SMOOTH"
);
}
);
width = 131.5;
}
);
unicode = 0049;
},
{
glyphname = J;
lastChange = "2015-01-14 23:02:33 +0000";
layers = (
{
anchors = (
{
name = top;
position = "{126.5, 326}";
}
);
layerId = "63CB2BE0-8E67-47A9-A148-3C9E8B72ABA2";
name = Regular;
paths = (
{
closed = 1;
nodes = (
"121.5 -3 OFFCURVE",
"148.5 37 OFFCURVE",
"148.5 95.5 CURVE SMOOTH",
"148.5 317 LINE SMOOTH",
"148.5 323.5 OFFCURVE",
"143 327 OFFCURVE",
"130 327 CURVE SMOOTH",
"126.5 327 LINE SMOOTH",
"113 327 OFFCURVE",
"107.5 323.5 OFFCURVE",
"107.5 317 CURVE SMOOTH",
"107.5 91 LINE SMOOTH",
"107.5 51 OFFCURVE",
"88.5 33.5 OFFCURVE",
"42.5 33.5 CURVE SMOOTH",
"27.5 33.5 OFFCURVE",
"17 37.5 OFFCURVE",
"13 37.5 CURVE SMOOTH",
"5.5 37.5 OFFCURVE",
"3 14 OFFCURVE",
"3 12 CURVE SMOOTH",
"3 -0.5 OFFCURVE",
"32 -3 OFFCURVE",
"50 -3 CURVE SMOOTH"
);
}
);
width = 187.5;
},
{
anchors = (
{
name = top;
position = "{121.5, 326}";
}
);
layerId = "209CD697-34B5-4613-8FA2-E55A274D1785";
name = Bold;
paths = (
{
closed = 1;
nodes = (
"127 -3.5 OFFCURVE",
"156.5 35 OFFCURVE",
"156.5 94 CURVE SMOOTH",
"156.5 312 LINE SMOOTH",
"156.5 322 OFFCURVE",
"148 327.5 OFFCURVE",
"128.5 327.5 CURVE SMOOTH",
"112.5 327.5 LINE SMOOTH",
"92.5 327.5 OFFCURVE",
"84.5 322 OFFCURVE",
"84.5 312 CURVE SMOOTH",
"84.5 106 LINE SMOOTH",
"84.5 72 OFFCURVE",
"73 57.5 OFFCURVE",
"45 57.5 CURVE SMOOTH",
"30.5 57.5 OFFCURVE",
"24 61 OFFCURVE",
"19 61 CURVE",
"4.5 59.5 OFFCURVE",
"0 26 OFFCURVE",
"0 17.5 CURVE SMOOTH",
"0 -2.5 OFFCURVE",
"46.5 -3.5 OFFCURVE",
"58 -3.5 CURVE SMOOTH"
);
}
);
width = 187.5;
}
);
unicode = 004A;
},
{
glyphname = K;
lastChange = "2015-01-14 23:02:33 +0000";
layers = (
{
anchors = (
{
name = bottom;
position = "{134, 0}";
},
{
name = top;
position = "{134, 326}";
}
);
layerId = "63CB2BE0-8E67-47A9-A148-3C9E8B72ABA2";
name = Regular;
paths = (
{
closed = 1;
nodes = (
"67.5 -1 LINE SMOOTH",
"80.5 -1 OFFCURVE",
"86 3 OFFCURVE",
"86 9.5 CURVE SMOOTH",
"86 155 LINE",
"88 155 LINE",
"221.5 5 LINE SMOOTH",
"227 -1 OFFCURVE",
"236.5 -1 OFFCURVE",
"247 -1 CURVE SMOOTH",
"252.5 -1 LINE SMOOTH",
"267 -1 OFFCURVE",
"273 0.5 OFFCURVE",
"273 5.5 CURVE SMOOTH",
"273 7.5 OFFCURVE",
"272 9.5 OFFCURVE",
"269 13 CURVE SMOOTH",
"127.5 166.5 LINE",
"244 312 LINE SMOOTH",
"247.5 315.5 OFFCURVE",
"249 318.5 OFFCURVE",
"249 321 CURVE SMOOTH",
"249 324.5 OFFCURVE",
"243.5 327 OFFCURVE",
"232.5 327 CURVE SMOOTH",
"228 327 LINE SMOOTH",
"217.5 327 OFFCURVE",
"207 325.5 OFFCURVE",
"202.5 320.5 CURVE SMOOTH",
"88 174.5 LINE",
"86 174.5 LINE",
"86 317 LINE SMOOTH",
"86 323.5 OFFCURVE",
"80.5 327 OFFCURVE",
"67.5 327 CURVE SMOOTH",
"64 327 LINE SMOOTH",
"51 327 OFFCURVE",
"45 323.5 OFFCURVE",
"45 317 CURVE SMOOTH",
"45 9.5 LINE SMOOTH",
"45 3 OFFCURVE",
"51 -1 OFFCURVE",
"64 -1 CURVE SMOOTH"
);
}
);
width = 268.5;
},
{
anchors = (
{
name = bottom;
position = "{139, 0}";
},
{
name = top;
position = "{143.5, 326}";
}
);
layerId = "209CD697-34B5-4613-8FA2-E55A274D1785";
name = Bold;
paths = (
{
closed = 1;
nodes = (
"76.5 -1 LINE SMOOTH",
"96 -1 OFFCURVE",
"104.5 4 OFFCURVE",
"104.5 14 CURVE SMOOTH",
"104.5 149 LINE",
"106 149.5 LINE",
"194 8 LINE SMOOTH",
"198 1 OFFCURVE",
"209 -1 OFFCURVE",
"222.5 -1 CURVE SMOOTH",
"249.5 -1 LINE SMOOTH",
"267.5 -1 OFFCURVE",
"275.5 2 OFFCURVE",
"275.5 6 CURVE SMOOTH",
"275.5 8.5 OFFCURVE",
"274.5 11.5 OFFCURVE",
"271.5 16 CURVE SMOOTH",
"169.5 172.5 LINE",
"259.5 310.5 LINE SMOOTH",
"262.5 314.5 OFFCURVE",
"263.5 318 OFFCURVE",
"263.5 320 CURVE SMOOTH",
"263.5 324.5 OFFCURVE",
"255.5 327 OFFCURVE",
"237 327 CURVE SMOOTH",
"215.5 327 LINE SMOOTH",
"202 327 OFFCURVE",
"191.5 325.5 OFFCURVE",
"187.5 318.5 CURVE SMOOTH",
"106 187 LINE",
"104.5 187.5 LINE",
"104.5 312 LINE SMOOTH",
"104.5 322 OFFCURVE",
"96 327 OFFCURVE",
"76.5 327 CURVE SMOOTH",
"60 327 LINE SMOOTH",
"40.5 327 OFFCURVE",
"32 322 OFFCURVE",
"32 312 CURVE SMOOTH",
"32 14 LINE SMOOTH",
"32 4 OFFCURVE",
"40.5 -1 OFFCURVE",
"60 -1 CURVE SMOOTH"
);
}
);
width = 268.5;
}
);
unicode = 004B;
},
{
glyphname = L;
lastChange = "2015-01-14 23:02:33 +0000";
layers = (
{
anchors = (
{
name = bottom;
position = "{131.5, 0}";
},
{
name = caron;
position = "{114, 326}";
},
{
name = center;
position = "{140, 156}";
},
{
name = top;
position = "{67.5, 327}";
}
);
layerId = "63CB2BE0-8E67-47A9-A148-3C9E8B72ABA2";
name = Regular;
paths = (
{
closed = 1;
nodes = (
"214.5 0 LINE SMOOTH",
"221 0 OFFCURVE",
"223.5 4 OFFCURVE",
"223.5 14 CURVE SMOOTH",
"223.5 21.5 LINE SMOOTH",
"223.5 31 OFFCURVE",
"221 35.5 OFFCURVE",
"214.5 35.5 CURVE SMOOTH",
"86 35.5 LINE",
"86 317 LINE SMOOTH",
"86 323.5 OFFCURVE",
"80.5 327 OFFCURVE",
"67.5 327 CURVE SMOOTH",
"64 327 LINE SMOOTH",
"51 327 OFFCURVE",
"45 323.5 OFFCURVE",
"45 317 CURVE SMOOTH",
"45 14 LINE SMOOTH",
"45 4 OFFCURVE",
"49.5 0 OFFCURVE",
"59 0 CURVE SMOOTH"
);
}
);
width = 225.5;
},
{
anchors = (
{
name = bottom;
position = "{113, 0}";
},
{
name = caron;
position = "{122, 326}";
},
{
name = center;
position = "{154, 156}";
},
{
name = top;
position = "{70, 326}";
}
);
layerId = "209CD697-34B5-4613-8FA2-E55A274D1785";
name = Bold;
paths = (
{
closed = 1;
nodes = (
"208 0 LINE SMOOTH",
"217.5 0 OFFCURVE",
"222 7 OFFCURVE",
"222 23.5 CURVE SMOOTH",
"222 37.5 LINE SMOOTH",
"222 54 OFFCURVE",
"217.5 61 OFFCURVE",
"208 61 CURVE SMOOTH",
"104 61 LINE",
"104 312 LINE SMOOTH",
"104 322 OFFCURVE",
"95.5 327 OFFCURVE",
"76 327 CURVE SMOOTH",
"60 327 LINE SMOOTH",
"40.5 327 OFFCURVE",
"32 322 OFFCURVE",
"32 312 CURVE SMOOTH",
"32 18.5 LINE SMOOTH",
"32 5.5 OFFCURVE",
"37.5 0 OFFCURVE",
"51 0 CURVE SMOOTH"
);
}
);
width = 225.5;
}
);
rightKerningGroup = L;
unicode = 004C;
},
{
glyphname = LJ;
lastChange = "2015-01-14 23:02:33 +0000";
layers = (
{
layerId = "63CB2BE0-8E67-47A9-A148-3C9E8B72ABA2";
name = Regular;
paths = (
{
closed = 1;
nodes = (
"268 -72.5 OFFCURVE",
"295 -33 OFFCURVE",
"295 25.5 CURVE SMOOTH",
"295 317 LINE SMOOTH",
"295 323.5 OFFCURVE",
"289.5 327 OFFCURVE",
"276.5 327 CURVE SMOOTH",
"272.5 327 LINE SMOOTH",
"259.5 327 OFFCURVE",
"254 323.5 OFFCURVE",
"254 317 CURVE SMOOTH",
"254 21 LINE SMOOTH",
"254 -19 OFFCURVE",
"235 -36.5 OFFCURVE",
"188.5 -36.5 CURVE SMOOTH",
"174 -36.5 OFFCURVE",
"163 -32 OFFCURVE",
"159.5 -32 CURVE SMOOTH",
"152 -32 OFFCURVE",
"149 -56 OFFCURVE",
"149 -58 CURVE SMOOTH",
"149 -70.5 OFFCURVE",
"178.5 -72.5 OFFCURVE",
"196 -72.5 CURVE SMOOTH"
);
},
{
closed = 1;
nodes = (
"181.5 0 LINE SMOOTH",
"188.5 0 OFFCURVE",
"191 4 OFFCURVE",
"191 14 CURVE SMOOTH",
"191 21.5 LINE SMOOTH",
"191 31 OFFCURVE",
"188.5 35.5 OFFCURVE",
"181.5 35.5 CURVE SMOOTH",
"86 35.5 LINE",
"86 317 LINE SMOOTH",
"86 323.5 OFFCURVE",
"80.5 327 OFFCURVE",
"67.5 327 CURVE SMOOTH",
"64 327 LINE SMOOTH",
"51 327 OFFCURVE",
"45 323.5 OFFCURVE",
"45 317 CURVE SMOOTH",
"45 14 LINE SMOOTH",
"45 4 OFFCURVE",
"49.5 0 OFFCURVE",
"59 0 CURVE SMOOTH"
);
}
);
width = 334.5;
},
{
layerId = "209CD697-34B5-4613-8FA2-E55A274D1785";
name = Bold;
paths = (
{
closed = 1;
nodes = (
"278 -84.5 OFFCURVE",
"307.5 -39.5 OFFCURVE",
"307.5 19.5 CURVE SMOOTH",
"307.5 312 LINE SMOOTH",
"307.5 322 OFFCURVE",
"299 327.5 OFFCURVE",
"279.5 327.5 CURVE SMOOTH",
"263.5 327.5 LINE SMOOTH",
"243.5 327.5 OFFCURVE",
"235.5 322 OFFCURVE",
"235.5 312 CURVE SMOOTH",
"235.5 25 LINE SMOOTH",
"235.5 -9 OFFCURVE",
"224 -23.5 OFFCURVE",
"196 -23.5 CURVE SMOOTH",
"181.5 -23.5 OFFCURVE",
"174.5 -19.5 OFFCURVE",
"170 -19.5 CURVE",
"155.5 -21 OFFCURVE",
"151 -54.5 OFFCURVE",
"151 -63 CURVE SMOOTH",
"151 -83 OFFCURVE",
"197.5 -84.5 OFFCURVE",
"209 -84.5 CURVE SMOOTH"
);
},
{
closed = 1;
nodes = (
"175 0 LINE SMOOTH",
"185 0 OFFCURVE",
"189 7 OFFCURVE",
"189 23.5 CURVE SMOOTH",
"189 37.5 LINE SMOOTH",
"189 54 OFFCURVE",
"185 61 OFFCURVE",
"175 61 CURVE SMOOTH",
"104 61 LINE",
"104 312 LINE SMOOTH",
"104 322 OFFCURVE",
"95.5 327 OFFCURVE",
"76 327 CURVE SMOOTH",
"60 327 LINE SMOOTH",
"40.5 327 OFFCURVE",
"32 322 OFFCURVE",
"32 312 CURVE SMOOTH",
"32 18.5 LINE SMOOTH",
"32 5.5 OFFCURVE",
"37.5 0 OFFCURVE",
"51 0 CURVE SMOOTH"
);
}
);
width = 334.5;
}
);
unicode = 01C7;
},
{
glyphname = Lslash;
lastChange = "2015-01-14 23:02:33 +0000";
layers = (
{
layerId = "63CB2BE0-8E67-47A9-A148-3C9E8B72ABA2";
name = Regular;
paths = (
{
closed = 1;
nodes = (
"216 0 LINE SMOOTH",
"222.5 0 OFFCURVE",
"225.5 4 OFFCURVE",
"225.5 14 CURVE SMOOTH",
"225.5 21.5 LINE SMOOTH",
"225.5 31 OFFCURVE",
"222.5 35.5 OFFCURVE",
"216 35.5 CURVE SMOOTH",
"80.5 35.5 LINE",
"80.5 187 LINE",
"131 216.5 LINE SMOOTH",
"136.5 220 OFFCURVE",
"140 224 OFFCURVE",
"140 230.5 CURVE SMOOTH",
"140 233.5 LINE SMOOTH",
"140 237.5 OFFCURVE",
"138 240 OFFCURVE",
"135.5 240 CURVE SMOOTH",
"134 240 OFFCURVE",
"133 239 OFFCURVE",
"131 238 CURVE SMOOTH",
"80.5 208.5 LINE",
"80.5 317 LINE SMOOTH",
"80.5 323.5 OFFCURVE",
"75 327 OFFCURVE",
"62 327 CURVE SMOOTH",
"58 327 LINE SMOOTH",
"45 327 OFFCURVE",
"39.5 323.5 OFFCURVE",
"39.5 317 CURVE SMOOTH",
"39.5 183.5 LINE",
"8 165 LINE SMOOTH",
"2.5 161.5 OFFCURVE",
"-1 157.5 OFFCURVE",
"-1 151 CURVE SMOOTH",
"-1 148 LINE SMOOTH",
"-1 144 OFFCURVE",
"1 141.5 OFFCURVE",
"3.5 141.5 CURVE SMOOTH",
"4 141.5 OFFCURVE",
"6 142 OFFCURVE",
"8 143.5 CURVE SMOOTH",
"39.5 162 LINE",
"39.5 14 LINE SMOOTH",
"39.5 4 OFFCURVE",
"44 0 OFFCURVE",
"53.5 0 CURVE SMOOTH"
);
}
);
width = 226.5;
},
{
layerId = "209CD697-34B5-4613-8FA2-E55A274D1785";
name = Bold;
paths = (
{
closed = 1;
nodes = (
"209 0 LINE SMOOTH",
"218.5 0 OFFCURVE",
"222.5 7 OFFCURVE",
"222.5 23.5 CURVE SMOOTH",
"222.5 37.5 LINE SMOOTH",
"222.5 54 OFFCURVE",
"218.5 61 OFFCURVE",
"209 61 CURVE SMOOTH",
"105 61 LINE",
"105 184 LINE",
"145.5 209 LINE SMOOTH",
"154 214 OFFCURVE",
"157.5 220.5 OFFCURVE",
"157.5 230 CURVE SMOOTH",
"157.5 239.5 LINE SMOOTH",
"157.5 245.5 OFFCURVE",
"155.5 249 OFFCURVE",
"152.5 249 CURVE SMOOTH",
"150.5 249 OFFCURVE",
"148 248 OFFCURVE",
"145.5 246 CURVE SMOOTH",
"105 221.5 LINE",
"105 312 LINE SMOOTH",
"105 322 OFFCURVE",
"96.5 327 OFFCURVE",
"77 327 CURVE SMOOTH",
"61 327 LINE SMOOTH",
"41.5 327 OFFCURVE",
"33 322 OFFCURVE",
"33 312 CURVE SMOOTH",
"33 177.5 LINE",
"24 172 LINE SMOOTH",
"16 167 OFFCURVE",
"12 161 OFFCURVE",
"12 151 CURVE SMOOTH",
"12 141.5 LINE SMOOTH",
"12 135 OFFCURVE",
"13.5 132.5 OFFCURVE",
"17 132.5 CURVE SMOOTH",
"19 132.5 OFFCURVE",
"21.5 133 OFFCURVE",
"24 134.5 CURVE SMOOTH",
"33 140.5 LINE",
"33 18.5 LINE SMOOTH",
"33 5.5 OFFCURVE",
"38.5 0 OFFCURVE",
"51.5 0 CURVE SMOOTH"
);
}
);
width = 226.5;
}
);
rightKerningGroup = L;
unicode = 0141;
},
{
glyphname = M;
lastChange = "2015-01-14 23:02:33 +0000";
layers = (
{
layerId = "63CB2BE0-8E67-47A9-A148-3C9E8B72ABA2";
name = Regular;
paths = (
{
closed = 1;
nodes = (
"64 -1 LINE SMOOTH",
"77 -1 OFFCURVE",
"82.5 3 OFFCURVE",
"82.5 9.5 CURVE SMOOTH",
"82.5 263 LINE",
"83.5 261 LINE",
"177.5 97 LINE SMOOTH",
"180 92.5 OFFCURVE",
"183 91 OFFCURVE",
"188 91 CURVE SMOOTH",
"206.5 91 LINE SMOOTH",
"211.5 91 OFFCURVE",
"214.5 92.5 OFFCURVE",
"216.5 97 CURVE SMOOTH",
"309.5 258 LINE",
"310.5 260 LINE",
"310.5 9.5 LINE SMOOTH",
"310.5 3 OFFCURVE",
"316 -1 OFFCURVE",
"329 -1 CURVE SMOOTH",
"332.5 -1 LINE SMOOTH",
"345.5 -1 OFFCURVE",
"351 3 OFFCURVE",
"351 9.5 CURVE SMOOTH",
"351 317 LINE SMOOTH",
"351 323.5 OFFCURVE",
"345.5 327 OFFCURVE",
"332.5 327 CURVE SMOOTH",
"317 327 LINE SMOOTH",
"305.5 327 OFFCURVE",
"300 324 OFFCURVE",
"297.5 318.5 CURVE SMOOTH",
"209 163 LINE",
"197 136.5 LINE",
"185 166 LINE",
"97 318.5 LINE SMOOTH",
"94 324 OFFCURVE",
"88.5 327 OFFCURVE",
"77.5 327 CURVE SMOOTH",
"60.5 327 LINE SMOOTH",
"47.5 327 OFFCURVE",
"42 323.5 OFFCURVE",
"42 317 CURVE SMOOTH",
"42 9.5 LINE SMOOTH",
"42 3 OFFCURVE",
"47.5 -1 OFFCURVE",
"60.5 -1 CURVE SMOOTH"
);
}
);
width = 393;
},
{
layerId = "209CD697-34B5-4613-8FA2-E55A274D1785";
name = Bold;
paths = (
{
closed = 1;
nodes = (
"73.5 -1 LINE SMOOTH",
"93 -1 OFFCURVE",
"101.5 4 OFFCURVE",
"101.5 14 CURVE SMOOTH",
"101.5 207 LINE",
"103.5 207.5 LINE",
"171 86.5 LINE",
"175 81 OFFCURVE",
"181 78 OFFCURVE",
"189.5 78 CURVE SMOOTH",
"203 78 LINE SMOOTH",
"212 78 OFFCURVE",
"217.5 81 OFFCURVE",
"222 86.5 CURVE",
"289.5 207.5 LINE",
"291 207 LINE",
"291 14 LINE SMOOTH",
"291 4 OFFCURVE",
"299.5 -1 OFFCURVE",
"319 -1 CURVE SMOOTH",
"332.5 -1 LINE SMOOTH",
"352.5 -1 OFFCURVE",
"360.5 4 OFFCURVE",
"360.5 14 CURVE SMOOTH",
"360.5 312 LINE SMOOTH",
"360.5 322 OFFCURVE",
"352.5 327 OFFCURVE",
"332.5 327 CURVE SMOOTH",
"308.5 327 LINE SMOOTH",
"295 327 OFFCURVE",
"284.5 324 OFFCURVE",
"279 314.5 CURVE SMOOTH",
"200.5 176.5 LINE",
"196 168.5 LINE",
"192.5 175 LINE",
"114 314.5 LINE SMOOTH",
"109 324 OFFCURVE",
"98.5 327 OFFCURVE",
"85 327 CURVE SMOOTH",
"60 327 LINE SMOOTH",
"40.5 327 OFFCURVE",
"32 322 OFFCURVE",
"32 312 CURVE SMOOTH",
"32 14 LINE SMOOTH",
"32 4 OFFCURVE",
"40.5 -1 OFFCURVE",
"60 -1 CURVE SMOOTH"
);
}
);
width = 393;
}
);
unicode = 004D;
},
{
glyphname = N;
lastChange = "2015-01-14 23:02:33 +0000";
layers = (
{
anchors = (
{
name = bottom;
position = "{168, 0}";
},
{
name = top;
position = "{168, 326}";
}
);
layerId = "63CB2BE0-8E67-47A9-A148-3C9E8B72ABA2";
name = Regular;
paths = (
{
closed = 1;
nodes = (
"64 -1 LINE SMOOTH",
"77 -1 OFFCURVE",
"82.5 3 OFFCURVE",
"82.5 9.5 CURVE SMOOTH",
"82.5 261.5 LINE",
"95 237.5 LINE",
"249 5.5 LINE SMOOTH",
"251.5 1.5 OFFCURVE",
"256.5 -1 OFFCURVE",
"265 -1 CURVE SMOOTH",
"274.5 -1 LINE SMOOTH",
"287.5 -1 OFFCURVE",
"293 3 OFFCURVE",
"293 9.5 CURVE SMOOTH",
"293 317 LINE SMOOTH",
"293 323.5 OFFCURVE",
"287.5 327 OFFCURVE",
"274.5 327 CURVE SMOOTH",
"271 327 LINE SMOOTH",
"258 327 OFFCURVE",
"252.5 323.5 OFFCURVE",
"252.5 317 CURVE SMOOTH",
"252.5 67.5 LINE",
"238.5 93.5 LINE",
"90 318.5 LINE SMOOTH",
"85.5 325 OFFCURVE",
"80.5 327 OFFCURVE",
"70.5 327 CURVE SMOOTH",
"60.5 327 LINE SMOOTH",
"47.5 327 OFFCURVE",
"42 323.5 OFFCURVE",
"42 317 CURVE SMOOTH",
"42 9.5 LINE SMOOTH",
"42 3 OFFCURVE",
"47.5 -1 OFFCURVE",
"60.5 -1 CURVE SMOOTH"
);
}
);
width = 335;
},
{
anchors = (
{
name = bottom;
position = "{168, 0}";
},
{
name = top;
position = "{168, 326}";
}
);
layerId = "209CD697-34B5-4613-8FA2-E55A274D1785";
name = Bold;
paths = (
{
closed = 1;
nodes = (
"73.5 -1 LINE SMOOTH",
"93 -1 OFFCURVE",
"101.5 4 OFFCURVE",
"101.5 14 CURVE SMOOTH",
"101.5 202.5 LINE",
"111.5 188 LINE",
"226.5 11.5 LINE SMOOTH",
"233.5 1 OFFCURVE",
"243.5 -1 OFFCURVE",
"257 -1 CURVE SMOOTH",
"275 -1 LINE SMOOTH",
"294.5 -1 OFFCURVE",
"303 4 OFFCURVE",
"303 14 CURVE SMOOTH",
"303 312 LINE SMOOTH",
"303 322 OFFCURVE",
"294.5 327 OFFCURVE",
"275 327 CURVE SMOOTH",
"261.5 327 LINE SMOOTH",
"242 327 OFFCURVE",
"233.5 322 OFFCURVE",
"233.5 312 CURVE SMOOTH",
"233.5 126 LINE",
"221 145 LINE",
"111 314.5 LINE SMOOTH",
"104 325.5 OFFCURVE",
"93.5 327 OFFCURVE",
"80 327 CURVE SMOOTH",
"60 327 LINE SMOOTH",
"40.5 327 OFFCURVE",
"32 322 OFFCURVE",
"32 312 CURVE SMOOTH",
"32 14 LINE SMOOTH",
"32 4 OFFCURVE",
"40.5 -1 OFFCURVE",
"60 -1 CURVE SMOOTH"
);
}
);
width = 335;
}
);
unicode = 004E;
},
{
glyphname = Eng;
lastChange = "2015-01-14 23:02:33 +0000";
layers = (
{
components = (
{
name = dotlessj;
transform = "{1, 0, 0, 1, 206.904, 0}";
}
);
layerId = "63CB2BE0-8E67-47A9-A148-3C9E8B72ABA2";
name = Regular;
paths = (
{
closed = 1;
nodes = (
"293 9.5 LINE",
"293 317 LINE SMOOTH",
"293 323.5 OFFCURVE",
"287.5 327 OFFCURVE",
"274.5 327 CURVE SMOOTH",
"271 327 LINE SMOOTH",
"258 327 OFFCURVE",
"252.5 323.5 OFFCURVE",
"252.5 317 CURVE SMOOTH",
"252.5 67.5 LINE",
"238.5 93.5 LINE",
"90 318.5 LINE SMOOTH",
"85.5 325 OFFCURVE",
"80.5 327 OFFCURVE",
"70.5 327 CURVE SMOOTH",
"60.5 327 LINE SMOOTH",
"47.5 327 OFFCURVE",
"42 323.5 OFFCURVE",
"42 317 CURVE SMOOTH",
"42 9.5 LINE SMOOTH",
"42 3 OFFCURVE",
"47.5 -1 OFFCURVE",
"60.5 -1 CURVE SMOOTH",
"64 -1 LINE SMOOTH",
"77 -1 OFFCURVE",
"82.5 3 OFFCURVE",
"82.5 9.5 CURVE SMOOTH",
"82.5 261.5 LINE",
"95 237.5 LINE",
"260 -11 LINE"
);
}
);
width = 335;
},
{
components = (
{
name = dotlessj;
transform = "{1, 0, 0, 1, 201.312, 0}";
}
);
layerId = "209CD697-34B5-4613-8FA2-E55A274D1785";
name = Bold;
paths = (
{
closed = 1;
nodes = (
"303 14 LINE",
"303 312 LINE SMOOTH",
"303 322 OFFCURVE",
"294.5 327 OFFCURVE",
"275 327 CURVE SMOOTH",
"261.5 327 LINE SMOOTH",
"242 327 OFFCURVE",
"233.5 322 OFFCURVE",
"233.5 312 CURVE SMOOTH",
"233.5 126 LINE",
"220.5 146 LINE",
"111 314.5 LINE SMOOTH",
"104 325.5 OFFCURVE",
"93.5 327 OFFCURVE",
"80 327 CURVE SMOOTH",
"60 327 LINE SMOOTH",
"40.5 327 OFFCURVE",
"32 322 OFFCURVE",
"32 312 CURVE SMOOTH",
"32 14 LINE SMOOTH",
"32 4 OFFCURVE",
"40.5 -1 OFFCURVE",
"60 -1 CURVE SMOOTH",
"73.5 -1 LINE SMOOTH",
"93 -1 OFFCURVE",
"101.5 4 OFFCURVE",
"101.5 14 CURVE SMOOTH",
"101.5 202.5 LINE",
"113 184.5 LINE",
"242.5 -12 LINE"
);
}
);
width = 335;
}
);
unicode = 014A;
},
{
glyphname = O;
lastChange = "2015-01-14 23:02:33 +0000";
layers = (
{
anchors = (
{
name = bottom;
position = "{171, 0}";
},
{
name = horn;
position = "{224.5, 318}";
},
{
name = ogonek;
position = "{206.5, 0}";
},
{
name = top;
position = "{170.5, 326}";
}
);
layerId = "63CB2BE0-8E67-47A9-A148-3C9E8B72ABA2";
name = Regular;
paths = (
{
closed = 1;
nodes = (
"264 -3 OFFCURVE",
"314 55 OFFCURVE",
"314 164 CURVE SMOOTH",
"314 273 OFFCURVE",
"264 329 OFFCURVE",
"170 329 CURVE SMOOTH",
"77 329 OFFCURVE",
"26.5 273 OFFCURVE",
"26.5 164 CURVE SMOOTH",
"26.5 55 OFFCURVE",
"77 -3 OFFCURVE",
"170 -3 CURVE SMOOTH"
);
},
{
closed = 1;
nodes = (
"104.5 32.5 OFFCURVE",
"69 78.5 OFFCURVE",
"69 164 CURVE SMOOTH",
"69 250 OFFCURVE",
"104.5 293.5 OFFCURVE",
"170 293.5 CURVE SMOOTH",
"236 293.5 OFFCURVE",
"271.5 250 OFFCURVE",
"271.5 164 CURVE SMOOTH",
"271.5 78.5 OFFCURVE",
"236 32.5 OFFCURVE",
"170 32.5 CURVE SMOOTH"
);
}
);
width = 340.5;
},
{
anchors = (
{
name = bottom;
position = "{171, 0}";
},
{
name = horn;
position = "{221, 318}";
},
{
name = ogonek;
position = "{206.5, 0}";
},
{
name = top;
position = "{170.5, 326}";
}
);
layerId = "209CD697-34B5-4613-8FA2-E55A274D1785";
name = Bold;
paths = (
{
closed = 1;
nodes = (
"266.5 -3.5 OFFCURVE",
"319.5 55.5 OFFCURVE",
"319.5 163 CURVE SMOOTH",
"319.5 270.5 OFFCURVE",
"266.5 330 OFFCURVE",
"170.5 330 CURVE SMOOTH",
"74.5 330 OFFCURVE",
"21 270.5 OFFCURVE",
"21 163 CURVE SMOOTH",
"21 55.5 OFFCURVE",
"74.5 -3.5 OFFCURVE",
"170.5 -3.5 CURVE SMOOTH"
);
},
{
closed = 1;
nodes = (
"120.5 57.5 OFFCURVE",
"94.5 94.5 OFFCURVE",
"94.5 163 CURVE SMOOTH",
"94.5 231.5 OFFCURVE",
"120.5 268.5 OFFCURVE",
"170.5 268.5 CURVE SMOOTH",
"220.5 268.5 OFFCURVE",
"246 231.5 OFFCURVE",
"246 163 CURVE SMOOTH",
"246 94.5 OFFCURVE",
"220.5 57.5 OFFCURVE",
"170.5 57.5 CURVE SMOOTH"
);
}
);
width = 340.5;
}
);
unicode = 004F;
},
{
glyphname = Oslash;
lastChange = "2015-01-14 23:02:33 +0000";
layers = (
{
anchors = (
{
name = top;
position = "{170.5, 326}";
}
);
layerId = "63CB2BE0-8E67-47A9-A148-3C9E8B72ABA2";
name = Regular;
paths = (
{
closed = 1;
nodes = (
"264 -3 OFFCURVE",
"314 55 OFFCURVE",
"314 164 CURVE SMOOTH",
"314 215 OFFCURVE",
"303 254 OFFCURVE",
"282 281.5 CURVE",
"309 311.5 LINE SMOOTH",
"311 313.5 OFFCURVE",
"312 315.5 OFFCURVE",
"312 318 CURVE SMOOTH",
"312 321.5 OFFCURVE",
"305.5 327 OFFCURVE",
"301.5 327 CURVE SMOOTH",
"299 327 OFFCURVE",
"297.5 326 OFFCURVE",
"295 323.5 CURVE SMOOTH",
"269.5 295 LINE",
"245 317.5 OFFCURVE",
"212 329 OFFCURVE",
"170 329 CURVE SMOOTH",
"77 329 OFFCURVE",
"26.5 273 OFFCURVE",
"26.5 164 CURVE SMOOTH",
"26.5 118 OFFCURVE",
"35.5 81.5 OFFCURVE",
"52.5 54 CURVE",
"18.5 17 LINE SMOOTH",
"17 14.5 OFFCURVE",
"16 12 OFFCURVE",
"16 10.5 CURVE SMOOTH",
"16 6 OFFCURVE",
"22 0.5 OFFCURVE",
"26 0.5 CURVE SMOOTH",
"28 0.5 OFFCURVE",
"30.5 2 OFFCURVE",
"32.5 4.5 CURVE SMOOTH",
"64 39 LINE",
"88 11 OFFCURVE",
"123.5 -3 OFFCURVE",
"170 -3 CURVE SMOOTH"
);
},
{
closed = 1;
nodes = (
"135 32.5 OFFCURVE",
"108.5 45 OFFCURVE",
"92 70.5 CURVE",
"253 250 LINE",
"265 229 OFFCURVE",
"271.5 200 OFFCURVE",
"271.5 164 CURVE SMOOTH",
"271.5 78.5 OFFCURVE",
"236 32.5 OFFCURVE",
"170 32.5 CURVE SMOOTH"
);
},
{
closed = 1;
nodes = (
"73.5 107.5 OFFCURVE",
"69 133.5 OFFCURVE",
"69 164 CURVE SMOOTH",
"69 250 OFFCURVE",
"104.5 293.5 OFFCURVE",
"170 293.5 CURVE SMOOTH",
"201 293.5 OFFCURVE",
"225 284 OFFCURVE",
"242 264.5 CURVE",
"82.5 87 LINE"
);
}
);
width = 340.5;
},
{
anchors = (
{
name = top;
position = "{170.5, 326}";
}
);
layerId = "209CD697-34B5-4613-8FA2-E55A274D1785";
name = Bold;
paths = (
{
closed = 1;
nodes = (
"266.5 -3.5 OFFCURVE",
"319.5 55.5 OFFCURVE",
"319.5 163 CURVE SMOOTH",
"319.5 211.5 OFFCURVE",
"308.5 250 OFFCURVE",
"288 278 CURVE",
"313 306.5 LINE SMOOTH",
"316.5 310 OFFCURVE",
"318 313 OFFCURVE",
"318 316 CURVE SMOOTH",
"318 324.5 OFFCURVE",
"303.5 337.5 OFFCURVE",
"295.5 337.5 CURVE SMOOTH",
"291.5 337.5 OFFCURVE",
"288.5 335.5 OFFCURVE",
"285 332 CURVE SMOOTH",
"261 304.5 LINE",
"237.5 321 OFFCURVE",
"207 330 OFFCURVE",
"170.5 330 CURVE SMOOTH",
"74.5 330 OFFCURVE",
"21 270.5 OFFCURVE",
"21 163 CURVE SMOOTH",
"21 121 OFFCURVE",
"29 86.5 OFFCURVE",
"44.5 60 CURVE",
"13.5 25 LINE SMOOTH",
"10.5 22 OFFCURVE",
"9 18.5 OFFCURVE",
"9 16 CURVE SMOOTH",
"9 7 OFFCURVE",
"24 -5.5 OFFCURVE",
"31 -5.5 CURVE SMOOTH",
"34.5 -5.5 OFFCURVE",
"38 -3.5 OFFCURVE",
"41.5 0 CURVE SMOOTH",
"68.5 31 LINE",
"93 8 OFFCURVE",
"127.5 -3.5 OFFCURVE",
"170.5 -3.5 CURVE SMOOTH"
);
},
{
closed = 1;
nodes = (
"146.5 57.5 OFFCURVE",
"127.5 66 OFFCURVE",
"115 83 CURVE",
"237 221 LINE",
"243 205.5 OFFCURVE",
"246 186 OFFCURVE",
"246 163 CURVE SMOOTH",
"246 94.5 OFFCURVE",
"220.5 57.5 OFFCURVE",
"170.5 57.5 CURVE SMOOTH"
);
},
{
closed = 1;
nodes = (
"96 133.5 OFFCURVE",
"94.5 147.5 OFFCURVE",
"94.5 163 CURVE SMOOTH",
"94.5 231.5 OFFCURVE",
"120.5 268.5 OFFCURVE",
"170.5 268.5 CURVE SMOOTH",
"188.5 268.5 OFFCURVE",
"204 263.5 OFFCURVE",
"216 253.5 CURVE",
"98.5 121 LINE"
);
}
);
width = 340.5;
}
);
unicode = 00D8;
},
{
glyphname = OE;
lastChange = "2015-01-14 23:02:33 +0000";
layers = (
{
anchors = (
{
name = top;
position = "{238, 326}";
}
);
layerId = "63CB2BE0-8E67-47A9-A148-3C9E8B72ABA2";
name = Regular;
paths = (
{
closed = 1;
nodes = (
"219.5 -3 OFFCURVE",
"256 13 OFFCURVE",
"279.5 44.5 CURVE",
"272.5 54 LINE",
"272.5 14 LINE SMOOTH",
"272.5 4 OFFCURVE",
"277 0 OFFCURVE",
"286.5 0 CURVE SMOOTH",
"451 0 LINE SMOOTH",
"457.5 0 OFFCURVE",
"460.5 4 OFFCURVE",
"460.5 14 CURVE SMOOTH",
"460.5 21.5 LINE SMOOTH",
"460.5 31 OFFCURVE",
"457.5 35.5 OFFCURVE",
"451 35.5 CURVE SMOOTH",
"313.5 35.5 LINE",
"313.5 149 LINE",
"436.5 149 LINE SMOOTH",
"443 149 OFFCURVE",
"446 153.5 OFFCURVE",
"446 163 CURVE SMOOTH",
"446 170.5 LINE SMOOTH",
"446 180.5 OFFCURVE",
"443 184.5 OFFCURVE",
"436.5 184.5 CURVE SMOOTH",
"313.5 184.5 LINE",
"313.5 291 LINE",
"450.5 291 LINE SMOOTH",
"457 291 OFFCURVE",
"460 295 OFFCURVE",
"460 305 CURVE SMOOTH",
"460 312 LINE SMOOTH",
"460 322 OFFCURVE",
"457 326 OFFCURVE",
"450.5 326 CURVE SMOOTH",
"286.5 326 LINE SMOOTH",
"277 326 OFFCURVE",
"272.5 322 OFFCURVE",
"272.5 312 CURVE SMOOTH",
"272.5 273 LINE",
"279.5 282.5 LINE",
"256 313 OFFCURVE",
"219.5 329 OFFCURVE",
"170 329 CURVE SMOOTH",
"77 329 OFFCURVE",
"26.5 273 OFFCURVE",
"26.5 164 CURVE SMOOTH",
"26.5 55 OFFCURVE",
"77 -3 OFFCURVE",
"170 -3 CURVE SMOOTH"
);
},
{
closed = 1;
nodes = (
"104.5 32.5 OFFCURVE",
"69 78.5 OFFCURVE",
"69 164 CURVE SMOOTH",
"69 250 OFFCURVE",
"104.5 293.5 OFFCURVE",
"170 293.5 CURVE SMOOTH",
"236 293.5 OFFCURVE",
"271.5 250 OFFCURVE",
"271.5 164 CURVE SMOOTH",
"271.5 78.5 OFFCURVE",
"236 32.5 OFFCURVE",
"170 32.5 CURVE SMOOTH"
);
}
);
width = 476;
},
{
anchors = (
{
name = top;
position = "{238, 326}";
}
);
layerId = "209CD697-34B5-4613-8FA2-E55A274D1785";
name = Bold;
paths = (
{
closed = 1;
nodes = (
"204.5 -3.5 OFFCURVE",
"237 7 OFFCURVE",
"263 29 CURVE",
"247 54 LINE",
"247 19 LINE",
"247 5.5 OFFCURVE",
"252.5 0 OFFCURVE",
"265.5 0 CURVE SMOOTH",
"436.5 0 LINE SMOOTH",
"446.5 0 OFFCURVE",
"450.5 7 OFFCURVE",
"450.5 23.5 CURVE SMOOTH",
"450.5 37.5 LINE SMOOTH",
"450.5 54 OFFCURVE",
"446.5 61 OFFCURVE",
"436.5 61 CURVE SMOOTH",
"318.5 61 LINE",
"318.5 136.5 LINE",
"423.5 136.5 LINE SMOOTH",
"433.5 136.5 OFFCURVE",
"437.5 143.5 OFFCURVE",
"437.5 160 CURVE SMOOTH",
"437.5 174.5 LINE SMOOTH",
"437.5 190.5 OFFCURVE",
"433.5 197.5 OFFCURVE",
"423.5 197.5 CURVE SMOOTH",
"318.5 197.5 LINE",
"318.5 265 LINE",
"436 265 LINE SMOOTH",
"446 265 OFFCURVE",
"450 272 OFFCURVE",
"450 288.5 CURVE SMOOTH",
"450 303 LINE SMOOTH",
"450 319 OFFCURVE",
"446 326 OFFCURVE",
"436 326 CURVE SMOOTH",
"265.5 326 LINE SMOOTH",
"252.5 326 OFFCURVE",
"247 320.5 OFFCURVE",
"247 308.5 CURVE SMOOTH",
"247 273.5 LINE",
"263 297 LINE",
"236.5 319 OFFCURVE",
"205.5 330 OFFCURVE",
"166 330 CURVE SMOOTH",
"72.5 330 OFFCURVE",
"21 270.5 OFFCURVE",
"21 163 CURVE SMOOTH",
"21 55.5 OFFCURVE",
"72.5 -3.5 OFFCURVE",
"166 -3.5 CURVE SMOOTH"
);
},
{
closed = 1;
nodes = (
"120.5 57.5 OFFCURVE",
"94.5 94.5 OFFCURVE",
"94.5 163 CURVE SMOOTH",
"94.5 231.5 OFFCURVE",
"120.5 268.5 OFFCURVE",
"170.5 268.5 CURVE SMOOTH",
"220.5 268.5 OFFCURVE",
"246 231.5 OFFCURVE",
"246 163 CURVE SMOOTH",
"246 94.5 OFFCURVE",
"220.5 57.5 OFFCURVE",
"170.5 57.5 CURVE SMOOTH"
);
}
);
width = 476;
}
);
unicode = 0152;
},
{
glyphname = P;
lastChange = "2015-01-14 23:02:33 +0000";
layers = (
{
layerId = "63CB2BE0-8E67-47A9-A148-3C9E8B72ABA2";
name = Regular;
paths = (
{
closed = 1;
nodes = (
"62 -1 LINE SMOOTH",
"75 -1 OFFCURVE",
"80.5 3 OFFCURVE",
"80.5 9.5 CURVE SMOOTH",
"80.5 139 LINE",
"153 139 LINE SMOOTH",
"177 139 OFFCURVE",
"252 149.5 OFFCURVE",
"252 235 CURVE SMOOTH",
"252 313.5 OFFCURVE",
"188.5 326 OFFCURVE",
"148 326 CURVE SMOOTH",
"53.5 326 LINE SMOOTH",
"44 326 OFFCURVE",
"39.5 322 OFFCURVE",
"39.5 312 CURVE SMOOTH",
"39.5 9.5 LINE SMOOTH",
"39.5 3 OFFCURVE",
"45 -1 OFFCURVE",
"58 -1 CURVE SMOOTH"
);
},
{
closed = 1;
nodes = (
"80.5 291 LINE",
"147 291 LINE SMOOTH",
"174.5 291 OFFCURVE",
"209.5 281 OFFCURVE",
"209.5 235 CURVE SMOOTH",
"209.5 184 OFFCURVE",
"172 174.5 OFFCURVE",
"153.5 174.5 CURVE SMOOTH",
"80.5 174.5 LINE"
);
}
);
width = 265.5;
},
{
layerId = "209CD697-34B5-4613-8FA2-E55A274D1785";
name = Bold;
paths = (
{
closed = 1;
nodes = (
"76 -1 LINE SMOOTH",
"95.5 -1 OFFCURVE",
"104 4 OFFCURVE",
"104 14 CURVE SMOOTH",
"104 122 LINE",
"153.5 122 LINE SMOOTH",
"178.5 122 OFFCURVE",
"259.5 134 OFFCURVE",
"259.5 224 CURVE SMOOTH",
"259.5 314 OFFCURVE",
"190 326 OFFCURVE",
"148.5 326 CURVE SMOOTH",
"51 326 LINE SMOOTH",
"37.5 326 OFFCURVE",
"32 320.5 OFFCURVE",
"32 307.5 CURVE SMOOTH",
"32 14 LINE SMOOTH",
"32 4 OFFCURVE",
"40.5 -1 OFFCURVE",
"60 -1 CURVE SMOOTH"
);
},
{
closed = 1;
nodes = (
"104 265 LINE",
"145.5 265 LINE SMOOTH",
"163 265 OFFCURVE",
"186 257.5 OFFCURVE",
"186 224 CURVE SMOOTH",
"186 190.5 OFFCURVE",
"163 183.5 OFFCURVE",
"145.5 183.5 CURVE SMOOTH",
"104 183.5 LINE"
);
}
);
width = 265.5;
}
);
unicode = 0050;
},
{
glyphname = Thorn;
lastChange = "2015-01-14 23:02:33 +0000";
layers = (
{
layerId = "63CB2BE0-8E67-47A9-A148-3C9E8B72ABA2";
name = Regular;
paths = (
{
closed = 1;
nodes = (
"62 -1 LINE SMOOTH",
"75 -1 OFFCURVE",
"80.5 3 OFFCURVE",
"80.5 9.5 CURVE SMOOTH",
"80.5 82 LINE",
"153 82 LINE SMOOTH",
"177 82 OFFCURVE",
"252 92.5 OFFCURVE",
"252 178 CURVE SMOOTH",
"252 257 OFFCURVE",
"188.5 269.5 OFFCURVE",
"148 269.5 CURVE SMOOTH",
"80.5 269.5 LINE",
"80.5 317 LINE SMOOTH",
"80.5 323.5 OFFCURVE",
"75 327 OFFCURVE",
"62 327 CURVE SMOOTH",
"58 327 LINE SMOOTH",
"45 327 OFFCURVE",
"39.5 323.5 OFFCURVE",
"39.5 317 CURVE SMOOTH",
"39.5 9.5 LINE SMOOTH",
"39.5 3 OFFCURVE",
"45 -1 OFFCURVE",
"58 -1 CURVE SMOOTH"
);
},
{
closed = 1;
nodes = (
"80.5 234 LINE",
"147 234 LINE SMOOTH",
"174.5 234 OFFCURVE",
"209.5 224 OFFCURVE",
"209.5 178 CURVE SMOOTH",
"209.5 127 OFFCURVE",
"172 117.5 OFFCURVE",
"153.5 117.5 CURVE SMOOTH",
"80.5 117.5 LINE"
);
}
);
width = 264;
},
{
layerId = "209CD697-34B5-4613-8FA2-E55A274D1785";
name = Bold;
paths = (
{
closed = 1;
nodes = (
"75.5 -1 LINE SMOOTH",
"95 -1 OFFCURVE",
"103.5 4 OFFCURVE",
"103.5 14 CURVE SMOOTH",
"103.5 72 LINE",
"156 72 LINE SMOOTH",
"181.5 72 OFFCURVE",
"262.5 84.5 OFFCURVE",
"262.5 174.5 CURVE SMOOTH",
"262.5 264 OFFCURVE",
"193 276.5 OFFCURVE",
"151.5 276.5 CURVE SMOOTH",
"103.5 276.5 LINE",
"103.5 312 LINE SMOOTH",
"103.5 322 OFFCURVE",
"95 327 OFFCURVE",
"75.5 327 CURVE SMOOTH",
"59.5 327 LINE SMOOTH",
"40 327 OFFCURVE",
"31.5 322 OFFCURVE",
"31.5 312 CURVE SMOOTH",
"31.5 14 LINE SMOOTH",
"31.5 4 OFFCURVE",
"40 -1 OFFCURVE",
"59.5 -1 CURVE SMOOTH"
);
},
{
closed = 1;
nodes = (
"103.5 215.5 LINE",
"148 215.5 LINE SMOOTH",
"166 215.5 OFFCURVE",
"188.5 208 OFFCURVE",
"188.5 174.5 CURVE SMOOTH",
"188.5 140.5 OFFCURVE",
"166 133.5 OFFCURVE",
"148 133.5 CURVE SMOOTH",
"103.5 133.5 LINE"
);
}
);
width = 264;
}
);
unicode = 00DE;
},
{
glyphname = Q;
lastChange = "2015-01-14 23:02:33 +0000";
layers = (
{
layerId = "63CB2BE0-8E67-47A9-A148-3C9E8B72ABA2";
name = Regular;
paths = (
{
closed = 1;
nodes = (
"310 -69 OFFCURVE",
"318.5 -41 OFFCURVE",
"318.5 -35.5 CURVE SMOOTH",
"318.5 -32 OFFCURVE",
"316.5 -30 OFFCURVE",
"312 -28.5 CURVE SMOOTH",
"220.5 0.5 LINE",
"220.5 2.5 LINE",
"281 18.5 OFFCURVE",
"314 73 OFFCURVE",
"314 161.5 CURVE SMOOTH",
"314 270.5 OFFCURVE",
"264 329 OFFCURVE",
"170 329 CURVE SMOOTH",
"77 329 OFFCURVE",
"26.5 271 OFFCURVE",
"26.5 161.5 CURVE SMOOTH",
"26.5 78.5 OFFCURVE",
"56 26 OFFCURVE",
"114.5 3 CURVE SMOOTH",
"128 -3 OFFCURVE",
"293.5 -69 OFFCURVE",
"299 -69 CURVE SMOOTH"
);
},
{
closed = 1;
nodes = (
"106 31 OFFCURVE",
"69 77 OFFCURVE",
"69 161.5 CURVE SMOOTH",
"69 247 OFFCURVE",
"106 293.5 OFFCURVE",
"170 293.5 CURVE SMOOTH",
"235 293.5 OFFCURVE",
"271.5 246.5 OFFCURVE",
"271.5 161.5 CURVE SMOOTH",
"271.5 77.5 OFFCURVE",
"235 31 OFFCURVE",
"170 31 CURVE SMOOTH"
);
}
);
width = 340.5;
},
{
layerId = "209CD697-34B5-4613-8FA2-E55A274D1785";
name = Bold;
paths = (
{
closed = 1;
nodes = (
"313.5 -68 OFFCURVE",
"324.5 -28 OFFCURVE",
"324.5 -20.5 CURVE SMOOTH",
"324.5 -17 OFFCURVE",
"322 -14.5 OFFCURVE",
"318 -13 CURVE SMOOTH",
"246.5 12.5 LINE",
"246.5 14.5 LINE",
"293.5 38.5 OFFCURVE",
"319.5 89.5 OFFCURVE",
"319.5 163 CURVE SMOOTH",
"319.5 270.5 OFFCURVE",
"266.5 330 OFFCURVE",
"170.5 330 CURVE SMOOTH",
"74.5 330 OFFCURVE",
"21 270.5 OFFCURVE",
"21 163 CURVE SMOOTH",
"21 82.5 OFFCURVE",
"51 29 OFFCURVE",
"106 7.5 CURVE SMOOTH",
"295.5 -67.5 OFFCURVE",
"294 -68 OFFCURVE",
"298.5 -68 CURVE SMOOTH"
);
},
{
closed = 1;
nodes = (
"120.5 55.5 OFFCURVE",
"94.5 93 OFFCURVE",
"94.5 163 CURVE SMOOTH",
"94.5 231.5 OFFCURVE",
"120.5 268.5 OFFCURVE",
"170.5 268.5 CURVE SMOOTH",
"220.5 268.5 OFFCURVE",
"246 231.5 OFFCURVE",
"246 163 CURVE SMOOTH",
"246 93 OFFCURVE",
"220.5 55.5 OFFCURVE",
"170.5 55.5 CURVE SMOOTH"
);
}
);
width = 340.5;
}
);
unicode = 0051;
},
{
glyphname = R;
lastChange = "2015-01-14 23:02:33 +0000";
layers = (
{
anchors = (
{
name = bottom;
position = "{142, 0}";
},
{
name = top;
position = "{142, 326}";
}
);
layerId = "63CB2BE0-8E67-47A9-A148-3C9E8B72ABA2";
name = Regular;
paths = (
{
closed = 1;
nodes = (
"67.5 -1 LINE SMOOTH",
"80.5 -1 OFFCURVE",
"86 3 OFFCURVE",
"86 9.5 CURVE SMOOTH",
"86 143.5 LINE",
"128 143.5 LINE SMOOTH",
"164.5 143.5 OFFCURVE",
"183.5 134 OFFCURVE",
"197.5 98 CURVE SMOOTH",
"233 6.5 LINE SMOOTH",
"235 2 OFFCURVE",
"242.5 -1 OFFCURVE",
"251.5 -1 CURVE SMOOTH",
"256.5 -1 LINE SMOOTH",
"270 -1 OFFCURVE",
"276 2 OFFCURVE",
"276 6.5 CURVE SMOOTH",
"276 8 OFFCURVE",
"275.5 10.5 OFFCURVE",
"274.5 13 CURVE SMOOTH",
"238 105 LINE SMOOTH",
"226 135.5 OFFCURVE",
"216 156.5 OFFCURVE",
"196 163 CURVE",
"196 165 LINE",
"229 178 OFFCURVE",
"250 203.5 OFFCURVE",
"250 243.5 CURVE SMOOTH",
"250 302.5 OFFCURVE",
"210 326 OFFCURVE",
"137.5 326 CURVE SMOOTH",
"59 326 LINE SMOOTH",
"49.5 326 OFFCURVE",
"45 322 OFFCURVE",
"45 312 CURVE SMOOTH",
"45 9.5 LINE SMOOTH",
"45 3 OFFCURVE",
"51 -1 OFFCURVE",
"64 -1 CURVE SMOOTH"
);
},
{
closed = 1;
nodes = (
"86 291 LINE",
"144.5 291 LINE SMOOTH",
"182 291 OFFCURVE",
"207.5 274 OFFCURVE",
"207.5 236.5 CURVE SMOOTH",
"207.5 205.5 OFFCURVE",
"181.5 179 OFFCURVE",
"147.5 179 CURVE SMOOTH",
"86 179 LINE"
);
}
);
width = 284.5;
},
{
anchors = (
{
name = bottom;
position = "{142, 0}";
},
{
name = top;
position = "{142, 326}";
}
);
layerId = "209CD697-34B5-4613-8FA2-E55A274D1785";
name = Bold;
paths = (
{
closed = 1;
nodes = (
"76 -1 LINE SMOOTH",
"95.5 -1 OFFCURVE",
"104 4 OFFCURVE",
"104 14 CURVE SMOOTH",
"104 127.5 LINE",
"122 127.5 LINE SMOOTH",
"152.5 127.5 OFFCURVE",
"160 118.5 OFFCURVE",
"169 99.5 CURVE",
"206 9 LINE SMOOTH",
"209 1.5 OFFCURVE",
"219.5 -1 OFFCURVE",
"233 -1 CURVE SMOOTH",
"252 -1 LINE SMOOTH",
"271 -1 OFFCURVE",
"280 3 OFFCURVE",
"280 8.5 CURVE SMOOTH",
"280 10.5 OFFCURVE",
"279 13.5 OFFCURVE",
"277.5 17 CURVE SMOOTH",
"236.5 120 LINE SMOOTH",
"229 140 OFFCURVE",
"215 158 OFFCURVE",
"203 162.5 CURVE",
"203 164.5 LINE",
"235.5 176.5 OFFCURVE",
"257.5 202.5 OFFCURVE",
"257.5 238.5 CURVE SMOOTH",
"257.5 294.5 OFFCURVE",
"222.5 326 OFFCURVE",
"141.5 326 CURVE SMOOTH",
"51 326 LINE SMOOTH",
"37.5 326 OFFCURVE",
"32 320.5 OFFCURVE",
"32 307.5 CURVE SMOOTH",
"32 14 LINE SMOOTH",
"32 4 OFFCURVE",
"40.5 -1 OFFCURVE",
"60 -1 CURVE SMOOTH"
);
},
{
closed = 1;
nodes = (
"104 265 LINE",
"145 265 LINE SMOOTH",
"169 265 OFFCURVE",
"184 251 OFFCURVE",
"184 229.5 CURVE SMOOTH",
"184 207.5 OFFCURVE",
"167.5 189.5 OFFCURVE",
"148 189.5 CURVE SMOOTH",
"104 189.5 LINE"
);
}
);
width = 284.5;
}
);
unicode = 0052;
},
{
glyphname = S;
lastChange = "2015-01-14 23:02:33 +0000";
layers = (
{
anchors = (
{
name = bottom;
position = "{116.5, 0}";
},
{
name = top;
position = "{116.5, 326}";
}
);
layerId = "63CB2BE0-8E67-47A9-A148-3C9E8B72ABA2";
name = Regular;
paths = (
{
closed = 1;
nodes = (
"176.5 -3 OFFCURVE",
"217 31.5 OFFCURVE",
"217 87.5 CURVE SMOOTH",
"217 151 OFFCURVE",
"170.5 169.5 OFFCURVE",
"129 185.5 CURVE SMOOTH",
"95.5 198 OFFCURVE",
"65.5 207 OFFCURVE",
"65.5 241 CURVE SMOOTH",
"65.5 275 OFFCURVE",
"91 293.5 OFFCURVE",
"126 293.5 CURVE SMOOTH",
"162.5 293.5 OFFCURVE",
"180 276 OFFCURVE",
"187 276 CURVE SMOOTH",
"191.5 276 OFFCURVE",
"202 293.5 OFFCURVE",
"202 300.5 CURVE SMOOTH",
"202 317.5 OFFCURVE",
"153.5 329 OFFCURVE",
"127 329 CURVE SMOOTH",
"64.5 329 OFFCURVE",
"23.5 293 OFFCURVE",
"23.5 243 CURVE SMOOTH",
"23.5 181.5 OFFCURVE",
"65 166.5 OFFCURVE",
"104.5 151 CURVE SMOOTH",
"140.5 137 OFFCURVE",
"174.5 125 OFFCURVE",
"174.5 87.5 CURVE SMOOTH",
"174.5 54.5 OFFCURVE",
"149 32.5 OFFCURVE",
"113.5 32.5 CURVE SMOOTH",
"65.5 32.5 OFFCURVE",
"39.5 56.5 OFFCURVE",
"33.5 56.5 CURVE SMOOTH",
"28.5 56.5 OFFCURVE",
"17 38.5 OFFCURVE",
"17 31 CURVE SMOOTH",
"17 18.5 OFFCURVE",
"59 -3 OFFCURVE",
"113.5 -3 CURVE SMOOTH"
);
}
);
width = 233;
},
{
anchors = (
{
name = bottom;
position = "{116.5, 0}";
},
{
name = top;
position = "{116.5, 326}";
}
);
layerId = "209CD697-34B5-4613-8FA2-E55A274D1785";
name = Bold;
paths = (
{
closed = 1;
nodes = (
"170.5 -3.5 OFFCURVE",
"225 22.5 OFFCURVE",
"225 98.5 CURVE SMOOTH",
"225 161.5 OFFCURVE",
"178.5 181 OFFCURVE",
"140.5 196.5 CURVE SMOOTH",
"113 207.5 OFFCURVE",
"90.5 216.5 OFFCURVE",
"90.5 242.5 CURVE SMOOTH",
"90.5 253 OFFCURVE",
"97.5 268.5 OFFCURVE",
"133.5 268.5 CURVE SMOOTH",
"165 268.5 OFFCURVE",
"179.5 257 OFFCURVE",
"185.5 257 CURVE SMOOTH",
"196.5 257 OFFCURVE",
"211 284.5 OFFCURVE",
"211 297.5 CURVE SMOOTH",
"211 312.5 OFFCURVE",
"176.5 330 OFFCURVE",
"127 330 CURVE SMOOTH",
"72.5 330 OFFCURVE",
"17 303 OFFCURVE",
"17 236 CURVE SMOOTH",
"17 180 OFFCURVE",
"47.5 157.5 OFFCURVE",
"79.5 142 CURVE SMOOTH",
"114.5 126 OFFCURVE",
"151.5 118 OFFCURVE",
"151.5 90 CURVE SMOOTH",
"151.5 63.5 OFFCURVE",
"127.5 57.5 OFFCURVE",
"107.5 57.5 CURVE SMOOTH",
"70.5 57.5 OFFCURVE",
"47.5 79 OFFCURVE",
"39 79 CURVE SMOOTH",
"29.5 79 OFFCURVE",
"10.5 51.5 OFFCURVE",
"10.5 37.5 CURVE SMOOTH",
"10.5 21.5 OFFCURVE",
"49 -3.5 OFFCURVE",
"120 -3.5 CURVE SMOOTH"
);
}
);
width = 233;
}
);
unicode = 0053;
},
{
glyphname = Germandbls;
lastChange = "2015-01-14 23:02:33 +0000";
layers = (
{
layerId = "63CB2BE0-8E67-47A9-A148-3C9E8B72ABA2";
name = Regular;
paths = (
{
closed = 1;
nodes = (
"247 -3 OFFCURVE",
"307.5 23 OFFCURVE",
"307.5 94.5 CURVE SMOOTH",
"307.5 151 OFFCURVE",
"270 178.5 OFFCURVE",
"217 187 CURVE",
"287 282.5 LINE",
"288 284 OFFCURVE",
"288.5 285.5 OFFCURVE",
"288.5 288 CURVE SMOOTH",
"288.5 298 OFFCURVE",
"281.5 312 OFFCURVE",
"278 312.5 CURVE SMOOTH",
"254.5 319.5 OFFCURVE",
"215 327.5 OFFCURVE",
"170.5 329 CURVE SMOOTH",
"87 329.5 OFFCURVE",
"43 285.5 OFFCURVE",
"43 200.5 CURVE SMOOTH",
"43 9.5 LINE SMOOTH",
"43 3 OFFCURVE",
"48.5 -1 OFFCURVE",
"61.5 -1 CURVE SMOOTH",
"65 -1 LINE SMOOTH",
"78.5 -1 OFFCURVE",
"84 3 OFFCURVE",
"84 9.5 CURVE SMOOTH",
"84 200 LINE SMOOTH",
"84 265.5 OFFCURVE",
"112 293.5 OFFCURVE",
"171.5 293.5 CURVE SMOOTH",
"200 293.5 OFFCURVE",
"222 289 OFFCURVE",
"237 284 CURVE",
"166.5 187 LINE",
"165.5 185.5 OFFCURVE",
"165 183.5 OFFCURVE",
"165 181.5 CURVE SMOOTH",
"165 172 OFFCURVE",
"171.5 156.5 OFFCURVE",
"176 156.5 CURVE SMOOTH",
"192.5 156.5 LINE SMOOTH",
"237 156.5 OFFCURVE",
"267 142.5 OFFCURVE",
"267 95 CURVE SMOOTH",
"267 44.5 OFFCURVE",
"225 31 OFFCURVE",
"195.5 31 CURVE SMOOTH",
"162 31 OFFCURVE",
"155 47 OFFCURVE",
"135.5 47 CURVE SMOOTH",
"130.5 47 OFFCURVE",
"119.5 32.5 OFFCURVE",
"119.5 24 CURVE SMOOTH",
"132.5 12 OFFCURVE",
"153 -3 OFFCURVE",
"199 -3 CURVE SMOOTH"
);
}
);
width = 326;
},
{
layerId = "209CD697-34B5-4613-8FA2-E55A274D1785";
name = Bold;
paths = (
{
closed = 1;
nodes = (
"273 -3.5 OFFCURVE",
"314.5 33 OFFCURVE",
"314.5 95 CURVE SMOOTH",
"314.5 155.5 OFFCURVE",
"278.5 177 OFFCURVE",
"243.5 191 CURVE",
"295.5 275 LINE",
"296 276 OFFCURVE",
"296 277 OFFCURVE",
"296 278.5 CURVE SMOOTH",
"296 291 OFFCURVE",
"286 320.5 OFFCURVE",
"278.5 321.5 CURVE SMOOTH",
"248 326 OFFCURVE",
"203 330 OFFCURVE",
"163 330 CURVE SMOOTH",
"76 330 OFFCURVE",
"31 286 OFFCURVE",
"31 201.5 CURVE SMOOTH",
"31 14 LINE SMOOTH",
"31 4 OFFCURVE",
"39 -1 OFFCURVE",
"58.5 -1 CURVE SMOOTH",
"75 -1 LINE SMOOTH",
"94.5 -1 OFFCURVE",
"103 4 OFFCURVE",
"103 14 CURVE SMOOTH",
"103 201 LINE SMOOTH",
"103 244 OFFCURVE",
"121.5 268.5 OFFCURVE",
"161.5 268.5 CURVE SMOOTH",
"181.5 268.5 OFFCURVE",
"197.5 267.5 OFFCURVE",
"211 266 CURVE",
"165 189.5 LINE",
"164.5 188.5 OFFCURVE",
"164 187 OFFCURVE",
"164 185 CURVE SMOOTH",
"164 172.5 OFFCURVE",
"174.5 143.5 OFFCURVE",
"182 143.5 CURVE SMOOTH",
"195 143.5 LINE SMOOTH",
"227 143.5 OFFCURVE",
"244.5 127 OFFCURVE",
"244.5 96 CURVE SMOOTH",
"244.5 67 OFFCURVE",
"228 51 OFFCURVE",
"203 51 CURVE SMOOTH",
"174 51 OFFCURVE",
"156.5 70 OFFCURVE",
"149.5 70 CURVE SMOOTH",
"139 70 OFFCURVE",
"127 43.5 OFFCURVE",
"127 34.5 CURVE SMOOTH",
"127 5.5 OFFCURVE",
"183.5 -3.5 OFFCURVE",
"214 -3.5 CURVE SMOOTH"
);
}
);
width = 326;
}
);
unicode = 1E9E;
},
{
glyphname = Schwa;
lastChange = "2015-01-14 23:02:33 +0000";
layers = (
{
layerId = "63CB2BE0-8E67-47A9-A148-3C9E8B72ABA2";
name = Regular;
paths = (
{
closed = 1;
nodes = (
"228 -4 OFFCURVE",
"272 49.5 OFFCURVE",
"272 154.5 CURVE SMOOTH",
"272 274 OFFCURVE",
"229.5 329 OFFCURVE",
"139.5 329 CURVE SMOOTH",
"75.5 329 OFFCURVE",
"27.5 305 OFFCURVE",
"27.5 290 CURVE SMOOTH",
"27.5 284.5 OFFCURVE",
"37.5 266.5 OFFCURVE",
"44 266.5 CURVE SMOOTH",
"51.5 266.5 OFFCURVE",
"82.5 295.5 OFFCURVE",
"140 295.5 CURVE SMOOTH",
"197 295.5 OFFCURVE",
"224.5 257 OFFCURVE",
"230 169 CURVE",
"36.5 169 LINE SMOOTH",
"31 169 OFFCURVE",
"21 155.5 OFFCURVE",
"21 150 CURVE SMOOTH",
"21 48 OFFCURVE",
"60 -4 OFFCURVE",
"140.5 -4 CURVE SMOOTH"
);
},
{
closed = 1;
nodes = (
"88 29.5 OFFCURVE",
"62.5 64 OFFCURVE",
"62.5 135.5 CURVE",
"230 135.5 LINE",
"227 64 OFFCURVE",
"196 29.5 OFFCURVE",
"141.5 29.5 CURVE SMOOTH"
);
}
);
width = 313;
},
{
layerId = "209CD697-34B5-4613-8FA2-E55A274D1785";
name = Bold;
paths = (
{
closed = 1;
nodes = (
"222.5 -0.5 OFFCURVE",
"278 43.5 OFFCURVE",
"278 154.5 CURVE SMOOTH",
"278 260.5 OFFCURVE",
"235.5 330 OFFCURVE",
"138 330 CURVE SMOOTH",
"103.5 330 OFFCURVE",
"26 317 OFFCURVE",
"26 287 CURVE SMOOTH",
"26 277.5 OFFCURVE",
"40 251.5 OFFCURVE",
"50.5 251.5 CURVE SMOOTH",
"59.5 251.5 OFFCURVE",
"91.5 275.5 OFFCURVE",
"134.5 275.5 CURVE SMOOTH",
"176 275.5 OFFCURVE",
"202 253.5 OFFCURVE",
"207 175 CURVE",
"41.5 175 LINE SMOOTH",
"35.5 175 OFFCURVE",
"17.5 155.5 OFFCURVE",
"17.5 147.5 CURVE SMOOTH",
"17.5 69 OFFCURVE",
"52 -0.5 OFFCURVE",
"141.5 -0.5 CURVE SMOOTH"
);
},
{
closed = 1;
nodes = (
"102 54 OFFCURVE",
"85 85.5 OFFCURVE",
"85 129 CURVE",
"207 129 LINE",
"199 71 OFFCURVE",
"173 54 OFFCURVE",
"141.5 54 CURVE SMOOTH"
);
}
);
width = 313;
}
);
unicode = 018F;
},
{
glyphname = T;
lastChange = "2015-01-14 23:02:33 +0000";
layers = (
{
anchors = (
{
name = bottom;
position = "{128, 0}";
},
{
name = center;
position = "{128, 163}";
},
{
name = top;
position = "{128, 326}";
}
);
layerId = "63CB2BE0-8E67-47A9-A148-3C9E8B72ABA2";
name = Regular;
paths = (
{
closed = 1;
nodes = (
"130.5 -1 LINE SMOOTH",
"143.5 -1 OFFCURVE",
"149 3 OFFCURVE",
"149 9.5 CURVE SMOOTH",
"149 291 LINE",
"237 291 LINE SMOOTH",
"243.5 291 OFFCURVE",
"246.5 295 OFFCURVE",
"246.5 305 CURVE SMOOTH",
"246.5 312 LINE SMOOTH",
"246.5 322 OFFCURVE",
"243.5 326 OFFCURVE",
"237 326 CURVE SMOOTH",
"18.5 326 LINE SMOOTH",
"12 326 OFFCURVE",
"9.5 322 OFFCURVE",
"9.5 312 CURVE SMOOTH",
"9.5 305 LINE SMOOTH",
"9.5 295 OFFCURVE",
"12 291 OFFCURVE",
"18.5 291 CURVE SMOOTH",
"108 291 LINE",
"108 9.5 LINE SMOOTH",
"108 3 OFFCURVE",
"113.5 -1 OFFCURVE",
"127 -1 CURVE SMOOTH"
);
}
);
width = 256;
},
{
anchors = (
{
name = bottom;
position = "{128, 0}";
},
{
name = center;
position = "{128, 163}";
},
{
name = top;
position = "{128, 326}";
}
);
layerId = "209CD697-34B5-4613-8FA2-E55A274D1785";
name = Bold;
paths = (
{
closed = 1;
nodes = (
"136 -1 LINE SMOOTH",
"155.5 -1 OFFCURVE",
"164 4 OFFCURVE",
"164 14 CURVE SMOOTH",
"164 265 LINE",
"238 265 LINE SMOOTH",
"248 265 OFFCURVE",
"252 272 OFFCURVE",
"252 288.5 CURVE SMOOTH",
"252 303 LINE SMOOTH",
"252 319 OFFCURVE",
"248 326 OFFCURVE",
"238 326 CURVE SMOOTH",
"17.5 326 LINE SMOOTH",
"8 326 OFFCURVE",
"3.5 319 OFFCURVE",
"3.5 303 CURVE SMOOTH",
"3.5 288.5 LINE SMOOTH",
"3.5 272 OFFCURVE",
"8 265 OFFCURVE",
"17.5 265 CURVE SMOOTH",
"92 265 LINE",
"92 14 LINE SMOOTH",
"92 4 OFFCURVE",
"100 -1 OFFCURVE",
"120 -1 CURVE SMOOTH"
);
}
);
width = 256;
}
);
leftKerningGroup = T;
rightKerningGroup = T;
unicode = 0054;
},
{
glyphname = U;
lastChange = "2015-01-14 23:02:33 +0000";
layers = (
{
anchors = (
{
name = bottom;
position = "{166.5, 0}";
},
{
name = horn;
position = "{270.5, 327}";
},
{
name = ogonek;
position = "{201, 0}";
},
{
name = top;
position = "{166, 326}";
}
);
layerId = "63CB2BE0-8E67-47A9-A148-3C9E8B72ABA2";
name = Regular;
paths = (
{
closed = 1;
nodes = (
"248 -3 OFFCURVE",
"293 37.5 OFFCURVE",
"293 104.5 CURVE SMOOTH",
"293 317 LINE SMOOTH",
"293 323.5 OFFCURVE",
"287.5 327 OFFCURVE",
"274.5 327 CURVE SMOOTH",
"270.5 327 LINE SMOOTH",
"257.5 327 OFFCURVE",
"252 323.5 OFFCURVE",
"252 317 CURVE SMOOTH",
"252 103 LINE SMOOTH",
"252 62 OFFCURVE",
"216 32.5 OFFCURVE",
"166 32.5 CURVE SMOOTH",
"116.5 32.5 OFFCURVE",
"79.5 61.5 OFFCURVE",
"79.5 103 CURVE SMOOTH",
"79.5 317 LINE SMOOTH",
"79.5 323.5 OFFCURVE",
"74 327 OFFCURVE",
"61 327 CURVE SMOOTH",
"57.5 327 LINE SMOOTH",
"44.5 327 OFFCURVE",
"38.5 323.5 OFFCURVE",
"38.5 317 CURVE SMOOTH",
"38.5 104.5 LINE SMOOTH",
"38.5 37.5 OFFCURVE",
"83.5 -3 OFFCURVE",
"166 -3 CURVE SMOOTH"
);
}
);
width = 332;
},
{
anchors = (
{
name = bottom;
position = "{166, 0}";
},
{
name = horn;
position = "{257.5, 327}";
},
{
name = ogonek;
position = "{208.5, 0}";
},
{
name = top;
position = "{166, 326}";
}
);
layerId = "209CD697-34B5-4613-8FA2-E55A274D1785";
name = Bold;
paths = (
{
closed = 1;
nodes = (
"251 -3.5 OFFCURVE",
"301 37.5 OFFCURVE",
"301 109 CURVE SMOOTH",
"301 312 LINE SMOOTH",
"301 322 OFFCURVE",
"292.5 327 OFFCURVE",
"273 327 CURVE SMOOTH",
"257.5 327 LINE SMOOTH",
"238 327 OFFCURVE",
"229.5 322 OFFCURVE",
"229.5 312 CURVE SMOOTH",
"229.5 113.5 LINE SMOOTH",
"229.5 81 OFFCURVE",
"203.5 57.5 OFFCURVE",
"166 57.5 CURVE SMOOTH",
"128 57.5 OFFCURVE",
"102.5 81 OFFCURVE",
"102.5 113.5 CURVE SMOOTH",
"102.5 312 LINE SMOOTH",
"102.5 322 OFFCURVE",
"94 327 OFFCURVE",
"74.5 327 CURVE SMOOTH",
"58.5 327 LINE SMOOTH",
"39 327 OFFCURVE",
"31 322 OFFCURVE",
"31 312 CURVE SMOOTH",
"31 109 LINE SMOOTH",
"31 37.5 OFFCURVE",
"80.5 -3.5 OFFCURVE",
"166 -3.5 CURVE SMOOTH"
);
}
);
width = 332;
}
);
unicode = 0055;
},
{
glyphname = V;
lastChange = "2015-01-14 23:02:33 +0000";
layers = (
{
layerId = "63CB2BE0-8E67-47A9-A148-3C9E8B72ABA2";
name = Regular;
paths = (
{
closed = 1;
nodes = (
"151 -1 LINE SMOOTH",
"160.5 -1 OFFCURVE",
"168 1 OFFCURVE",
"169.5 6.5 CURVE SMOOTH",
"276.5 312.5 LINE SMOOTH",
"277.5 315.5 OFFCURVE",
"277.5 317.5 OFFCURVE",
"277.5 319 CURVE SMOOTH",
"277.5 324.5 OFFCURVE",
"271.5 327 OFFCURVE",
"257.5 327 CURVE SMOOTH",
"255 327 LINE SMOOTH",
"245.5 327 OFFCURVE",
"238 325.5 OFFCURVE",
"236.5 319.5 CURVE SMOOTH",
"150 71.5 LINE",
"145 46.5 LINE",
"143.5 46.5 LINE",
"139 71 LINE",
"52.5 319.5 LINE SMOOTH",
"51 325.5 OFFCURVE",
"43.5 327 OFFCURVE",
"34 327 CURVE SMOOTH",
"30 327 LINE SMOOTH",
"16 327 OFFCURVE",
"10 324 OFFCURVE",
"10 319 CURVE SMOOTH",
"10 317.5 OFFCURVE",
"10.5 315.5 OFFCURVE",
"11 313 CURVE SMOOTH",
"118 6.5 LINE SMOOTH",
"120 1 OFFCURVE",
"127 -1 OFFCURVE",
"136.5 -1 CURVE SMOOTH"
);
}
);
width = 287.5;
},
{
layerId = "209CD697-34B5-4613-8FA2-E55A274D1785";
name = Bold;
paths = (
{
closed = 1;
nodes = (
"155 -1 LINE SMOOTH",
"168.5 -1 OFFCURVE",
"179 1.5 OFFCURVE",
"181.5 9 CURVE SMOOTH",
"282 308.5 LINE SMOOTH",
"283 312 OFFCURVE",
"283.5 314.5 OFFCURVE",
"283.5 317 CURVE SMOOTH",
"283.5 323.5 OFFCURVE",
"275 327 OFFCURVE",
"255.5 327 CURVE SMOOTH",
"241 327 LINE SMOOTH",
"227.5 327 OFFCURVE",
"216.5 323.5 OFFCURVE",
"213.5 313.5 CURVE SMOOTH",
"148.5 112 LINE",
"143.5 95.5 LINE",
"141.5 95.5 LINE",
"136.5 112 LINE",
"73.5 313.5 LINE SMOOTH",
"70.5 324 OFFCURVE",
"59.5 327 OFFCURVE",
"46 327 CURVE SMOOTH",
"31 327 LINE SMOOTH",
"11 327 OFFCURVE",
"2.5 323.5 OFFCURVE",
"2.5 317 CURVE SMOOTH",
"2.5 314.5 OFFCURVE",
"3.5 312 OFFCURVE",
"4 308.5 CURVE SMOOTH",
"105 9 LINE SMOOTH",
"107 1.5 OFFCURVE",
"117.5 -1 OFFCURVE",
"131 -1 CURVE SMOOTH"
);
}
);
width = 287.5;
}
);
leftKerningGroup = V;
rightKerningGroup = V;
unicode = 0056;
},
{
glyphname = W;
lastChange = "2015-01-14 23:02:33 +0000";
layers = (
{
anchors = (
{
name = top;
position = "{205.5, 326}";
}
);
layerId = "63CB2BE0-8E67-47A9-A148-3C9E8B72ABA2";
name = Regular;
paths = (
{
closed = 1;
nodes = (
"126 -1 LINE SMOOTH",
"135 -1 OFFCURVE",
"143 1 OFFCURVE",
"144.5 6.5 CURVE SMOOTH",
"195.5 196 LINE",
"205 257 LINE",
"215 196 LINE",
"265.5 6.5 LINE SMOOTH",
"267 1 OFFCURVE",
"275 -1 OFFCURVE",
"284.5 -1 CURVE SMOOTH",
"303.5 -1 LINE SMOOTH",
"312.5 -1 OFFCURVE",
"320.5 1 OFFCURVE",
"322 6.5 CURVE SMOOTH",
"402.5 312.5 LINE SMOOTH",
"403 314.5 OFFCURVE",
"404 318.5 OFFCURVE",
"404 319 CURVE SMOOTH",
"404 324.5 OFFCURVE",
"398 327 OFFCURVE",
"384 327 CURVE SMOOTH",
"381 327 LINE SMOOTH",
"372 327 OFFCURVE",
"364 325.5 OFFCURVE",
"362.5 319.5 CURVE SMOOTH",
"306 91.5 LINE",
"302.5 76.5 OFFCURVE",
"298.5 62 OFFCURVE",
"295 47 CURVE",
"295 47 OFFCURVE",
"291 73.5 OFFCURVE",
"287 90 CURVE SMOOTH",
"229.5 319 LINE SMOOTH",
"228 325.5 OFFCURVE",
"220.5 327 OFFCURVE",
"211 327 CURVE SMOOTH",
"203.5 327 LINE SMOOTH",
"194.5 327 OFFCURVE",
"187 325.5 OFFCURVE",
"185.5 319 CURVE SMOOTH",
"129 92 LINE",
"125.5 77 OFFCURVE",
"121.5 62 OFFCURVE",
"118 47 CURVE",
"117.5 48.5 OFFCURVE",
"113 78 OFFCURVE",
"109.5 90.5 CURVE SMOOTH",
"50.5 319.5 LINE SMOOTH",
"49 325.5 OFFCURVE",
"41 327 OFFCURVE",
"31.5 327 CURVE SMOOTH",
"27 327 LINE SMOOTH",
"13 327 OFFCURVE",
"7 324 OFFCURVE",
"7 319 CURVE SMOOTH",
"7 317.5 OFFCURVE",
"8 314.5 OFFCURVE",
"8.5 312.5 CURVE SMOOTH",
"88 6.5 LINE SMOOTH",
"89.5 1 OFFCURVE",
"97.5 -1 OFFCURVE",
"106.5 -1 CURVE SMOOTH"
);
}
);
width = 411;
},
{
anchors = (
{
name = top;
position = "{205.5, 326}";
}
);
layerId = "209CD697-34B5-4613-8FA2-E55A274D1785";
name = Bold;
paths = (
{
closed = 1;
nodes = (
"132 -1 LINE SMOOTH",
"145 -1 OFFCURVE",
"155.5 2.5 OFFCURVE",
"157.5 9 CURVE SMOOTH",
"197 170 LINE",
"205 202 LINE",
"212.5 170 LINE",
"250.5 9 LINE SMOOTH",
"252 2.5 OFFCURVE",
"263.5 -1 OFFCURVE",
"276.5 -1 CURVE SMOOTH",
"310.5 -1 LINE SMOOTH",
"323.5 -1 OFFCURVE",
"334 2.5 OFFCURVE",
"336 9 CURVE SMOOTH",
"412 308 LINE SMOOTH",
"412.5 311 OFFCURVE",
"413 313 OFFCURVE",
"413 315 CURVE SMOOTH",
"413 322.5 OFFCURVE",
"404 327 OFFCURVE",
"384 327 CURVE SMOOTH",
"379 327 LINE SMOOTH",
"360.5 327 OFFCURVE",
"350 322.5 OFFCURVE",
"347.5 312.5 CURVE SMOOTH",
"311.5 162.5 LINE SMOOTH",
"307 145 OFFCURVE",
"301.5 118 OFFCURVE",
"295.5 92.5 CURVE",
"290 118.5 OFFCURVE",
"284 145 OFFCURVE",
"279.5 162.5 CURVE SMOOTH",
"243 317.5 LINE SMOOTH",
"241 325 OFFCURVE",
"232 327 OFFCURVE",
"217 327 CURVE SMOOTH",
"199.5 327 LINE SMOOTH",
"184.5 327 OFFCURVE",
"175.5 325 OFFCURVE",
"174 317.5 CURVE SMOOTH",
"135.5 162.5 LINE SMOOTH",
"131.5 147 OFFCURVE",
"124 121.5 OFFCURVE",
"120 95.5 CURVE",
"114 121.5 OFFCURVE",
"109 147 OFFCURVE",
"105.5 162.5 CURVE SMOOTH",
"70.5 312.5 LINE SMOOTH",
"68 322.5 OFFCURVE",
"57.5 327 OFFCURVE",
"39 327 CURVE SMOOTH",
"27 327 LINE SMOOTH",
"7 327 OFFCURVE",
"-2 322.5 OFFCURVE",
"-2 315 CURVE SMOOTH",
"-2 313 OFFCURVE",
"-2 311 OFFCURVE",
"-1 308 CURVE SMOOTH",
"72.5 9 LINE SMOOTH",
"74 2.5 OFFCURVE",
"83.5 -1 OFFCURVE",
"98.5 -1 CURVE SMOOTH"
);
}
);
width = 411;
}
);
leftKerningGroup = V;
rightKerningGroup = V;
unicode = 0057;
},
{
glyphname = X;
lastChange = "2015-01-14 23:02:33 +0000";
layers = (
{
layerId = "63CB2BE0-8E67-47A9-A148-3C9E8B72ABA2";
name = Regular;
paths = (
{
closed = 1;
nodes = (
"34.5 -1 LINE SMOOTH",
"43 -1 OFFCURVE",
"51.5 0.5 OFFCURVE",
"54.5 5.5 CURVE SMOOTH",
"141 134 LINE",
"227 6 LINE SMOOTH",
"230.5 0.5 OFFCURVE",
"237 -1 OFFCURVE",
"247 -1 CURVE SMOOTH",
"254.5 -1 LINE SMOOTH",
"270.5 -1 OFFCURVE",
"276 2 OFFCURVE",
"276 7 CURVE SMOOTH",
"276 9.5 OFFCURVE",
"274.5 12 OFFCURVE",
"272 15.5 CURVE SMOOTH",
"167.5 172.5 LINE",
"260.5 311 LINE SMOOTH",
"262.5 314 OFFCURVE",
"264 317 OFFCURVE",
"264 319 CURVE SMOOTH",
"264 325 OFFCURVE",
"258 327 OFFCURVE",
"243 327 CURVE SMOOTH",
"240 327 LINE SMOOTH",
"231.5 327 OFFCURVE",
"223 325.5 OFFCURVE",
"220 320.5 CURVE SMOOTH",
"143 208 LINE",
"68.5 320 LINE SMOOTH",
"65 325.5 OFFCURVE",
"58 327 OFFCURVE",
"48.5 327 CURVE SMOOTH",
"42 327 LINE SMOOTH",
"26 327 OFFCURVE",
"20.5 324.5 OFFCURVE",
"20.5 319 CURVE SMOOTH",
"20.5 317 OFFCURVE",
"22 314 OFFCURVE",
"24 311 CURVE SMOOTH",
"117.5 170 LINE",
"13 15.5 LINE SMOOTH",
"10.5 12 OFFCURVE",
"9.5 9.5 OFFCURVE",
"9.5 7 CURVE SMOOTH",
"9.5 1.5 OFFCURVE",
"15.5 -1 OFFCURVE",
"31 -1 CURVE SMOOTH"
);
}
);
width = 284.5;
},
{
layerId = "209CD697-34B5-4613-8FA2-E55A274D1785";
name = Bold;
paths = (
{
closed = 1;
nodes = (
"51 -1 LINE SMOOTH",
"64.5 -1 OFFCURVE",
"73.5 -0.5 OFFCURVE",
"79 8 CURVE SMOOTH",
"143.5 108 LINE",
"205.5 8 LINE SMOOTH",
"209.5 1 OFFCURVE",
"220 -1 OFFCURVE",
"233.5 -1 CURVE SMOOTH",
"251.5 -1 LINE SMOOTH",
"272 -1 OFFCURVE",
"281 2.5 OFFCURVE",
"281 8 CURVE SMOOTH",
"281 11 OFFCURVE",
"279.5 15 OFFCURVE",
"277 19.5 CURVE SMOOTH",
"183.5 169 LINE",
"271.5 306.5 LINE SMOOTH",
"275 311.5 OFFCURVE",
"276.5 315.5 OFFCURVE",
"276.5 318.5 CURVE SMOOTH",
"276.5 324 OFFCURVE",
"267 327 OFFCURVE",
"247 327 CURVE SMOOTH",
"229 327 LINE SMOOTH",
"215.5 327 OFFCURVE",
"205.5 326 OFFCURVE",
"200.5 318.5 CURVE SMOOTH",
"144.5 231.5 LINE",
"91.5 318.5 LINE SMOOTH",
"87 325.5 OFFCURVE",
"77 327 OFFCURVE",
"63.5 327 CURVE SMOOTH",
"44.5 327 LINE SMOOTH",
"24 327 OFFCURVE",
"14.5 323.5 OFFCURVE",
"14.5 318.5 CURVE SMOOTH",
"14.5 315 OFFCURVE",
"16.5 311.5 OFFCURVE",
"19 306.5 CURVE SMOOTH",
"104.5 170 LINE",
"8.5 19.5 LINE SMOOTH",
"5 14.5 OFFCURVE",
"3.5 10.5 OFFCURVE",
"3.5 8 CURVE SMOOTH",
"3.5 2.5 OFFCURVE",
"12.5 -1 OFFCURVE",
"33 -1 CURVE SMOOTH"
);
}
);
width = 284.5;
}
);
unicode = 0058;
},
{
glyphname = Y;
lastChange = "2015-01-14 23:02:33 +0000";
layers = (
{
anchors = (
{
name = bottom;
position = "{130, 0}";
},
{
name = top;
position = "{130.5, 326}";
}
);
layerId = "63CB2BE0-8E67-47A9-A148-3C9E8B72ABA2";
name = Regular;
paths = (
{
closed = 1;
nodes = (
"132 -1 LINE SMOOTH",
"145 -1 OFFCURVE",
"150.5 3 OFFCURVE",
"150.5 9.5 CURVE SMOOTH",
"150.5 166 LINE",
"248.5 311 LINE SMOOTH",
"250 314 OFFCURVE",
"252 317 OFFCURVE",
"252 319 CURVE SMOOTH",
"252 324.5 OFFCURVE",
"247 326.5 OFFCURVE",
"234 327 CURVE",
"230.5 327 LINE",
"221.5 327 OFFCURVE",
"213 325.5 OFFCURVE",
"209.5 320.5 CURVE SMOOTH",
"131.5 205.5 LINE",
"55 320 LINE SMOOTH",
"51.5 325.5 OFFCURVE",
"44.5 327 OFFCURVE",
"35 327 CURVE SMOOTH",
"30 327 LINE SMOOTH",
"14 327 OFFCURVE",
"8.5 324.5 OFFCURVE",
"8.5 319 CURVE SMOOTH",
"8.5 317 OFFCURVE",
"10 314 OFFCURVE",
"12 311 CURVE SMOOTH",
"109.5 167.5 LINE",
"109.5 9.5 LINE SMOOTH",
"109.5 3 OFFCURVE",
"115 -1 OFFCURVE",
"128 -1 CURVE SMOOTH"
);
}
);
width = 260.5;
},
{
anchors = (
{
name = bottom;
position = "{131.5, 0}";
},
{
name = top;
position = "{130.5, 326}";
}
);
layerId = "209CD697-34B5-4613-8FA2-E55A274D1785";
name = Bold;
paths = (
{
closed = 1;
nodes = (
"138.5 -1 LINE SMOOTH",
"158 -1 OFFCURVE",
"166.5 4 OFFCURVE",
"166.5 14 CURVE SMOOTH",
"166.5 155 LINE",
"259 306 LINE SMOOTH",
"262 311 OFFCURVE",
"263.5 315 OFFCURVE",
"263.5 318 CURVE SMOOTH",
"263.5 323.5 OFFCURVE",
"254.5 327 OFFCURVE",
"234 327 CURVE SMOOTH",
"217 327 LINE SMOOTH",
"203.5 327 OFFCURVE",
"193.5 325.5 OFFCURVE",
"189 318.5 CURVE SMOOTH",
"132 218.5 LINE",
"75 318.5 LINE SMOOTH",
"71 325.5 OFFCURVE",
"60.5 327 OFFCURVE",
"47 327 CURVE SMOOTH",
"27 327 LINE SMOOTH",
"6.5 327 OFFCURVE",
"-3 323.5 OFFCURVE",
"-3 318 CURVE SMOOTH",
"-3 315 OFFCURVE",
"-1 311 OFFCURVE",
"2 306 CURVE SMOOTH",
"94.5 156.5 LINE",
"94.5 14 LINE SMOOTH",
"94.5 4 OFFCURVE",
"103 -1 OFFCURVE",
"122.5 -1 CURVE SMOOTH"
);
}
);
width = 260.5;
}
);
leftKerningGroup = Y;
rightKerningGroup = Y;
unicode = 0059;
},
{
glyphname = Z;
lastChange = "2015-01-14 23:02:33 +0000";
layers = (
{
anchors = (
{
name = bottom;
position = "{148, 0}";
},
{
name = top;
position = "{143.5, 326}";
}
);
layerId = "63CB2BE0-8E67-47A9-A148-3C9E8B72ABA2";
name = Regular;
paths = (
{
closed = 1;
nodes = (
"256 0 LINE SMOOTH",
"262.5 0 OFFCURVE",
"265 4.5 OFFCURVE",
"265 16 CURVE SMOOTH",
"265 19.5 LINE SMOOTH",
"265 31 OFFCURVE",
"262.5 35.5 OFFCURVE",
"256 35.5 CURVE SMOOTH",
"73.5 35.5 LINE",
"264.5 296 LINE SMOOTH",
"265.5 297.5 OFFCURVE",
"266 299 OFFCURVE",
"266 301.5 CURVE SMOOTH",
"266 311.5 OFFCURVE",
"259 326 OFFCURVE",
"256 326 CURVE SMOOTH",
"42.5 326 LINE SMOOTH",
"36 326 OFFCURVE",
"33 321.5 OFFCURVE",
"33 310.5 CURVE SMOOTH",
"33 306.5 LINE SMOOTH",
"33 295.5 OFFCURVE",
"36 291 OFFCURVE",
"42.5 291 CURVE SMOOTH",
"210 291 LINE",
"19 30.5 LINE SMOOTH",
"18 29 OFFCURVE",
"17.5 27 OFFCURVE",
"17.5 24.5 CURVE SMOOTH",
"17.5 15.5 OFFCURVE",
"24 0 OFFCURVE",
"29 0 CURVE"
);
}
);
width = 287;
},
{
anchors = (
{
name = bottom;
position = "{139.5, 0}";
},
{
name = top;
position = "{143.5, 326}";
}
);
layerId = "209CD697-34B5-4613-8FA2-E55A274D1785";
name = Bold;
paths = (
{
closed = 1;
nodes = (
"256.5 0 LINE SMOOTH",
"266 0 OFFCURVE",
"270.5 7 OFFCURVE",
"270.5 23.5 CURVE SMOOTH",
"270.5 37.5 LINE SMOOTH",
"270.5 54 OFFCURVE",
"266 61 OFFCURVE",
"256.5 61 CURVE SMOOTH",
"114 61 LINE",
"270 279.5 LINE SMOOTH",
"270.5 280.5 OFFCURVE",
"270.5 281.5 OFFCURVE",
"270.5 283.5 CURVE SMOOTH",
"270.5 295.5 OFFCURVE",
"260.5 326 OFFCURVE",
"253 326 CURVE SMOOTH",
"40 326 LINE SMOOTH",
"30.5 326 OFFCURVE",
"26 319 OFFCURVE",
"26 303 CURVE SMOOTH",
"26 288.5 LINE SMOOTH",
"26 272 OFFCURVE",
"30.5 265 OFFCURVE",
"40 265 CURVE SMOOTH",
"169.5 265 LINE",
"13.5 46 LINE SMOOTH",
"13 45 OFFCURVE",
"12.5 43.5 OFFCURVE",
"12.5 41.5 CURVE SMOOTH",
"12.5 29 OFFCURVE",
"23 0 OFFCURVE",
"31 0 CURVE"
);
}
);
width = 287;
}
);
unicode = 005A;
},
{
glyphname = Y.loclGUA;
lastChange = "2015-01-14 23:02:33 +0000";
layers = (
{
anchors = (
{
name = bottom;
position = "{126.5, 0}";
},
{
name = top;
position = "{130.5, 326}";
}
);
layerId = "63CB2BE0-8E67-47A9-A148-3C9E8B72ABA2";
name = Regular;
paths = (
{
closed = 1;
nodes = (
"199.5 -3.5 OFFCURVE",
"228 30 OFFCURVE",
"228 141 CURVE SMOOTH",
"228 317 LINE SMOOTH",
"228 323.5 OFFCURVE",
"222.5 327 OFFCURVE",
"209 327 CURVE SMOOTH",
"207.5 327 LINE SMOOTH",
"194.5 327 OFFCURVE",
"188.5 323.5 OFFCURVE",
"188.5 317 CURVE SMOOTH",
"188.5 165 LINE",
"172 145 OFFCURVE",
"148 132.5 OFFCURVE",
"125.5 132.5 CURVE SMOOTH",
"92.5 132.5 OFFCURVE",
"73 149 OFFCURVE",
"73 177.5 CURVE SMOOTH",
"73 317 LINE SMOOTH",
"73 323.5 OFFCURVE",
"67.5 327 OFFCURVE",
"54.5 327 CURVE SMOOTH",
"52.5 327 LINE SMOOTH",
"39.5 327 OFFCURVE",
"34 323.5 OFFCURVE",
"34 317 CURVE SMOOTH",
"34 174 LINE SMOOTH",
"34 127 OFFCURVE",
"64.5 98.5 OFFCURVE",
"114.5 98.5 CURVE SMOOTH",
"145 98.5 OFFCURVE",
"175.5 113.5 OFFCURVE",
"197 139 CURVE",
"188.5 150.5 LINE",
"188.5 143 LINE",
"189.5 61 OFFCURVE",
"173.5 30 OFFCURVE",
"130 30 CURVE SMOOTH",
"73 30 OFFCURVE",
"47 50.5 OFFCURVE",
"40 50.5 CURVE SMOOTH",
"38 50.5 OFFCURVE",
"35.5 48.5 OFFCURVE",
"35.5 36.5 CURVE SMOOTH",
"35.5 33 OFFCURVE",
"35.5 29.5 OFFCURVE",
"36 24.5 CURVE SMOOTH",
"37.5 12.5 OFFCURVE",
"78 -3.5 OFFCURVE",
"133.5 -3.5 CURVE SMOOTH"
);
}
);
width = 260.5;
},
{
anchors = (
{
name = bottom;
position = "{121.5, 0}";
},
{
name = top;
position = "{130.5, 326}";
}
);
layerId = "209CD697-34B5-4613-8FA2-E55A274D1785";
name = Bold;
paths = (
{
closed = 1;
nodes = (
"209 -4 OFFCURVE",
"240.5 43.5 OFFCURVE",
"240.5 138 CURVE SMOOTH",
"240.5 312 LINE SMOOTH",
"240.5 321.5 OFFCURVE",
"232 326.5 OFFCURVE",
"212.5 326.5 CURVE SMOOTH",
"199.5 326.5 LINE SMOOTH",
"180 326.5 OFFCURVE",
"171.5 321.5 OFFCURVE",
"171.5 312 CURVE SMOOTH",
"171.5 181 LINE",
"166 170 OFFCURVE",
"154 154 OFFCURVE",
"134 154 CURVE SMOOTH",
"107 154 OFFCURVE",
"97 164.5 OFFCURVE",
"97 182.5 CURVE SMOOTH",
"97 312 LINE SMOOTH",
"97 321.5 OFFCURVE",
"88.5 326.5 OFFCURVE",
"69 326.5 CURVE SMOOTH",
"56 326.5 LINE SMOOTH",
"36.5 326.5 OFFCURVE",
"28 321.5 OFFCURVE",
"28 312 CURVE SMOOTH",
"28 172.5 LINE SMOOTH",
"28 120.5 OFFCURVE",
"52.5 97 OFFCURVE",
"106 97 CURVE SMOOTH",
"141 97 OFFCURVE",
"170 121 OFFCURVE",
"181 141 CURVE",
"171.5 159 LINE",
"171.5 113 LINE SMOOTH",
"171.5 72 OFFCURVE",
"153.5 50.5 OFFCURVE",
"117 50.5 CURVE SMOOTH",
"72 50.5 OFFCURVE",
"44.5 69.5 OFFCURVE",
"37.5 69.5 CURVE SMOOTH",
"34.5 69.5 OFFCURVE",
"31.5 65 OFFCURVE",
"31.5 51 CURVE SMOOTH",
"31.5 45 OFFCURVE",
"32 37.5 OFFCURVE",
"33 29 CURVE SMOOTH",
"35 9.5 OFFCURVE",
"81.5 -4 OFFCURVE",
"136.5 -4 CURVE SMOOTH"
);
}
);
width = 260.5;
}
);
},
{
glyphname = a;
lastChange = "2015-01-14 23:02:33 +0000";
layers = (
{
anchors = (
{
name = bottom;
position = "{121.5, 0}";
},
{
name = ogonek;
position = "{221.5, 8}";
},
{
name = top;
position = "{127, 243.5}";
}
);
layerId = "63CB2BE0-8E67-47A9-A148-3C9E8B72ABA2";
name = Regular;
paths = (
{
closed = 1;
nodes = (
"137.5 -3 OFFCURVE",
"163 12.5 OFFCURVE",
"181 32 CURVE",
"183.5 19 OFFCURVE",
"186 -0.5 OFFCURVE",
"197 -0.5 CURVE SMOOTH",
"203 -0.5 OFFCURVE",
"222.5 1.5 OFFCURVE",
"222.5 10.5 CURVE SMOOTH",
"222.5 12.5 OFFCURVE",
"216.5 31 OFFCURVE",
"216.5 69 CURVE SMOOTH",
"216.5 173.5 LINE SMOOTH",
"216.5 219.5 OFFCURVE",
"182.5 246.5 OFFCURVE",
"125 246.5 CURVE SMOOTH",
"78.5 246.5 OFFCURVE",
"37.5 229 OFFCURVE",
"37.5 216.5 CURVE SMOOTH",
"37.5 211.5 OFFCURVE",
"47 193.5 OFFCURVE",
"53.5 193.5 CURVE SMOOTH",
"58 193.5 OFFCURVE",
"84 213 OFFCURVE",
"126.5 213 CURVE SMOOTH",
"165 213 OFFCURVE",
"177.5 195 OFFCURVE",
"177.5 174 CURVE SMOOTH",
"177.5 152 LINE",
"106 151 OFFCURVE",
"23 146 OFFCURVE",
"23 67 CURVE SMOOTH",
"23 19 OFFCURVE",
"57.5 -3 OFFCURVE",
"102.5 -3 CURVE SMOOTH"
);
},
{
closed = 1;
nodes = (
"78.5 31 OFFCURVE",
"65 44.5 OFFCURVE",
"65 69.5 CURVE SMOOTH",
"65 118 OFFCURVE",
"129 118 OFFCURVE",
"177.5 118.5 CURVE",
"177.5 63.5 LINE",
"159 46.5 OFFCURVE",
"138.5 31 OFFCURVE",
"104.5 31 CURVE SMOOTH"
);
}
);
width = 254;
},
{
anchors = (
{
name = bottom;
position = "{127, 0}";
},
{
name = ogonek;
position = "{224.5, 14.5}";
},
{
name = top;
position = "{127, 243.5}";
}
);
layerId = "209CD697-34B5-4613-8FA2-E55A274D1785";
name = Bold;
paths = (
{
closed = 1;
nodes = (
"131.5 -3.5 OFFCURVE",
"154 25.5 OFFCURVE",
"157 31.5 CURVE",
"160 19 OFFCURVE",
"161 -0.5 OFFCURVE",
"175.5 -0.5 CURVE SMOOTH",
"187.5 -0.5 OFFCURVE",
"228 3.5 OFFCURVE",
"228 14.5 CURVE SMOOTH",
"228 24 OFFCURVE",
"222.5 34 OFFCURVE",
"222.5 82 CURVE SMOOTH",
"222.5 169.5 LINE SMOOTH",
"222.5 215 OFFCURVE",
"195.5 247.5 OFFCURVE",
"122 247.5 CURVE SMOOTH",
"70.5 247.5 OFFCURVE",
"33 231 OFFCURVE",
"33 215.5 CURVE SMOOTH",
"33 205.5 OFFCURVE",
"47.5 178 OFFCURVE",
"57.5 178 CURVE SMOOTH",
"63 178 OFFCURVE",
"83 193 OFFCURVE",
"117 193 CURVE SMOOTH",
"142.5 193 OFFCURVE",
"153.5 184 OFFCURVE",
"153.5 166.5 CURVE SMOOTH",
"153.5 151 LINE",
"35 151 OFFCURVE",
"19.5 102.5 OFFCURVE",
"19.5 64.5 CURVE SMOOTH",
"19.5 26 OFFCURVE",
"38 -3.5 OFFCURVE",
"88.5 -3.5 CURVE SMOOTH"
);
},
{
closed = 1;
nodes = (
"96 51 OFFCURVE",
"88 59.5 OFFCURVE",
"88 71.5 CURVE SMOOTH",
"88 93.5 OFFCURVE",
"109 106 OFFCURVE",
"153.5 106 CURVE",
"153.5 80 LINE",
"146 63.5 OFFCURVE",
"129 51 OFFCURVE",
"111.5 51 CURVE SMOOTH"
);
}
);
width = 254;
}
);
leftKerningGroup = a;
unicode = 0061;
},
{
glyphname = ae;
lastChange = "2015-01-14 23:02:33 +0000";
layers = (
{
anchors = (
{
name = top;
position = "{193.5, 243.5}";
}
);
layerId = "63CB2BE0-8E67-47A9-A148-3C9E8B72ABA2";
name = Regular;
paths = (
{
closed = 1;
nodes = (
"137 -3 OFFCURVE",
"166 10.5 OFFCURVE",
"185 26.5 CURVE",
"203.5 7 OFFCURVE",
"232 -3 OFFCURVE",
"270.5 -3 CURVE SMOOTH",
"317.5 -3 OFFCURVE",
"354 16 OFFCURVE",
"354 27 CURVE SMOOTH",
"354 32 OFFCURVE",
"344.5 50.5 OFFCURVE",
"338 50.5 CURVE SMOOTH",
"333 50.5 OFFCURVE",
"310.5 31 OFFCURVE",
"270 31 CURVE SMOOTH",
"223.5 31 OFFCURVE",
"202 56 OFFCURVE",
"198 112.5 CURVE",
"345.5 112.5 LINE SMOOTH",
"351 112.5 OFFCURVE",
"360.5 126 OFFCURVE",
"360.5 131.5 CURVE SMOOTH",
"360.5 206 OFFCURVE",
"328.5 246.5 OFFCURVE",
"264.5 246.5 CURVE SMOOTH",
"235.5 246.5 OFFCURVE",
"211.5 239 OFFCURVE",
"194 224 CURVE",
"178 238.5 OFFCURVE",
"154 246.5 OFFCURVE",
"123 246.5 CURVE SMOOTH",
"76.5 246.5 OFFCURVE",
"35.5 229 OFFCURVE",
"35.5 216.5 CURVE SMOOTH",
"35.5 211.5 OFFCURVE",
"45 193.5 OFFCURVE",
"51.5 193.5 CURVE SMOOTH",
"56.5 193.5 OFFCURVE",
"82 213 OFFCURVE",
"124.5 213 CURVE SMOOTH",
"149.5 213 OFFCURVE",
"163.5 205 OFFCURVE",
"170.5 194 CURVE",
"163.5 180.5 OFFCURVE",
"159.5 164 OFFCURVE",
"157.5 145.5 CURVE",
"91 143.5 OFFCURVE",
"21 133.5 OFFCURVE",
"21 67 CURVE SMOOTH",
"21 19 OFFCURVE",
"55.5 -3 OFFCURVE",
"100.5 -3 CURVE SMOOTH"
);
},
{
closed = 1;
nodes = (
"76.5 31 OFFCURVE",
"63 44.5 OFFCURVE",
"63 69.5 CURVE SMOOTH",
"63 106 OFFCURVE",
"111.5 111 OFFCURVE",
"156 112 CURVE",
"156.5 90 OFFCURVE",
"160.5 71 OFFCURVE",
"167 55.5 CURVE",
"150 42 OFFCURVE",
"131 31 OFFCURVE",
"102.5 31 CURVE SMOOTH"
);
},
{
closed = 1;
nodes = (
"201.5 190 OFFCURVE",
"222.5 213 OFFCURVE",
"263.5 213 CURVE SMOOTH",
"300.5 213 OFFCURVE",
"319 190 OFFCURVE",
"319 146 CURVE",
"198 146 LINE"
);
}
);
width = 386.5;
},
{
anchors = (
{
name = top;
position = "{193.5, 243.5}";
}
);
layerId = "209CD697-34B5-4613-8FA2-E55A274D1785";
name = Bold;
paths = (
{
closed = 1;
nodes = (
"140 -3.5 OFFCURVE",
"169.5 17 OFFCURVE",
"180.5 28 CURVE",
"200.5 8 OFFCURVE",
"230 -3.5 OFFCURVE",
"271 -3.5 CURVE SMOOTH",
"297.5 -3.5 OFFCURVE",
"355 6.5 OFFCURVE",
"355 30 CURVE SMOOTH",
"355 39 OFFCURVE",
"341 65 OFFCURVE",
"331 65 CURVE SMOOTH",
"324.5 65 OFFCURVE",
"304 51 OFFCURVE",
"274.5 51 CURVE SMOOTH",
"247.5 51 OFFCURVE",
"222 64 OFFCURVE",
"222 104.5 CURVE",
"340.5 104.5 LINE SMOOTH",
"346.5 104.5 OFFCURVE",
"363.5 124 OFFCURVE",
"363.5 132 CURVE SMOOTH",
"363.5 196.5 OFFCURVE",
"336 247.5 OFFCURVE",
"263 247.5 CURVE SMOOTH",
"237 247.5 OFFCURVE",
"215 242 OFFCURVE",
"196.5 230.5 CURVE",
"181 241.5 OFFCURVE",
"156 247.5 OFFCURVE",
"121.5 247.5 CURVE SMOOTH",
"70 247.5 OFFCURVE",
"32.5 231 OFFCURVE",
"32.5 215.5 CURVE SMOOTH",
"32.5 205.5 OFFCURVE",
"47 178 OFFCURVE",
"57 178 CURVE SMOOTH",
"64.5 178 OFFCURVE",
"87.5 193 OFFCURVE",
"116.5 193 CURVE SMOOTH",
"134.5 193 OFFCURVE",
"151 190 OFFCURVE",
"158.5 180.5 CURVE",
"155 171.5 OFFCURVE",
"153 161.5 OFFCURVE",
"151.5 150.5 CURVE",
"34.5 150 OFFCURVE",
"19 102 OFFCURVE",
"19 64.5 CURVE SMOOTH",
"19 26 OFFCURVE",
"46 -3.5 OFFCURVE",
"96.5 -3.5 CURVE SMOOTH"
);
},
{
closed = 1;
nodes = (
"95.5 51 OFFCURVE",
"87.5 59.5 OFFCURVE",
"87.5 71.5 CURVE SMOOTH",
"87.5 93 OFFCURVE",
"107.5 104.5 OFFCURVE",
"150 105 CURVE",
"151 93 OFFCURVE",
"153 82.5 OFFCURVE",
"155.5 72.5 CURVE",
"147 58 OFFCURVE",
"127 51 OFFCURVE",
"111 51 CURVE SMOOTH"
);
},
{
closed = 1;
nodes = (
"226.5 186.5 OFFCURVE",
"247 193 OFFCURVE",
"263 193 CURVE SMOOTH",
"283.5 193 OFFCURVE",
"296.5 177.5 OFFCURVE",
"296.5 150.5 CURVE",
"221 150.5 LINE"
);
}
);
width = 386.5;
}
);
leftKerningGroup = a;
unicode = 00E6;
},
{
glyphname = b;
lastChange = "2015-01-14 23:02:33 +0000";
layers = (
{
layerId = "63CB2BE0-8E67-47A9-A148-3C9E8B72ABA2";
name = Regular;
paths = (
{
closed = 1;
nodes = (
"205.5 -3 OFFCURVE",
"240 49.5 OFFCURVE",
"240 122 CURVE SMOOTH",
"240 202.5 OFFCURVE",
"201 246.5 OFFCURVE",
"145.5 246.5 CURVE SMOOTH",
"116.5 246.5 OFFCURVE",
"97 236.5 OFFCURVE",
"79 222.5 CURVE",
"79 340 LINE SMOOTH",
"79 346.5 OFFCURVE",
"73 350.5 OFFCURVE",
"60 350.5 CURVE SMOOTH",
"58 350.5 LINE SMOOTH",
"45 350.5 OFFCURVE",
"39.5 346.5 OFFCURVE",
"39.5 340 CURVE SMOOTH",
"39.5 9.5 LINE SMOOTH",
"39.5 3 OFFCURVE",
"44 -1 OFFCURVE",
"53.5 -1 CURVE SMOOTH",
"55.5 -1 LINE SMOOTH",
"62 -1 OFFCURVE",
"66 0.5 OFFCURVE",
"68 4.5 CURVE",
"72 14 OFFCURVE",
"74 23 OFFCURVE",
"75.5 32 CURVE",
"98.5 8.5 OFFCURVE",
"123 -3 OFFCURVE",
"149.5 -3 CURVE SMOOTH"
);
},
{
closed = 1;
nodes = (
"121 31 OFFCURVE",
"98 42.5 OFFCURVE",
"79 63.5 CURVE",
"79 191 LINE",
"95.5 205 OFFCURVE",
"116.5 212 OFFCURVE",
"136.5 212 CURVE SMOOTH",
"178 211 OFFCURVE",
"199 181 OFFCURVE",
"199 125.5 CURVE SMOOTH",
"199 65 OFFCURVE",
"178.5 31 OFFCURVE",
"141.5 31 CURVE SMOOTH"
);
}
);
width = 265;
},
{
layerId = "209CD697-34B5-4613-8FA2-E55A274D1785";
name = Bold;
paths = (
{
closed = 1;
nodes = (
"209 -3.5 OFFCURVE",
"245.5 41 OFFCURVE",
"245.5 122 CURVE SMOOTH",
"245.5 198 OFFCURVE",
"210 247.5 OFFCURVE",
"147.5 247.5 CURVE SMOOTH",
"125.5 247.5 OFFCURVE",
"109.5 240 OFFCURVE",
"99.5 233 CURVE",
"99.5 336.5 LINE SMOOTH",
"99.5 346 OFFCURVE",
"91.5 351.5 OFFCURVE",
"72 351.5 CURVE SMOOTH",
"58.5 351.5 LINE SMOOTH",
"39 351.5 OFFCURVE",
"31 346 OFFCURVE",
"31 336.5 CURVE SMOOTH",
"31 14 LINE SMOOTH",
"31 4 OFFCURVE",
"39 -1 OFFCURVE",
"58.5 -1 CURVE SMOOTH",
"64.5 -1 LINE SMOOTH",
"79 -1 OFFCURVE",
"88.5 1 OFFCURVE",
"91.5 11 CURVE SMOOTH",
"93 17.5 OFFCURVE",
"94.5 24.5 OFFCURVE",
"96 31 CURVE",
"106.5 11 OFFCURVE",
"129.5 -3.5 OFFCURVE",
"158.5 -3.5 CURVE SMOOTH"
);
},
{
closed = 1;
nodes = (
"120 52.5 OFFCURVE",
"108 65.5 OFFCURVE",
"99.5 80 CURVE",
"99.5 184 LINE",
"107 188.5 OFFCURVE",
"118 193 OFFCURVE",
"132.5 193 CURVE SMOOTH",
"161.5 193 OFFCURVE",
"175.5 168.5 OFFCURVE",
"175.5 122 CURVE SMOOTH",
"175.5 77 OFFCURVE",
"163.5 52.5 OFFCURVE",
"138 52.5 CURVE SMOOTH"
);
}
);
width = 265;
}
);
unicode = 0062;
},
{
glyphname = c;
lastChange = "2015-01-14 23:02:33 +0000";
layers = (
{
anchors = (
{
name = bottom;
position = "{133.5, 0}";
},
{
name = top;
position = "{129, 243.5}";
}
);
layerId = "63CB2BE0-8E67-47A9-A148-3C9E8B72ABA2";
name = Regular;
paths = (
{
closed = 1;
nodes = (
"179.5 -3 OFFCURVE",
"212 10.5 OFFCURVE",
"212 21 CURVE SMOOTH",
"212 27.5 OFFCURVE",
"202.5 44.5 OFFCURVE",
"196 44.5 CURVE SMOOTH",
"195.5 44.5 OFFCURVE",
"194 44 OFFCURVE",
"191 43 CURVE",
"182.5 38.5 OFFCURVE",
"164.5 31 OFFCURVE",
"138.5 31 CURVE SMOOTH",
"85.5 31 OFFCURVE",
"66 58.5 OFFCURVE",
"66 124 CURVE SMOOTH",
"66 188.5 OFFCURVE",
"92.5 213 OFFCURVE",
"133.5 213 CURVE SMOOTH",
"159 213 OFFCURVE",
"176 205.5 OFFCURVE",
"184.5 202 CURVE SMOOTH",
"187.5 201 OFFCURVE",
"188.5 200 OFFCURVE",
"189.5 200 CURVE SMOOTH",
"195.5 200 OFFCURVE",
"204.5 217.5 OFFCURVE",
"204.5 225 CURVE SMOOTH",
"204.5 236.5 OFFCURVE",
"170.5 246.5 OFFCURVE",
"134.5 246.5 CURVE SMOOTH",
"81 246.5 OFFCURVE",
"24 220.5 OFFCURVE",
"24 123 CURVE SMOOTH",
"24 33 OFFCURVE",
"63.5 -3 OFFCURVE",
"139 -3 CURVE SMOOTH"
);
}
);
width = 226;
},
{
anchors = (
{
name = bottom;
position = "{136, 0}";
},
{
name = top;
position = "{128, 243.5}";
}
);
layerId = "209CD697-34B5-4613-8FA2-E55A274D1785";
name = Bold;
paths = (
{
closed = 1;
nodes = (
"152.5 -3.5 OFFCURVE",
"218.5 3 OFFCURVE",
"218.5 29 CURVE SMOOTH",
"218.5 38 OFFCURVE",
"204.5 64.5 OFFCURVE",
"194.5 64.5 CURVE SMOOTH",
"192.5 64.5 OFFCURVE",
"189.5 63 OFFCURVE",
"186 61.5 CURVE SMOOTH",
"177 57.5 OFFCURVE",
"162 51 OFFCURVE",
"140.5 51 CURVE SMOOTH",
"105 51 OFFCURVE",
"90.5 74 OFFCURVE",
"90.5 122 CURVE SMOOTH",
"90.5 169.5 OFFCURVE",
"106 193 OFFCURVE",
"143 193 CURVE SMOOTH",
"162.5 193 OFFCURVE",
"175 187 OFFCURVE",
"183.5 182.5 CURVE SMOOTH",
"187.5 181 OFFCURVE",
"190 179.5 OFFCURVE",
"192 179.5 CURVE SMOOTH",
"200 179.5 OFFCURVE",
"216.5 206.5 OFFCURVE",
"216.5 215.5 CURVE SMOOTH",
"216.5 236.5 OFFCURVE",
"172.5 247.5 OFFCURVE",
"139.5 247.5 CURVE SMOOTH",
"56 247.5 OFFCURVE",
"19.5 203 OFFCURVE",
"19.5 120 CURVE SMOOTH",
"19.5 37 OFFCURVE",
"57.5 -3.5 OFFCURVE",
"137 -3.5 CURVE SMOOTH"
);
}
);
width = 226;
}
);
leftKerningGroup = c;
unicode = 0063;
},
{
glyphname = d;
lastChange = "2015-01-14 23:02:33 +0000";
layers = (
{
anchors = (
{
name = bottom;
position = "{131, 0}";
},
{
name = caron;
position = "{224, 326}";
},
{
name = center;
position = "{196, 293.5}";
}
);
hints = (
{
horizontal = 1;
origin = "{0, 29}";
target = "{1, 12}";
},
{
horizontal = 1;
origin = "{0, 23}";
target = "{1, 5}";
},
{
horizontal = 1;
origin = "{0, 16}";
target = down;
type = TopGhost;
},
{
horizontal = 1;
origin = "{0, 5}";
target = up;
type = BottomGhost;
},
{
origin = "{0, 26}";
target = "{1, 2}";
},
{
origin = "{1, 9}";
target = "{0, 11}";
},
{
horizontal = 1;
origin = "{1, 12}";
target = "{1, 5}";
other1 = "{1, 9}";
type = Interpolate;
}
);
layerId = "63CB2BE0-8E67-47A9-A148-3C9E8B72ABA2";
name = Regular;
paths = (
{
closed = 1;
nodes = (
"141 -3 OFFCURVE",
"166 8.5 OFFCURVE",
"188.5 32 CURVE",
"191.5 19 OFFCURVE",
"194 -0.5 OFFCURVE",
"205 -0.5 CURVE SMOOTH",
"211 -0.5 OFFCURVE",
"230 1.5 OFFCURVE",
"230 10.5 CURVE SMOOTH",
"230 12.5 OFFCURVE",
"224.5 31 OFFCURVE",
"224.5 69 CURVE SMOOTH",
"224.5 340 LINE SMOOTH",
"224.5 346.5 OFFCURVE",
"219 350.5 OFFCURVE",
"206 350.5 CURVE SMOOTH",
"204 350.5 LINE SMOOTH",
"191 350.5 OFFCURVE",
"185.5 346.5 OFFCURVE",
"185.5 340 CURVE SMOOTH",
"185.5 222.5 LINE",
"167.5 236.5 OFFCURVE",
"147.5 246.5 OFFCURVE",
"119 246.5 CURVE SMOOTH",
"63.5 246.5 OFFCURVE",
"24 202.5 OFFCURVE",
"24 121.5 CURVE SMOOTH",
"24 49.5 OFFCURVE",
"58.5 -3 OFFCURVE",
"114.5 -3 CURVE SMOOTH"
);
},
{
closed = 1;
nodes = (
"85.5 31 OFFCURVE",
"65 65 OFFCURVE",
"65 125.5 CURVE SMOOTH",
"65 181 OFFCURVE",
"86 211 OFFCURVE",
"128 212 CURVE SMOOTH",
"149 212 OFFCURVE",
"168.5 205 OFFCURVE",
"185.5 191 CURVE",
"185.5 63.5 LINE",
"166.5 42.5 OFFCURVE",
"143 31 OFFCURVE",
"122.5 31 CURVE SMOOTH"
);
}
);
width = 263.5;
},
{
anchors = (
{
name = bottom;
position = "{135.5, 0}";
},
{
name = caron;
position = "{232, 326}";
},
{
name = center;
position = "{194.5, 293.5}";
}
);
hints = (
{
horizontal = 1;
origin = "{0, 5}";
target = up;
type = BottomGhost;
},
{
horizontal = 1;
origin = "{0, 23}";
target = "{1, 5}";
},
{
horizontal = 1;
origin = "{0, 16}";
target = down;
type = TopGhost;
},
{
horizontal = 1;
origin = "{0, 29}";
target = "{1, 12}";
},
{
origin = "{0, 26}";
target = "{1, 2}";
},
{
origin = "{1, 9}";
target = "{0, 11}";
},
{
horizontal = 1;
origin = "{1, 5}";
target = "{1, 12}";
other1 = "{1, 9}";
type = Interpolate;
}
);
layerId = "209CD697-34B5-4613-8FA2-E55A274D1785";
name = Bold;
paths = (
{
closed = 1;
nodes = (
"135.5 -3.5 OFFCURVE",
"158.5 11 OFFCURVE",
"169 31 CURVE",
"172 19 OFFCURVE",
"173 -0.5 OFFCURVE",
"188 -0.5 CURVE SMOOTH",
"199.5 -0.5 OFFCURVE",
"240 3.5 OFFCURVE",
"240 14.5 CURVE SMOOTH",
"240 24 OFFCURVE",
"234.5 34 OFFCURVE",
"234.5 82 CURVE SMOOTH",
"234.5 336.5 LINE SMOOTH",
"234.5 346 OFFCURVE",
"226 351.5 OFFCURVE",
"206.5 351.5 CURVE SMOOTH",
"193.5 351.5 LINE SMOOTH",
"174 351.5 OFFCURVE",
"165.5 346 OFFCURVE",
"165.5 336.5 CURVE SMOOTH",
"165.5 233 LINE",
"155.5 240 OFFCURVE",
"140 247.5 OFFCURVE",
"118 247.5 CURVE SMOOTH",
"55 247.5 OFFCURVE",
"19.5 198 OFFCURVE",
"19.5 122 CURVE SMOOTH",
"19.5 41 OFFCURVE",
"56.5 -3.5 OFFCURVE",
"106.5 -3.5 CURVE SMOOTH"
);
},
{
closed = 1;
nodes = (
"101.5 52.5 OFFCURVE",
"89.5 77 OFFCURVE",
"89.5 122 CURVE SMOOTH",
"89.5 168.5 OFFCURVE",
"103.5 193 OFFCURVE",
"133 193 CURVE SMOOTH",
"147.5 193 OFFCURVE",
"158 188.5 OFFCURVE",
"165.5 184 CURVE",
"165.5 80 LINE",
"157 65.5 OFFCURVE",
"145 52.5 OFFCURVE",
"127 52.5 CURVE SMOOTH"
);
}
);
width = 263.5;
}
);
leftKerningGroup = d;
unicode = 0064;
},
{
glyphname = eth;
lastChange = "2015-01-14 23:02:33 +0000";
layers = (
{
layerId = "63CB2BE0-8E67-47A9-A148-3C9E8B72ABA2";
name = Regular;
paths = (
{
closed = 1;
nodes = (
"203 -3 OFFCURVE",
"239.5 40 OFFCURVE",
"239.5 120.5 CURVE SMOOTH",
"239.5 181.5 OFFCURVE",
"217.5 239 OFFCURVE",
"186.5 288 CURVE",
"214.5 291.5 LINE SMOOTH",
"219 292 OFFCURVE",
"221.5 294.5 OFFCURVE",
"221.5 298 CURVE SMOOTH",
"221.5 300 OFFCURVE",
"218.5 312.5 OFFCURVE",
"209.5 312.5 CURVE SMOOTH",
"209 312.5 OFFCURVE",
"209 312.5 OFFCURVE",
"173.5 307.5 CURVE",
"167.5 316 OFFCURVE",
"162.5 321.5 OFFCURVE",
"158 327 CURVE SMOOTH",
"155 330.5 OFFCURVE",
"151.5 332.5 OFFCURVE",
"146 332.5 CURVE SMOOTH",
"140.5 332.5 OFFCURVE",
"136.5 332.5 OFFCURVE",
"133.5 332 CURVE SMOOTH",
"128 331 OFFCURVE",
"126 328.5 OFFCURVE",
"126 325.5 CURVE SMOOTH",
"126 320.5 OFFCURVE",
"131 313 OFFCURVE",
"138 303 CURVE",
"104.5 298 LINE SMOOTH",
"99.5 297.5 OFFCURVE",
"97.5 295.5 OFFCURVE",
"97.5 292 CURVE SMOOTH",
"97.5 285.5 OFFCURVE",
"103 277.5 OFFCURVE",
"109.5 277.5 CURVE SMOOTH",
"110.5 277.5 OFFCURVE",
"111.5 277.5 OFFCURVE",
"149.5 283 CURVE",
"156.5 270.5 OFFCURVE",
"164 256.5 OFFCURVE",
"171 241 CURVE",
"160 244.5 OFFCURVE",
"147.5 246.5 OFFCURVE",
"133.5 246.5 CURVE SMOOTH",
"64.5 246.5 OFFCURVE",
"25.5 201.5 OFFCURVE",
"25.5 120.5 CURVE SMOOTH",
"25.5 40.5 OFFCURVE",
"63.5 -3 OFFCURVE",
"133.5 -3 CURVE SMOOTH"
);
},
{
closed = 1;
nodes = (
"86.5 31 OFFCURVE",
"65.5 59.5 OFFCURVE",
"65.5 121.5 CURVE SMOOTH",
"65.5 184 OFFCURVE",
"87 213 OFFCURVE",
"132.5 213 CURVE SMOOTH",
"178 213 OFFCURVE",
"199 183.5 OFFCURVE",
"199 121.5 CURVE SMOOTH",
"199 59.5 OFFCURVE",
"178 31 OFFCURVE",
"132.5 31 CURVE SMOOTH"
);
}
);
width = 265;
},
{
layerId = "209CD697-34B5-4613-8FA2-E55A274D1785";
name = Bold;
paths = (
{
closed = 1;
nodes = (
"207 -3.5 OFFCURVE",
"245.5 41 OFFCURVE",
"245.5 122 CURVE SMOOTH",
"245.5 185 OFFCURVE",
"222.5 246.5 OFFCURVE",
"199 282.5 CURVE",
"220.5 285 LINE SMOOTH",
"227 286 OFFCURVE",
"230 288.5 OFFCURVE",
"230 292.5 CURVE SMOOTH",
"230 302 OFFCURVE",
"221 312 OFFCURVE",
"213 312 CURVE SMOOTH",
"212.5 312 OFFCURVE",
"212 312 OFFCURVE",
"181.5 308 CURVE",
"174.5 316.5 OFFCURVE",
"169 323.5 OFFCURVE",
"162.5 328 CURVE SMOOTH",
"157.5 331.5 OFFCURVE",
"152 333 OFFCURVE",
"145 333 CURVE",
"135 332.5 OFFCURVE",
"126 331 OFFCURVE",
"116 330 CURVE SMOOTH",
"110 329 OFFCURVE",
"107 327 OFFCURVE",
"107 324.5 CURVE SMOOTH",
"107 320.5 OFFCURVE",
"119 308.5 OFFCURVE",
"125 300.5 CURVE",
"105 298 LINE SMOOTH",
"98 297 OFFCURVE",
"95 294.5 OFFCURVE",
"95 290.5 CURVE SMOOTH",
"95 280.5 OFFCURVE",
"104 270.5 OFFCURVE",
"113 270.5 CURVE SMOOTH",
"114.5 270.5 OFFCURVE",
"116 270.5 OFFCURVE",
"141.5 274.5 CURVE",
"147 265.5 OFFCURVE",
"152 256.5 OFFCURVE",
"156.5 245.5 CURVE",
"149 246.5 OFFCURVE",
"141 247.5 OFFCURVE",
"133 247.5 CURVE SMOOTH",
"58.5 247.5 OFFCURVE",
"19.5 203 OFFCURVE",
"19.5 122 CURVE SMOOTH",
"19.5 41 OFFCURVE",
"58.5 -3.5 OFFCURVE",
"133 -3.5 CURVE SMOOTH"
);
},
{
closed = 1;
nodes = (
"103 51 OFFCURVE",
"89.5 75.5 OFFCURVE",
"89.5 122 CURVE SMOOTH",
"89.5 168.5 OFFCURVE",
"103 193 OFFCURVE",
"133 193 CURVE SMOOTH",
"162.5 193 OFFCURVE",
"175.5 168.5 OFFCURVE",
"175.5 122 CURVE SMOOTH",
"175.5 75.5 OFFCURVE",
"162.5 51 OFFCURVE",
"133 51 CURVE SMOOTH"
);
}
);
width = 265;
}
);
unicode = 00F0;
},
{
glyphname = e;
lastChange = "2015-01-14 23:02:33 +0000";
layers = (
{
anchors = (
{
name = bottom;
position = "{126, 0}";
},
{
name = ogonek;
position = "{202, 4.5}";
},
{
name = top;
position = "{126, 243.5}";
}
);
layerId = "63CB2BE0-8E67-47A9-A148-3C9E8B72ABA2";
name = Regular;
paths = (
{
closed = 1;
nodes = (
"187 -3 OFFCURVE",
"223.5 16 OFFCURVE",
"223.5 27 CURVE SMOOTH",
"223.5 32 OFFCURVE",
"214 50.5 OFFCURVE",
"207.5 50.5 CURVE SMOOTH",
"202.5 50.5 OFFCURVE",
"180 31 OFFCURVE",
"139.5 31 CURVE SMOOTH",
"93 31 OFFCURVE",
"71.5 54 OFFCURVE",
"67.5 106 CURVE",
"215 106 LINE SMOOTH",
"220.5 106 OFFCURVE",
"230 119.5 OFFCURVE",
"230 125 CURVE SMOOTH",
"230 204 OFFCURVE",
"198 246.5 OFFCURVE",
"134 246.5 CURVE SMOOTH",
"63 246.5 OFFCURVE",
"25.5 202.5 OFFCURVE",
"25.5 120 CURVE SMOOTH",
"25.5 37 OFFCURVE",
"62.5 -3 OFFCURVE",
"140 -3 CURVE SMOOTH"
);
},
{
closed = 1;
nodes = (
"71 188.5 OFFCURVE",
"92.5 213 OFFCURVE",
"133 213 CURVE SMOOTH",
"170 213 OFFCURVE",
"188.5 188.5 OFFCURVE",
"188.5 139.5 CURVE",
"67.5 139.5 LINE"
);
}
);
width = 251;
},
{
anchors = (
{
name = bottom;
position = "{126, 0}";
},
{
name = ogonek;
position = "{203.5, 6.5}";
},
{
name = top;
position = "{126, 243.5}";
}
);
layerId = "209CD697-34B5-4613-8FA2-E55A274D1785";
name = Bold;
paths = (
{
closed = 1;
nodes = (
"167.5 -3.5 OFFCURVE",
"225 6.5 OFFCURVE",
"225 30 CURVE SMOOTH",
"225 39 OFFCURVE",
"211 65 OFFCURVE",
"201 65 CURVE SMOOTH",
"194.5 65 OFFCURVE",
"174 51 OFFCURVE",
"144.5 51 CURVE SMOOTH",
"114 51 OFFCURVE",
"94 62.5 OFFCURVE",
"91 99.5 CURVE",
"209.5 99.5 LINE SMOOTH",
"216 99.5 OFFCURVE",
"233.5 119.5 OFFCURVE",
"233.5 127 CURVE SMOOTH",
"233.5 192 OFFCURVE",
"206 247.5 OFFCURVE",
"133 247.5 CURVE SMOOTH",
"66 247.5 OFFCURVE",
"19.5 212 OFFCURVE",
"19.5 120 CURVE SMOOTH",
"19.5 45 OFFCURVE",
"57 -3.5 OFFCURVE",
"141 -3.5 CURVE SMOOTH"
);
},
{
closed = 1;
nodes = (
"96.5 181.5 OFFCURVE",
"113 193 OFFCURVE",
"133 193 CURVE SMOOTH",
"156 193 OFFCURVE",
"166.5 173 OFFCURVE",
"166.5 146 CURVE",
"91 146 LINE"
);
}
);
width = 251;
}
);
leftKerningGroup = e;
unicode = 0065;
},
{
glyphname = f;
lastChange = "2015-01-14 23:02:33 +0000";
layers = (
{
layerId = "63CB2BE0-8E67-47A9-A148-3C9E8B72ABA2";
name = Regular;
paths = (
{
closed = 1;
nodes = (
"71 -1 LINE SMOOTH",
"84 -1 OFFCURVE",
"89.5 3 OFFCURVE",
"89.5 9.5 CURVE SMOOTH",
"89.5 210 LINE",
"130 210 LINE SMOOTH",
"136.5 210 OFFCURVE",
"139.5 214.5 OFFCURVE",
"139.5 224 CURVE SMOOTH",
"139.5 229.5 LINE SMOOTH",
"139.5 239.5 OFFCURVE",
"136.5 243.5 OFFCURVE",
"130 243.5 CURVE SMOOTH",
"89.5 243.5 LINE",
"89.5 284.5 LINE SMOOTH",
"89.5 315 OFFCURVE",
"101 318.5 OFFCURVE",
"114.5 318.5 CURVE SMOOTH",
"128 318.5 OFFCURVE",
"130.5 316.5 OFFCURVE",
"134.5 316.5 CURVE SMOOTH",
"141 316.5 OFFCURVE",
"144.5 334.5 OFFCURVE",
"144.5 338.5 CURVE SMOOTH",
"144.5 351 OFFCURVE",
"123 352.5 OFFCURVE",
"110.5 352.5 CURVE SMOOTH",
"87 352.5 OFFCURVE",
"50.5 343.5 OFFCURVE",
"50.5 288 CURVE SMOOTH",
"50.5 243.5 LINE",
"31.5 243.5 LINE SMOOTH",
"25 243.5 OFFCURVE",
"22.5 239.5 OFFCURVE",
"22.5 229.5 CURVE SMOOTH",
"22.5 224 LINE SMOOTH",
"22.5 214.5 OFFCURVE",
"25 210 OFFCURVE",
"31.5 210 CURVE SMOOTH",
"50.5 210 LINE",
"50.5 9.5 LINE SMOOTH",
"50.5 3 OFFCURVE",
"56 -1 OFFCURVE",
"69 -1 CURVE SMOOTH"
);
}
);
width = 151.5;
},
{
layerId = "209CD697-34B5-4613-8FA2-E55A274D1785";
name = Bold;
paths = (
{
closed = 1;
nodes = (
"78 -1 LINE SMOOTH",
"97.5 -1 OFFCURVE",
"106 4 OFFCURVE",
"106 14 CURVE SMOOTH",
"106 189 LINE",
"129 189 LINE SMOOTH",
"139 189 OFFCURVE",
"143 196 OFFCURVE",
"143 212.5 CURVE SMOOTH",
"143 220.5 LINE SMOOTH",
"143 236.5 OFFCURVE",
"139 243.5 OFFCURVE",
"129 243.5 CURVE SMOOTH",
"106 243.5 LINE",
"106 279.5 LINE SMOOTH",
"106 293.5 OFFCURVE",
"110.5 299.5 OFFCURVE",
"122.5 299.5 CURVE SMOOTH",
"127 299.5 OFFCURVE",
"133.5 298 OFFCURVE",
"137 298 CURVE SMOOTH",
"146.5 298 OFFCURVE",
"151.5 327.5 OFFCURVE",
"151.5 331.5 CURVE SMOOTH",
"151.5 353 OFFCURVE",
"120 354 OFFCURVE",
"105 354 CURVE SMOOTH",
"61 354 OFFCURVE",
"37 330.5 OFFCURVE",
"37 278.5 CURVE SMOOTH",
"37 243.5 LINE",
"28.5 243.5 LINE SMOOTH",
"18.5 243.5 OFFCURVE",
"14.5 236.5 OFFCURVE",
"14.5 220.5 CURVE SMOOTH",
"14.5 212.5 LINE SMOOTH",
"14.5 196 OFFCURVE",
"18.5 189 OFFCURVE",
"28.5 189 CURVE SMOOTH",
"37 189 LINE",
"37 14 LINE SMOOTH",
"37 4 OFFCURVE",
"45 -1 OFFCURVE",
"65 -1 CURVE SMOOTH"
);
}
);
width = 151.5;
}
);
unicode = 0066;
},
{
glyphname = g;
lastChange = "2015-01-14 23:02:33 +0000";
layers = (
{
anchors = (
{
name = top;
position = "{127, 243.5}";
}
);
layerId = "63CB2BE0-8E67-47A9-A148-3C9E8B72ABA2";
name = Regular;
paths = (
{
closed = 1;
nodes = (
"188 -99 OFFCURVE",
"224 -73 OFFCURVE",
"224 -28.5 CURVE SMOOTH",
"224 14.5 OFFCURVE",
"189 23 OFFCURVE",
"154 27.5 CURVE SMOOTH",
"116.5 32 OFFCURVE",
"79 32 OFFCURVE",
"79 62 CURVE SMOOTH",
"79 85.5 OFFCURVE",
"95 93 OFFCURVE",
"123 94 CURVE SMOOTH",
"183 94 OFFCURVE",
"215 127.5 OFFCURVE",
"215 170.5 CURVE SMOOTH",
"215 185 OFFCURVE",
"210.5 199.5 OFFCURVE",
"202.5 210.5 CURVE",
"203 211.5 LINE",
"212 210.5 OFFCURVE",
"221 210 OFFCURVE",
"236 210 CURVE SMOOTH",
"242.5 210 OFFCURVE",
"245 214.5 OFFCURVE",
"245 224 CURVE SMOOTH",
"245 229.5 LINE SMOOTH",
"245 239.5 OFFCURVE",
"242.5 243.5 OFFCURVE",
"236 243.5 CURVE SMOOTH",
"151 243.5 LINE",
"142.5 245.5 OFFCURVE",
"133.5 246.5 OFFCURVE",
"123.5 246.5 CURVE SMOOTH",
"63.5 246.5 OFFCURVE",
"31.5 213 OFFCURVE",
"31.5 170.5 CURVE SMOOTH",
"31.5 142.5 OFFCURVE",
"45 118 OFFCURVE",
"72 105 CURVE",
"55 93 OFFCURVE",
"45.5 77.5 OFFCURVE",
"45.5 56.5 CURVE SMOOTH",
"45.5 38.5 OFFCURVE",
"53 27 OFFCURVE",
"64.5 18 CURVE",
"64 17 LINE",
"40 7.5 OFFCURVE",
"21.5 -12.5 OFFCURVE",
"21.5 -41 CURVE SMOOTH",
"21.5 -83 OFFCURVE",
"62 -99 OFFCURVE",
"118 -99 CURVE SMOOTH"
);
},
{
closed = 1;
nodes = (
"93 -67 OFFCURVE",
"56.5 -62 OFFCURVE",
"56.5 -33.5 CURVE SMOOTH",
"56.5 -14 OFFCURVE",
"70.5 -3 OFFCURVE",
"87 4 CURVE",
"122 -6.5 OFFCURVE",
"187 2.5 OFFCURVE",
"187 -32.5 CURVE SMOOTH",
"187 -56 OFFCURVE",
"166.5 -67 OFFCURVE",
"123 -67 CURVE SMOOTH"
);
},
{
closed = 1;
nodes = (
"92.5 125.5 OFFCURVE",
"67.5 136 OFFCURVE",
"67.5 170 CURVE SMOOTH",
"67.5 204.5 OFFCURVE",
"92.5 215.5 OFFCURVE",
"123 215.5 CURVE SMOOTH",
"154 215.5 OFFCURVE",
"179 204.5 OFFCURVE",
"179 170 CURVE SMOOTH",
"179 136 OFFCURVE",
"154 125.5 OFFCURVE",
"123 125.5 CURVE SMOOTH"
);
}
);
width = 254.5;
},
{
anchors = (
{
name = top;
position = "{127, 243.5}";
}
);
layerId = "209CD697-34B5-4613-8FA2-E55A274D1785";
name = Bold;
paths = (
{
closed = 1;
nodes = (
"194.5 -99 OFFCURVE",
"242.5 -67.5 OFFCURVE",
"242.5 -19.5 CURVE SMOOTH",
"242.5 27 OFFCURVE",
"206 41 OFFCURVE",
"170 48 CURVE SMOOTH",
"135 54 OFFCURVE",
"101 54 OFFCURVE",
"101 69.5 CURVE SMOOTH",
"101 78 OFFCURVE",
"110.5 82 OFFCURVE",
"129.5 82 CURVE SMOOTH",
"182.5 82 OFFCURVE",
"224.5 106 OFFCURVE",
"224.5 164.5 CURVE SMOOTH",
"224.5 173.5 OFFCURVE",
"221.5 185 OFFCURVE",
"217 190.5 CURVE",
"218 192.5 LINE",
"222.5 191.5 OFFCURVE",
"235 190.5 OFFCURVE",
"238 190.5 CURVE SMOOTH",
"245.5 190.5 OFFCURVE",
"249.5 197 OFFCURVE",
"249.5 212.5 CURVE SMOOTH",
"249.5 220.5 LINE SMOOTH",
"249.5 236.5 OFFCURVE",
"245 243.5 OFFCURVE",
"235.5 243.5 CURVE SMOOTH",
"160.5 243.5 LINE",
"149 246 OFFCURVE",
"137 247.5 OFFCURVE",
"124.5 247.5 CURVE SMOOTH",
"69 247.5 OFFCURVE",
"24 224.5 OFFCURVE",
"24 164.5 CURVE SMOOTH",
"24 130 OFFCURVE",
"39 107.5 OFFCURVE",
"62 95 CURVE",
"44.5 85.5 OFFCURVE",
"34 72 OFFCURVE",
"34 56.5 CURVE SMOOTH",
"34 41 OFFCURVE",
"41 28 OFFCURVE",
"54 21.5 CURVE",
"53.5 19.5 LINE",
"26 9 OFFCURVE",
"11 -10.5 OFFCURVE",
"11 -34.5 CURVE SMOOTH",
"11 -77 OFFCURVE",
"47 -99 OFFCURVE",
"122 -99 CURVE SMOOTH"
);
},
{
closed = 1;
nodes = (
"92.5 -44.5 OFFCURVE",
"78.5 -36 OFFCURVE",
"78.5 -23.5 CURVE SMOOTH",
"78.5 -14 OFFCURVE",
"87 -3.5 OFFCURVE",
"103.5 2 CURVE",
"156.5 -2 OFFCURVE",
"175 -7 OFFCURVE",
"175 -21.5 CURVE SMOOTH",
"175 -35.5 OFFCURVE",
"159.5 -44.5 OFFCURVE",
"127 -44.5 CURVE SMOOTH"
);
},
{
closed = 1;
nodes = (
"105.5 132 OFFCURVE",
"89.5 141 OFFCURVE",
"89.5 164.5 CURVE SMOOTH",
"89.5 188 OFFCURVE",
"105.5 197.5 OFFCURVE",
"124.5 197.5 CURVE SMOOTH",
"143.5 197.5 OFFCURVE",
"159.5 188 OFFCURVE",
"159.5 164.5 CURVE SMOOTH",
"159.5 141 OFFCURVE",
"143.5 132 OFFCURVE",
"124.5 132 CURVE SMOOTH"
);
}
);
width = 254.5;
}
);
unicode = 0067;
},
{
glyphname = h;
lastChange = "2015-01-14 23:02:33 +0000";
layers = (
{
anchors = (
{
name = bottom;
position = "{131.5, 0}";
},
{
name = center;
position = "{80, 293.5}";
},
{
name = top;
position = "{62.5, 340}";
}
);
layerId = "63CB2BE0-8E67-47A9-A148-3C9E8B72ABA2";
name = Regular;
paths = (
{
closed = 1;
nodes = (
"63.5 -1 LINE SMOOTH",
"76.5 -1 OFFCURVE",
"82 3 OFFCURVE",
"82 9.5 CURVE SMOOTH",
"82 180 LINE",
"82 180 OFFCURVE",
"106 212.5 OFFCURVE",
"140.5 212.5 CURVE SMOOTH",
"172.5 212.5 OFFCURVE",
"188.5 195 OFFCURVE",
"188.5 167.5 CURVE SMOOTH",
"188.5 9.5 LINE SMOOTH",
"188.5 3 OFFCURVE",
"194 -1 OFFCURVE",
"207 -1 CURVE SMOOTH",
"209 -1 LINE SMOOTH",
"222 -1 OFFCURVE",
"227.5 3 OFFCURVE",
"227.5 9.5 CURVE SMOOTH",
"227.5 171 LINE SMOOTH",
"227.5 234.5 OFFCURVE",
"183 246.5 OFFCURVE",
"153.5 246.5 CURVE SMOOTH",
"123.5 246.5 OFFCURVE",
"98.5 230.5 OFFCURVE",
"82 214.5 CURVE",
"82 340 LINE SMOOTH",
"82 346.5 OFFCURVE",
"76.5 350.5 OFFCURVE",
"63.5 350.5 CURVE SMOOTH",
"61.5 350.5 LINE SMOOTH",
"48.5 350.5 OFFCURVE",
"43 346.5 OFFCURVE",
"43 340 CURVE SMOOTH",
"43 9.5 LINE SMOOTH",
"43 3 OFFCURVE",
"48.5 -1 OFFCURVE",
"61.5 -1 CURVE SMOOTH"
);
}
);
width = 263.5;
},
{
anchors = (
{
name = bottom;
position = "{131, 0}";
},
{
name = center;
position = "{78, 293.5}";
},
{
name = top;
position = "{65.5, 341}";
}
);
layerId = "209CD697-34B5-4613-8FA2-E55A274D1785";
name = Bold;
paths = (
{
closed = 1;
nodes = (
"72 -1 LINE SMOOTH",
"91.5 -1 OFFCURVE",
"99.5 4 OFFCURVE",
"99.5 14 CURVE SMOOTH",
"99.5 163.5 LINE",
"105.5 174.5 OFFCURVE",
"118 190.5 OFFCURVE",
"137 190.5 CURVE SMOOTH",
"157.5 190.5 OFFCURVE",
"167 180 OFFCURVE",
"167 161.5 CURVE SMOOTH",
"167 14 LINE SMOOTH",
"167 4 OFFCURVE",
"175 -1 OFFCURVE",
"195 -1 CURVE SMOOTH",
"208 -1 LINE SMOOTH",
"227.5 -1 OFFCURVE",
"236 4 OFFCURVE",
"236 14 CURVE SMOOTH",
"236 172 LINE SMOOTH",
"236 223.5 OFFCURVE",
"212 247.5 OFFCURVE",
"165.5 247.5 CURVE SMOOTH",
"137.5 247.5 OFFCURVE",
"114 233 OFFCURVE",
"99.5 216 CURVE",
"99.5 336.5 LINE SMOOTH",
"99.5 346 OFFCURVE",
"91.5 351.5 OFFCURVE",
"72 351.5 CURVE SMOOTH",
"58.5 351.5 LINE SMOOTH",
"39 351.5 OFFCURVE",
"31 346 OFFCURVE",
"31 336.5 CURVE SMOOTH",
"31 14 LINE SMOOTH",
"31 4 OFFCURVE",
"39 -1 OFFCURVE",
"58.5 -1 CURVE SMOOTH"
);
}
);
width = 263.5;
}
);
unicode = 0068;
},
{
glyphname = i;
lastChange = "2015-01-14 23:02:33 +0000";
layers = (
{
anchors = (
{
name = bottom;
position = "{61, 0}";
}
);
layerId = "63CB2BE0-8E67-47A9-A148-3C9E8B72ABA2";
name = Regular;
paths = (
{
closed = 1;
nodes = (
"63 -1 LINE SMOOTH",
"76 -1 OFFCURVE",
"81.5 3 OFFCURVE",
"81.5 9.5 CURVE SMOOTH",
"81.5 234.5 LINE SMOOTH",
"81.5 241 OFFCURVE",
"76 244.5 OFFCURVE",
"63 244.5 CURVE SMOOTH",
"61 244.5 LINE SMOOTH",
"48 244.5 OFFCURVE",
"42.5 241 OFFCURVE",
"42.5 234.5 CURVE SMOOTH",
"42.5 9.5 LINE SMOOTH",
"42.5 3 OFFCURVE",
"48 -1 OFFCURVE",
"61 -1 CURVE SMOOTH"
);
},
{
closed = 1;
nodes = (
"65 302.5 LINE SMOOTH",
"78 302.5 OFFCURVE",
"83.5 306 OFFCURVE",
"83.5 312.5 CURVE SMOOTH",
"83.5 340 LINE SMOOTH",
"83.5 346.5 OFFCURVE",
"78 350.5 OFFCURVE",
"65 350.5 CURVE SMOOTH",
"59 350.5 LINE SMOOTH",
"46 350.5 OFFCURVE",
"40.5 346.5 OFFCURVE",
"40.5 340 CURVE SMOOTH",
"40.5 312.5 LINE SMOOTH",
"40.5 306 OFFCURVE",
"46 302.5 OFFCURVE",
"59 302.5 CURVE"
);
}
);
width = 123.5;
},
{
anchors = (
{
name = bottom;
position = "{61, 0}";
}
);
layerId = "209CD697-34B5-4613-8FA2-E55A274D1785";
name = Bold;
paths = (
{
closed = 1;
nodes = (
"68.5 -1 LINE SMOOTH",
"88 -1 OFFCURVE",
"96.5 4 OFFCURVE",
"96.5 14 CURVE SMOOTH",
"96.5 229.5 LINE SMOOTH",
"96.5 239.5 OFFCURVE",
"88 244.5 OFFCURVE",
"68.5 244.5 CURVE SMOOTH",
"55.5 244.5 LINE SMOOTH",
"36 244.5 OFFCURVE",
"27.5 239.5 OFFCURVE",
"27.5 229.5 CURVE SMOOTH",
"27.5 14 LINE SMOOTH",
"27.5 4 OFFCURVE",
"36 -1 OFFCURVE",
"55.5 -1 CURVE SMOOTH"
);
},
{
closed = 1;
nodes = (
"68.5 284 LINE SMOOTH",
"88 284 OFFCURVE",
"96.5 289 OFFCURVE",
"96.5 298.5 CURVE SMOOTH",
"96.5 336.5 LINE SMOOTH",
"96.5 346 OFFCURVE",
"88 351.5 OFFCURVE",
"68.5 351.5 CURVE SMOOTH",
"55.5 351.5 LINE SMOOTH",
"36 351.5 OFFCURVE",
"27.5 346 OFFCURVE",
"27.5 336.5 CURVE SMOOTH",
"27.5 298.5 LINE SMOOTH",
"27.5 289 OFFCURVE",
"36 284 OFFCURVE",
"55.5 284 CURVE"
);
}
);
width = 123.5;
}
);
unicode = 0069;
},
{
glyphname = dotlessi;
lastChange = "2015-01-14 23:02:33 +0000";
layers = (
{
anchors = (
{
name = bottom;
position = "{61, 0}";
},
{
name = ogonek;
position = "{73.5, 0}";
},
{
name = top;
position = "{62, 243.5}";
}
);
layerId = "63CB2BE0-8E67-47A9-A148-3C9E8B72ABA2";
name = Regular;
paths = (
{
closed = 1;
nodes = (
"63 -1 LINE SMOOTH",
"76 -1 OFFCURVE",
"81.5 3 OFFCURVE",
"81.5 9.5 CURVE SMOOTH",
"81.5 234.5 LINE SMOOTH",
"81.5 241 OFFCURVE",
"76 244.5 OFFCURVE",
"63 244.5 CURVE SMOOTH",
"61 244.5 LINE SMOOTH",
"48 244.5 OFFCURVE",
"42.5 241 OFFCURVE",
"42.5 234.5 CURVE SMOOTH",
"42.5 9.5 LINE SMOOTH",
"42.5 3 OFFCURVE",
"48 -1 OFFCURVE",
"61 -1 CURVE SMOOTH"
);
}
);
width = 123.5;
},
{
anchors = (
{
name = bottom;
position = "{61, 0}";
},
{
name = ogonek;
position = "{79, 0}";
},
{
name = top;
position = "{62, 243.5}";
}
);
layerId = "209CD697-34B5-4613-8FA2-E55A274D1785";
name = Bold;
paths = (
{
closed = 1;
nodes = (
"68.5 -1 LINE SMOOTH",
"88 -1 OFFCURVE",
"96.5 4 OFFCURVE",
"96.5 14 CURVE SMOOTH",
"96.5 229.5 LINE SMOOTH",
"96.5 239.5 OFFCURVE",
"88 244.5 OFFCURVE",
"68.5 244.5 CURVE SMOOTH",
"55.5 244.5 LINE SMOOTH",
"36 244.5 OFFCURVE",
"27.5 239.5 OFFCURVE",
"27.5 229.5 CURVE SMOOTH",
"27.5 14 LINE SMOOTH",
"27.5 4 OFFCURVE",
"36 -1 OFFCURVE",
"55.5 -1 CURVE SMOOTH"
);
}
);
width = 123.5;
}
);
unicode = 0131;
},
{
glyphname = j;
lastChange = "2015-01-14 23:02:33 +0000";
layers = (
{
layerId = "63CB2BE0-8E67-47A9-A148-3C9E8B72ABA2";
name = Regular;
paths = (
{
closed = 1;
nodes = (
"49.5 -99 OFFCURVE",
"86 -88.5 OFFCURVE",
"86 -34.5 CURVE SMOOTH",
"86 234.5 LINE SMOOTH",
"86 241 OFFCURVE",
"80.5 244.5 OFFCURVE",
"67.5 244.5 CURVE SMOOTH",
"65.5 244.5 LINE SMOOTH",
"52.5 244.5 OFFCURVE",
"47 241 OFFCURVE",
"47 234.5 CURVE SMOOTH",
"47 -31 LINE SMOOTH",
"47 -58.5 OFFCURVE",
"35.5 -65 OFFCURVE",
"22 -65 CURVE SMOOTH",
"8.5 -65 OFFCURVE",
"6 -63 OFFCURVE",
"2 -63 CURVE SMOOTH",
"-4.5 -63 OFFCURVE",
"-8 -81 OFFCURVE",
"-8 -85 CURVE SMOOTH",
"-8 -97.5 OFFCURVE",
"13.5 -99 OFFCURVE",
"26 -99 CURVE SMOOTH"
);
},
{
closed = 1;
nodes = (
"69.5 302.5 LINE SMOOTH",
"82.5 302.5 OFFCURVE",
"88 306 OFFCURVE",
"88 312.5 CURVE SMOOTH",
"88 340 LINE SMOOTH",
"88 346.5 OFFCURVE",
"82.5 350.5 OFFCURVE",
"69.5 350.5 CURVE SMOOTH",
"64 350.5 LINE SMOOTH",
"51 350.5 OFFCURVE",
"45 346.5 OFFCURVE",
"45 340 CURVE SMOOTH",
"45 312.5 LINE SMOOTH",
"45 306 OFFCURVE",
"51 302.5 OFFCURVE",
"64 302.5 CURVE"
);
}
);
width = 128.5;
},
{
layerId = "209CD697-34B5-4613-8FA2-E55A274D1785";
name = Bold;
paths = (
{
closed = 1;
nodes = (
"72 -99 OFFCURVE",
"101.5 -74 OFFCURVE",
"101.5 -23.5 CURVE SMOOTH",
"101.5 229.5 LINE SMOOTH",
"101.5 239.5 OFFCURVE",
"93 244.5 OFFCURVE",
"73.5 244.5 CURVE SMOOTH",
"60.5 244.5 LINE SMOOTH",
"41 244.5 OFFCURVE",
"32.5 239.5 OFFCURVE",
"32.5 229.5 CURVE SMOOTH",
"32.5 -24 LINE SMOOTH",
"32.5 -38 OFFCURVE",
"28 -44.5 OFFCURVE",
"16 -44.5 CURVE SMOOTH",
"10.5 -44.5 OFFCURVE",
"4.5 -42.5 OFFCURVE",
"2 -42.5 CURVE SMOOTH",
"-8 -42.5 OFFCURVE",
"-15 -64 OFFCURVE",
"-15 -74.5 CURVE SMOOTH",
"-15 -92.5 OFFCURVE",
"-3.5 -99 OFFCURVE",
"33.5 -99 CURVE SMOOTH"
);
},
{
closed = 1;
nodes = (
"73.5 284 LINE SMOOTH",
"93 284 OFFCURVE",
"101.5 289 OFFCURVE",
"101.5 298.5 CURVE SMOOTH",
"101.5 336.5 LINE SMOOTH",
"101.5 346 OFFCURVE",
"93 351.5 OFFCURVE",
"73.5 351.5 CURVE SMOOTH",
"60.5 351.5 LINE SMOOTH",
"41 351.5 OFFCURVE",
"32.5 346 OFFCURVE",
"32.5 336.5 CURVE SMOOTH",
"32.5 298.5 LINE SMOOTH",
"32.5 289 OFFCURVE",
"41 284 OFFCURVE",
"60.5 284 CURVE"
);
}
);
width = 128.5;
}
);
unicode = 006A;
},
{
glyphname = dotlessj;
lastChange = "2015-01-14 23:02:33 +0000";
layers = (
{
anchors = (
{
name = top;
position = "{66.5, 243.5}";
}
);
layerId = "63CB2BE0-8E67-47A9-A148-3C9E8B72ABA2";
name = Regular;
paths = (
{
closed = 1;
nodes = (
"49.5 -99 OFFCURVE",
"86 -88.5 OFFCURVE",
"86 -34.5 CURVE SMOOTH",
"86 234.5 LINE SMOOTH",
"86 241 OFFCURVE",
"80.5 244.5 OFFCURVE",
"67.5 244.5 CURVE SMOOTH",
"65.5 244.5 LINE SMOOTH",
"52.5 244.5 OFFCURVE",
"47 241 OFFCURVE",
"47 234.5 CURVE SMOOTH",
"47 -31 LINE SMOOTH",
"47 -58.5 OFFCURVE",
"35.5 -65 OFFCURVE",
"22 -65 CURVE SMOOTH",
"8.5 -65 OFFCURVE",
"6 -63 OFFCURVE",
"2 -63 CURVE SMOOTH",
"-4.5 -63 OFFCURVE",
"-8 -81 OFFCURVE",
"-8 -85 CURVE SMOOTH",
"-8 -97.5 OFFCURVE",
"13.5 -99 OFFCURVE",
"26 -99 CURVE SMOOTH"
);
}
);
width = 128.5;
},
{
anchors = (
{
name = top;
position = "{67, 243.5}";
}
);
layerId = "209CD697-34B5-4613-8FA2-E55A274D1785";
name = Bold;
paths = (
{
closed = 1;
nodes = (
"72 -99 OFFCURVE",
"101.5 -74 OFFCURVE",
"101.5 -23.5 CURVE SMOOTH",
"101.5 229.5 LINE SMOOTH",
"101.5 239.5 OFFCURVE",
"93 244.5 OFFCURVE",
"73.5 244.5 CURVE SMOOTH",
"60.5 244.5 LINE SMOOTH",
"41 244.5 OFFCURVE",
"32.5 239.5 OFFCURVE",
"32.5 229.5 CURVE SMOOTH",
"32.5 -24 LINE SMOOTH",
"32.5 -38 OFFCURVE",
"28 -44.5 OFFCURVE",
"16 -44.5 CURVE SMOOTH",
"10.5 -44.5 OFFCURVE",
"4.5 -42.5 OFFCURVE",
"2 -42.5 CURVE SMOOTH",
"-8 -42.5 OFFCURVE",
"-15 -64 OFFCURVE",
"-15 -74.5 CURVE SMOOTH",
"-15 -92.5 OFFCURVE",
"-3.5 -99 OFFCURVE",
"33.5 -99 CURVE SMOOTH"
);
}
);
width = 128.5;
}
);
unicode = 0237;
},
{
glyphname = k;
lastChange = "2015-01-14 23:02:33 +0000";
layers = (
{
anchors = (
{
name = bottom;
position = "{121.5, 0}";
}
);
layerId = "63CB2BE0-8E67-47A9-A148-3C9E8B72ABA2";
name = Regular;
paths = (
{
closed = 1;
nodes = (
"64.5 -1 LINE SMOOTH",
"77.5 -1 OFFCURVE",
"83 3 OFFCURVE",
"83 9.5 CURVE SMOOTH",
"83 115.5 LINE",
"85 115.5 LINE",
"178 5 LINE SMOOTH",
"182.5 -0.5 OFFCURVE",
"193 -1 OFFCURVE",
"203 -1 CURVE SMOOTH",
"205 -1 LINE SMOOTH",
"219.5 -1 OFFCURVE",
"225.5 0.5 OFFCURVE",
"225.5 5.5 CURVE SMOOTH",
"225.5 7.5 OFFCURVE",
"224.5 9.5 OFFCURVE",
"221.5 13 CURVE SMOOTH",
"125.5 127 LINE",
"212 229.5 LINE SMOOTH",
"215.5 233 OFFCURVE",
"216.5 236.5 OFFCURVE",
"216.5 238.5 CURVE SMOOTH",
"216.5 242 OFFCURVE",
"211.5 244.5 OFFCURVE",
"200.5 244.5 CURVE SMOOTH",
"198.5 244.5 LINE SMOOTH",
"188.5 244.5 OFFCURVE",
"178 243.5 OFFCURVE",
"174 238 CURVE SMOOTH",
"85 132 LINE",
"83 132 LINE",
"83 340 LINE SMOOTH",
"83 346.5 OFFCURVE",
"77.5 350.5 OFFCURVE",
"64.5 350.5 CURVE SMOOTH",
"62.5 350.5 LINE SMOOTH",
"49.5 350.5 OFFCURVE",
"44 346.5 OFFCURVE",
"44 340 CURVE SMOOTH",
"44 9.5 LINE SMOOTH",
"44 3 OFFCURVE",
"49.5 -1 OFFCURVE",
"62.5 -1 CURVE SMOOTH"
);
}
);
width = 243;
},
{
anchors = (
{
name = bottom;
position = "{121.5, 0}";
}
);
layerId = "209CD697-34B5-4613-8FA2-E55A274D1785";
name = Bold;
paths = (
{
closed = 1;
nodes = (
"72 -1 LINE SMOOTH",
"91.5 -1 OFFCURVE",
"99.5 4 OFFCURVE",
"99.5 14 CURVE SMOOTH",
"99.5 114.5 LINE",
"101.5 115 LINE",
"166.5 8 LINE SMOOTH",
"170.5 1 OFFCURVE",
"181 -1 OFFCURVE",
"194.5 -1 CURVE SMOOTH",
"214 -1 LINE SMOOTH",
"232 -1 OFFCURVE",
"240.5 2 OFFCURVE",
"240.5 6 CURVE SMOOTH",
"240.5 9 OFFCURVE",
"239 11.5 OFFCURVE",
"236.5 16 CURVE SMOOTH",
"161 136 LINE",
"225.5 228.5 LINE SMOOTH",
"228.5 232 OFFCURVE",
"229.5 235.5 OFFCURVE",
"229.5 237.5 CURVE SMOOTH",
"229.5 242 OFFCURVE",
"221.5 244.5 OFFCURVE",
"203.5 244.5 CURVE SMOOTH",
"186.5 244.5 LINE SMOOTH",
"173 244.5 OFFCURVE",
"163.5 243.5 OFFCURVE",
"158 236 CURVE SMOOTH",
"101.5 151.5 LINE",
"99.5 152 LINE",
"99.5 336.5 LINE SMOOTH",
"99.5 346 OFFCURVE",
"91.5 351.5 OFFCURVE",
"72 351.5 CURVE SMOOTH",
"58.5 351.5 LINE SMOOTH",
"39 351.5 OFFCURVE",
"31 346 OFFCURVE",
"31 336.5 CURVE SMOOTH",
"31 14 LINE SMOOTH",
"31 4 OFFCURVE",
"39 -1 OFFCURVE",
"58.5 -1 CURVE SMOOTH"
);
}
);
width = 243;
}
);
unicode = 006B;
},
{
glyphname = kgreenlandic;
lastChange = "2015-01-14 23:02:33 +0000";
layers = (
{
layerId = "63CB2BE0-8E67-47A9-A148-3C9E8B72ABA2";
name = Regular;
paths = (
{
closed = 1;
nodes = (
"64.5 -1 LINE SMOOTH",
"77.5 -1 OFFCURVE",
"83 3 OFFCURVE",
"83 9.5 CURVE SMOOTH",
"83 115.5 LINE",
"85 115.5 LINE",
"178 5 LINE SMOOTH",
"182.5 -0.5 OFFCURVE",
"193 -1 OFFCURVE",
"203 -1 CURVE SMOOTH",
"205 -1 LINE SMOOTH",
"219.5 -1 OFFCURVE",
"225.5 0.5 OFFCURVE",
"225.5 5.5 CURVE SMOOTH",
"225.5 7.5 OFFCURVE",
"224.5 9.5 OFFCURVE",
"221.5 13 CURVE SMOOTH",
"125.5 127 LINE",
"212 229.5 LINE SMOOTH",
"215.5 233 OFFCURVE",
"216.5 236.5 OFFCURVE",
"216.5 238.5 CURVE SMOOTH",
"216.5 242 OFFCURVE",
"211.5 244.5 OFFCURVE",
"200.5 244.5 CURVE SMOOTH",
"198.5 244.5 LINE SMOOTH",
"188.5 244.5 OFFCURVE",
"178 243.5 OFFCURVE",
"174 238 CURVE SMOOTH",
"85 132 LINE",
"83 132 LINE",
"83 235 LINE SMOOTH",
"83 241.5 OFFCURVE",
"77.5 245 OFFCURVE",
"64.5 245 CURVE SMOOTH",
"62.5 245 LINE SMOOTH",
"49.5 245 OFFCURVE",
"44 241.5 OFFCURVE",
"44 235 CURVE SMOOTH",
"44 9.5 LINE SMOOTH",
"44 3 OFFCURVE",
"49.5 -1 OFFCURVE",
"62.5 -1 CURVE SMOOTH"
);
}
);
width = 243;
},
{
layerId = "209CD697-34B5-4613-8FA2-E55A274D1785";
name = Bold;
paths = (
{
closed = 1;
nodes = (
"72 -1 LINE SMOOTH",
"91.5 -1 OFFCURVE",
"99.5 4 OFFCURVE",
"99.5 14 CURVE SMOOTH",
"99.5 114.5 LINE",
"101.5 115 LINE",
"166.5 8 LINE SMOOTH",
"170.5 1 OFFCURVE",
"181 -1 OFFCURVE",
"194.5 -1 CURVE SMOOTH",
"214 -1 LINE SMOOTH",
"232 -1 OFFCURVE",
"240.5 2 OFFCURVE",
"240.5 6 CURVE SMOOTH",
"240.5 9 OFFCURVE",
"239 11.5 OFFCURVE",
"236.5 16 CURVE SMOOTH",
"161 136 LINE",
"225.5 228.5 LINE SMOOTH",
"228.5 232 OFFCURVE",
"229.5 235.5 OFFCURVE",
"229.5 237.5 CURVE SMOOTH",
"229.5 242 OFFCURVE",
"221.5 244.5 OFFCURVE",
"203.5 244.5 CURVE SMOOTH",
"186.5 244.5 LINE SMOOTH",
"173 244.5 OFFCURVE",
"163.5 243.5 OFFCURVE",
"158 236 CURVE SMOOTH",
"101.5 151.5 LINE",
"99.5 152 LINE",
"99.5 229.5 LINE SMOOTH",
"99.5 239.5 OFFCURVE",
"91.5 244.5 OFFCURVE",
"72 244.5 CURVE SMOOTH",
"58.5 244.5 LINE SMOOTH",
"39 244.5 OFFCURVE",
"31 239.5 OFFCURVE",
"31 229.5 CURVE SMOOTH",
"31 14 LINE SMOOTH",
"31 4 OFFCURVE",
"39 -1 OFFCURVE",
"58.5 -1 CURVE SMOOTH"
);
}
);
width = 243;
}
);
unicode = 0138;
},
{
glyphname = l;
lastChange = "2015-01-14 23:02:33 +0000";
layers = (
{
anchors = (
{
name = bottom;
position = "{83.5, 0}";
},
{
name = caron;
position = "{77.5, 327}";
},
{
name = center;
position = "{130, 156}";
},
{
name = top;
position = "{58, 335.5}";
}
);
layerId = "63CB2BE0-8E67-47A9-A148-3C9E8B72ABA2";
name = Regular;
paths = (
{
closed = 1;
nodes = (
"111 -3 OFFCURVE",
"132.5 -1.5 OFFCURVE",
"132.5 11 CURVE SMOOTH",
"132.5 15 OFFCURVE",
"129 33 OFFCURVE",
"122.5 33 CURVE SMOOTH",
"118.5 33 OFFCURVE",
"116 31 OFFCURVE",
"102.5 31 CURVE SMOOTH",
"89 31 OFFCURVE",
"77.5 37.5 OFFCURVE",
"77.5 65 CURVE SMOOTH",
"77.5 340 LINE SMOOTH",
"77.5 346.5 OFFCURVE",
"72 350.5 OFFCURVE",
"58.5 350.5 CURVE SMOOTH",
"57 350.5 LINE SMOOTH",
"44 350.5 OFFCURVE",
"38 346.5 OFFCURVE",
"38 340 CURVE SMOOTH",
"38 61.5 LINE SMOOTH",
"38 7.5 OFFCURVE",
"75 -3 OFFCURVE",
"98.5 -3 CURVE SMOOTH"
);
}
);
width = 138.5;
},
{
anchors = (
{
name = bottom;
position = "{85.5, 0}";
},
{
name = caron;
position = "{90, 350.5}";
},
{
name = center;
position = "{142, 156}";
},
{
name = top;
position = "{63.5, 335.5}";
}
);
layerId = "209CD697-34B5-4613-8FA2-E55A274D1785";
name = Bold;
paths = (
{
closed = 1;
nodes = (
"112 -3.5 OFFCURVE",
"142 -2.5 OFFCURVE",
"142 19 CURVE SMOOTH",
"142 23 OFFCURVE",
"137 52.5 OFFCURVE",
"127.5 52.5 CURVE SMOOTH",
"125 52.5 OFFCURVE",
"119.5 51 OFFCURVE",
"115 51 CURVE SMOOTH",
"103 51 OFFCURVE",
"98.5 57 OFFCURVE",
"98.5 71 CURVE SMOOTH",
"98.5 336.5 LINE SMOOTH",
"98.5 346 OFFCURVE",
"90 351.5 OFFCURVE",
"70.5 351.5 CURVE SMOOTH",
"57.5 351.5 LINE SMOOTH",
"37.5 351.5 OFFCURVE",
"29.5 346 OFFCURVE",
"29.5 336.5 CURVE SMOOTH",
"29.5 72 LINE SMOOTH",
"29.5 20 OFFCURVE",
"53.5 -3.5 OFFCURVE",
"97.5 -3.5 CURVE SMOOTH"
);
}
);
width = 138.5;
}
);
unicode = 006C;
},
{
glyphname = lslash;
lastChange = "2015-01-14 23:02:33 +0000";
layers = (
{
layerId = "63CB2BE0-8E67-47A9-A148-3C9E8B72ABA2";
name = Regular;
paths = (
{
closed = 1;
nodes = (
"110 -3 OFFCURVE",
"131.5 -1.5 OFFCURVE",
"131.5 11 CURVE SMOOTH",
"131.5 15 OFFCURVE",
"128 33 OFFCURVE",
"121.5 33 CURVE SMOOTH",
"117.5 33 OFFCURVE",
"115 31 OFFCURVE",
"101.5 31 CURVE SMOOTH",
"88 31 OFFCURVE",
"76.5 37.5 OFFCURVE",
"76.5 65 CURVE SMOOTH",
"76.5 187.5 LINE",
"96 199 LINE SMOOTH",
"101.5 202 OFFCURVE",
"105 206.5 OFFCURVE",
"105 213 CURVE SMOOTH",
"105 216 LINE SMOOTH",
"105 220 OFFCURVE",
"103 222.5 OFFCURVE",
"100.5 222.5 CURVE SMOOTH",
"99.5 222.5 OFFCURVE",
"98 221.5 OFFCURVE",
"96 220.5 CURVE SMOOTH",
"76.5 209 LINE",
"76.5 340 LINE SMOOTH",
"76.5 346.5 OFFCURVE",
"71 350.5 OFFCURVE",
"58 350.5 CURVE SMOOTH",
"56 350.5 LINE SMOOTH",
"43 350.5 OFFCURVE",
"37.5 346.5 OFFCURVE",
"37.5 340 CURVE SMOOTH",
"37.5 185.5 LINE",
"17.5 174.5 LINE SMOOTH",
"12 171 OFFCURVE",
"9 167 OFFCURVE",
"9 160.5 CURVE SMOOTH",
"9 157.5 LINE SMOOTH",
"9 153.5 OFFCURVE",
"10.5 151 OFFCURVE",
"13 151 CURVE SMOOTH",
"14 151 OFFCURVE",
"16 151.5 OFFCURVE",
"17.5 153 CURVE SMOOTH",
"37.5 164.5 LINE",
"37.5 61.5 LINE SMOOTH",
"37.5 7.5 OFFCURVE",
"74 -3 OFFCURVE",
"97.5 -3 CURVE SMOOTH"
);
}
);
width = 136.5;
},
{
layerId = "209CD697-34B5-4613-8FA2-E55A274D1785";
name = Bold;
paths = (
{
closed = 1;
nodes = (
"110 -3.5 OFFCURVE",
"140.5 -2.5 OFFCURVE",
"140.5 19 CURVE SMOOTH",
"140.5 23 OFFCURVE",
"135 52.5 OFFCURVE",
"126 52.5 CURVE SMOOTH",
"123 52.5 OFFCURVE",
"117.5 51 OFFCURVE",
"113 51 CURVE SMOOTH",
"101 51 OFFCURVE",
"96.5 57 OFFCURVE",
"96.5 71 CURVE SMOOTH",
"96.5 192 LINE",
"107.5 199 LINE SMOOTH",
"116 204 OFFCURVE",
"120 209.5 OFFCURVE",
"120 220 CURVE SMOOTH",
"120 229.5 LINE SMOOTH",
"120 236 OFFCURVE",
"118 238.5 OFFCURVE",
"114.5 238.5 CURVE SMOOTH",
"113 238.5 OFFCURVE",
"110.5 237.5 OFFCURVE",
"107.5 236.5 CURVE SMOOTH",
"96.5 229.5 LINE",
"96.5 336.5 LINE SMOOTH",
"96.5 346 OFFCURVE",
"88 351.5 OFFCURVE",
"68.5 351.5 CURVE SMOOTH",
"55.5 351.5 LINE SMOOTH",
"36 351.5 OFFCURVE",
"27.5 346 OFFCURVE",
"27.5 336.5 CURVE SMOOTH",
"27.5 188 LINE",
"17 181.5 LINE SMOOTH",
"9 176.5 OFFCURVE",
"5 170 OFFCURVE",
"5 160.5 CURVE SMOOTH",
"5 151 LINE SMOOTH",
"5 144.5 OFFCURVE",
"6.5 141.5 OFFCURVE",
"10 141.5 CURVE SMOOTH",
"11.5 141.5 OFFCURVE",
"14 142.5 OFFCURVE",
"17 144.5 CURVE SMOOTH",
"27.5 150.5 LINE",
"27.5 72 LINE SMOOTH",
"27.5 20 OFFCURVE",
"51.5 -3.5 OFFCURVE",
"95.5 -3.5 CURVE SMOOTH"
);
}
);
width = 136.5;
}
);
unicode = 0142;
},
{
glyphname = m;
lastChange = "2015-01-14 23:02:33 +0000";
layers = (
{
layerId = "63CB2BE0-8E67-47A9-A148-3C9E8B72ABA2";
name = Regular;
paths = (
{
closed = 1;
nodes = (
"60 -1 LINE SMOOTH",
"73 -1 OFFCURVE",
"79 3 OFFCURVE",
"79 9.5 CURVE SMOOTH",
"79 180.5 LINE",
"79 180.5 OFFCURVE",
"101.5 212.5 OFFCURVE",
"135.5 212.5 CURVE SMOOTH",
"165.5 212.5 OFFCURVE",
"180.5 195 OFFCURVE",
"180.5 167.5 CURVE SMOOTH",
"180.5 9.5 LINE SMOOTH",
"180.5 3 OFFCURVE",
"186 -1 OFFCURVE",
"199 -1 CURVE SMOOTH",
"201 -1 LINE SMOOTH",
"214 -1 OFFCURVE",
"219.5 3 OFFCURVE",
"219.5 9.5 CURVE SMOOTH",
"219.5 170.5 LINE SMOOTH",
"219.5 177.5 OFFCURVE",
"219 185.5 OFFCURVE",
"216 192.5 CURVE",
"216.5 176.5 LINE",
"218.5 179 OFFCURVE",
"243 212.5 OFFCURVE",
"276.5 212.5 CURVE SMOOTH",
"306 212.5 OFFCURVE",
"321 195 OFFCURVE",
"321 167.5 CURVE SMOOTH",
"321 9.5 LINE SMOOTH",
"321 3 OFFCURVE",
"326.5 -1 OFFCURVE",
"339.5 -1 CURVE SMOOTH",
"341.5 -1 LINE SMOOTH",
"354.5 -1 OFFCURVE",
"360 3 OFFCURVE",
"360 9.5 CURVE SMOOTH",
"360 171 LINE SMOOTH",
"360 234.5 OFFCURVE",
"317 246.5 OFFCURVE",
"287 246.5 CURVE SMOOTH",
"257.5 246.5 OFFCURVE",
"230.5 229 OFFCURVE",
"213 208 CURVE",
"200 239.5 OFFCURVE",
"169 246.5 OFFCURVE",
"146.5 246.5 CURVE SMOOTH",
"116.5 246.5 OFFCURVE",
"91 229.5 OFFCURVE",
"75.5 211.5 CURVE",
"72.5 223.5 OFFCURVE",
"70.5 242.5 OFFCURVE",
"59 242.5 CURVE SMOOTH",
"53 242.5 OFFCURVE",
"34 240.5 OFFCURVE",
"34 231.5 CURVE SMOOTH",
"34 229.5 OFFCURVE",
"39.5 211 OFFCURVE",
"39.5 173 CURVE SMOOTH",
"39.5 9.5 LINE SMOOTH",
"39.5 3 OFFCURVE",
"45 -1 OFFCURVE",
"58 -1 CURVE SMOOTH"
);
}
);
width = 395;
},
{
layerId = "209CD697-34B5-4613-8FA2-E55A274D1785";
name = Bold;
paths = (
{
closed = 1;
nodes = (
"70 -1 LINE SMOOTH",
"89.5 -1 OFFCURVE",
"98 4 OFFCURVE",
"98 14 CURVE SMOOTH",
"98 163.5 LINE",
"103.5 174.5 OFFCURVE",
"115.5 190.5 OFFCURVE",
"134.5 190.5 CURVE SMOOTH",
"155 190.5 OFFCURVE",
"162 180 OFFCURVE",
"162 161.5 CURVE SMOOTH",
"162 14 LINE SMOOTH",
"162 4 OFFCURVE",
"170.5 -1 OFFCURVE",
"190 -1 CURVE SMOOTH",
"203 -1 LINE SMOOTH",
"222.5 -1 OFFCURVE",
"231 4 OFFCURVE",
"231 14 CURVE SMOOTH",
"231 170.5 LINE SMOOTH",
"231 178.5 OFFCURVE",
"229.5 187 OFFCURVE",
"227.5 195 CURVE",
"227.5 157 LINE",
"229.5 159.5 OFFCURVE",
"240.5 190.5 OFFCURVE",
"268 190.5 CURVE SMOOTH",
"288.5 190.5 OFFCURVE",
"295.5 180 OFFCURVE",
"295.5 161.5 CURVE SMOOTH",
"295.5 14 LINE SMOOTH",
"295.5 4 OFFCURVE",
"304 -1 OFFCURVE",
"323.5 -1 CURVE SMOOTH",
"336.5 -1 LINE SMOOTH",
"356 -1 OFFCURVE",
"364.5 4 OFFCURVE",
"364.5 14 CURVE SMOOTH",
"364.5 172 LINE SMOOTH",
"364.5 223.5 OFFCURVE",
"343 247.5 OFFCURVE",
"296.5 247.5 CURVE SMOOTH",
"265 247.5 OFFCURVE",
"238.5 229.5 OFFCURVE",
"224.5 212 CURVE",
"215.5 236.5 OFFCURVE",
"195.5 247.5 OFFCURVE",
"163 247.5 CURVE SMOOTH",
"133 247.5 OFFCURVE",
"107.5 229.5 OFFCURVE",
"94 212 CURVE",
"91.5 223.5 OFFCURVE",
"90.5 242.5 OFFCURVE",
"75.5 242.5 CURVE SMOOTH",
"64 242.5 OFFCURVE",
"23.5 238.5 OFFCURVE",
"23.5 227.5 CURVE SMOOTH",
"23.5 218 OFFCURVE",
"29 208.5 OFFCURVE",
"29 161.5 CURVE SMOOTH",
"29 14 LINE SMOOTH",
"29 4 OFFCURVE",
"37.5 -1 OFFCURVE",
"57 -1 CURVE SMOOTH"
);
}
);
width = 395;
}
);
unicode = 006D;
},
{
glyphname = n;
lastChange = "2015-01-14 23:02:33 +0000";
layers = (
{
anchors = (
{
name = bottom;
position = "{130, 0}";
},
{
name = top;
position = "{130, 243.5}";
}
);
layerId = "63CB2BE0-8E67-47A9-A148-3C9E8B72ABA2";
name = Regular;
paths = (
{
closed = 1;
nodes = (
"60.5 -1 LINE SMOOTH",
"73.5 -1 OFFCURVE",
"79 3 OFFCURVE",
"79 9.5 CURVE SMOOTH",
"79 180 LINE",
"94.5 200 OFFCURVE",
"117 212.5 OFFCURVE",
"138 212.5 CURVE SMOOTH",
"168 212.5 OFFCURVE",
"185.5 195.5 OFFCURVE",
"185.5 167.5 CURVE SMOOTH",
"185.5 9.5 LINE SMOOTH",
"185.5 3 OFFCURVE",
"191 -1 OFFCURVE",
"204 -1 CURVE SMOOTH",
"206 -1 LINE SMOOTH",
"219 -1 OFFCURVE",
"224.5 3 OFFCURVE",
"224.5 9.5 CURVE SMOOTH",
"224.5 171 LINE SMOOTH",
"224.5 218 OFFCURVE",
"196 246.5 OFFCURVE",
"148.5 246.5 CURVE SMOOTH",
"122.5 246.5 OFFCURVE",
"95.5 233.5 OFFCURVE",
"76 211.5 CURVE",
"73 223.5 OFFCURVE",
"71 242.5 OFFCURVE",
"59.5 242.5 CURVE SMOOTH",
"53.5 242.5 OFFCURVE",
"34.5 240.5 OFFCURVE",
"34.5 231.5 CURVE SMOOTH",
"34.5 229.5 OFFCURVE",
"40 211 OFFCURVE",
"40 173 CURVE SMOOTH",
"40 9.5 LINE SMOOTH",
"40 3 OFFCURVE",
"45.5 -1 OFFCURVE",
"58.5 -1 CURVE SMOOTH"
);
}
);
width = 259.5;
},
{
anchors = (
{
name = bottom;
position = "{130, 0}";
},
{
name = top;
position = "{130, 243.5}";
}
);
layerId = "209CD697-34B5-4613-8FA2-E55A274D1785";
name = Bold;
paths = (
{
closed = 1;
nodes = (
"70 -1 LINE SMOOTH",
"89.5 -1 OFFCURVE",
"98 4 OFFCURVE",
"98 14 CURVE SMOOTH",
"98 163.5 LINE",
"103.5 174.5 OFFCURVE",
"116 190.5 OFFCURVE",
"135 190.5 CURVE SMOOTH",
"155.5 190.5 OFFCURVE",
"163 180 OFFCURVE",
"163 161.5 CURVE SMOOTH",
"163 14 LINE SMOOTH",
"163 4 OFFCURVE",
"171.5 -1 OFFCURVE",
"191 -1 CURVE SMOOTH",
"204 -1 LINE SMOOTH",
"223.5 -1 OFFCURVE",
"232 4 OFFCURVE",
"232 14 CURVE SMOOTH",
"232 172 LINE SMOOTH",
"232 223.5 OFFCURVE",
"210 247.5 OFFCURVE",
"163.5 247.5 CURVE SMOOTH",
"133.5 247.5 OFFCURVE",
"107.5 229.5 OFFCURVE",
"94 212 CURVE",
"91.5 223.5 OFFCURVE",
"90.5 242.5 OFFCURVE",
"75.5 242.5 CURVE SMOOTH",
"64 242.5 OFFCURVE",
"23.5 238.5 OFFCURVE",
"23.5 227.5 CURVE SMOOTH",
"23.5 218 OFFCURVE",
"29 208.5 OFFCURVE",
"29 161.5 CURVE SMOOTH",
"29 14 LINE SMOOTH",
"29 4 OFFCURVE",
"37.5 -1 OFFCURVE",
"57 -1 CURVE SMOOTH"
);
}
);
width = 259.5;
}
);
unicode = 006E;
},
{
glyphname = eng;
lastChange = "2015-01-14 23:02:33 +0000";
layers = (
{
layerId = "63CB2BE0-8E67-47A9-A148-3C9E8B72ABA2";
name = Regular;
paths = (
{
closed = 1;
nodes = (
"188 -99 OFFCURVE",
"224.5 -88.5 OFFCURVE",
"224.5 -34.5 CURVE SMOOTH",
"224.5 171 LINE SMOOTH",
"224.5 218 OFFCURVE",
"196 246.5 OFFCURVE",
"148.5 246.5 CURVE SMOOTH",
"122.5 246.5 OFFCURVE",
"95.5 233.5 OFFCURVE",
"76 211.5 CURVE",
"73 223.5 OFFCURVE",
"71 242.5 OFFCURVE",
"59.5 242.5 CURVE SMOOTH",
"53.5 242.5 OFFCURVE",
"34.5 240.5 OFFCURVE",
"34.5 231.5 CURVE SMOOTH",
"34.5 229.5 OFFCURVE",
"40 211 OFFCURVE",
"40 173 CURVE SMOOTH",
"40 9.5 LINE SMOOTH",
"40 3 OFFCURVE",
"45.5 -1 OFFCURVE",
"58.5 -1 CURVE SMOOTH",
"60.5 -1 LINE SMOOTH",
"73.5 -1 OFFCURVE",
"79 3 OFFCURVE",
"79 9.5 CURVE SMOOTH",
"79 180 LINE",
"94.5 200 OFFCURVE",
"117 212.5 OFFCURVE",
"138 212.5 CURVE SMOOTH",
"168 212.5 OFFCURVE",
"185.5 195.5 OFFCURVE",
"185.5 167.5 CURVE SMOOTH",
"185.5 -31 LINE SMOOTH",
"185.5 -58.5 OFFCURVE",
"174 -65 OFFCURVE",
"160.5 -65 CURVE SMOOTH",
"147 -65 OFFCURVE",
"144.5 -63 OFFCURVE",
"140.5 -63 CURVE SMOOTH",
"133.5 -63 OFFCURVE",
"130.5 -81 OFFCURVE",
"130.5 -85 CURVE SMOOTH",
"130.5 -97.5 OFFCURVE",
"152 -99 OFFCURVE",
"164.5 -99 CURVE SMOOTH"
);
}
);
width = 259.5;
},
{
layerId = "209CD697-34B5-4613-8FA2-E55A274D1785";
name = Bold;
paths = (
{
closed = 1;
nodes = (
"202.5 -99 OFFCURVE",
"232 -74 OFFCURVE",
"232 -23.5 CURVE SMOOTH",
"232 172 LINE SMOOTH",
"232 223.5 OFFCURVE",
"210 247.5 OFFCURVE",
"163.5 247.5 CURVE SMOOTH",
"133.5 247.5 OFFCURVE",
"107.5 229.5 OFFCURVE",
"94 212 CURVE",
"91.5 223.5 OFFCURVE",
"90.5 242.5 OFFCURVE",
"75.5 242.5 CURVE SMOOTH",
"64 242.5 OFFCURVE",
"23.5 238.5 OFFCURVE",
"23.5 227.5 CURVE SMOOTH",
"23.5 218 OFFCURVE",
"29 208.5 OFFCURVE",
"29 161.5 CURVE SMOOTH",
"29 14 LINE SMOOTH",
"29 4 OFFCURVE",
"37.5 -1 OFFCURVE",
"57 -1 CURVE SMOOTH",
"70 -1 LINE SMOOTH",
"89.5 -1 OFFCURVE",
"98 4 OFFCURVE",
"98 14 CURVE SMOOTH",
"98 163.5 LINE",
"103.5 174.5 OFFCURVE",
"116 190.5 OFFCURVE",
"135 190.5 CURVE SMOOTH",
"155.5 190.5 OFFCURVE",
"163 180 OFFCURVE",
"163 161.5 CURVE SMOOTH",
"163 -24 LINE SMOOTH",
"163 -38 OFFCURVE",
"158.5 -44.5 OFFCURVE",
"146.5 -44.5 CURVE SMOOTH",
"141 -44.5 OFFCURVE",
"135 -42.5 OFFCURVE",
"132.5 -42.5 CURVE SMOOTH",
"122.5 -42.5 OFFCURVE",
"115.5 -64 OFFCURVE",
"115.5 -74.5 CURVE SMOOTH",
"115.5 -92.5 OFFCURVE",
"127 -99 OFFCURVE",
"164 -99 CURVE SMOOTH"
);
}
);
width = 259.5;
}
);
unicode = 014B;
},
{
glyphname = o;
lastChange = "2015-01-14 23:02:33 +0000";
layers = (
{
anchors = (
{
name = bottom;
position = "{135.5, 0}";
},
{
name = horn;
position = "{175, 235.5}";
},
{
name = ogonek;
position = "{160, 0}";
},
{
name = top;
position = "{133, 243.5}";
}
);
layerId = "63CB2BE0-8E67-47A9-A148-3C9E8B72ABA2";
name = Regular;
paths = (
{
closed = 1;
nodes = (
"203 -3 OFFCURVE",
"239.5 40 OFFCURVE",
"239.5 120.5 CURVE SMOOTH",
"239.5 202 OFFCURVE",
"202 246.5 OFFCURVE",
"133.5 246.5 CURVE SMOOTH",
"64.5 246.5 OFFCURVE",
"25.5 201.5 OFFCURVE",
"25.5 120.5 CURVE SMOOTH",
"25.5 40.5 OFFCURVE",
"63.5 -3 OFFCURVE",
"133.5 -3 CURVE SMOOTH"
);
},
{
closed = 1;
nodes = (
"86.5 31 OFFCURVE",
"66.5 59.5 OFFCURVE",
"66.5 121.5 CURVE SMOOTH",
"66.5 184 OFFCURVE",
"87 213 OFFCURVE",
"132.5 213 CURVE SMOOTH",
"178 213 OFFCURVE",
"199 183.5 OFFCURVE",
"199 121.5 CURVE SMOOTH",
"199 59.5 OFFCURVE",
"178 31 OFFCURVE",
"132.5 31 CURVE SMOOTH"
);
}
);
width = 265;
},
{
anchors = (
{
name = bottom;
position = "{135.5, 0}";
},
{
name = horn;
position = "{180.5, 235.5}";
},
{
name = ogonek;
position = "{164.5, 0}";
},
{
name = top;
position = "{133, 243.5}";
}
);
layerId = "209CD697-34B5-4613-8FA2-E55A274D1785";
name = Bold;
paths = (
{
closed = 1;
nodes = (
"207 -3.5 OFFCURVE",
"245.5 41 OFFCURVE",
"245.5 122 CURVE SMOOTH",
"245.5 203 OFFCURVE",
"207 247.5 OFFCURVE",
"133 247.5 CURVE SMOOTH",
"58.5 247.5 OFFCURVE",
"19.5 203 OFFCURVE",
"19.5 122 CURVE SMOOTH",
"19.5 41 OFFCURVE",
"58.5 -3.5 OFFCURVE",
"133 -3.5 CURVE SMOOTH"
);
},
{
closed = 1;
nodes = (
"103 51 OFFCURVE",
"89.5 75.5 OFFCURVE",
"89.5 122 CURVE SMOOTH",
"89.5 168.5 OFFCURVE",
"103 193 OFFCURVE",
"133 193 CURVE SMOOTH",
"162.5 193 OFFCURVE",
"175.5 168.5 OFFCURVE",
"175.5 122 CURVE SMOOTH",
"175.5 75.5 OFFCURVE",
"162.5 51 OFFCURVE",
"133 51 CURVE SMOOTH"
);
}
);
width = 265;
}
);
leftKerningGroup = o;
rightKerningGroup = o;
unicode = 006F;
},
{
glyphname = oslash;
lastChange = "2015-01-14 23:02:33 +0000";
layers = (
{
anchors = (
{
name = top;
position = "{133, 243.5}";
}
);
layerId = "63CB2BE0-8E67-47A9-A148-3C9E8B72ABA2";
name = Regular;
paths = (
{
closed = 1;
nodes = (
"182 -2.5 OFFCURVE",
"239.5 16 OFFCURVE",
"239.5 120.5 CURVE SMOOTH",
"239.5 159.5 OFFCURVE",
"231.5 186.5 OFFCURVE",
"219 205.5 CURVE",
"237 226.5 LINE SMOOTH",
"239 229 OFFCURVE",
"240 230.5 OFFCURVE",
"240 233 CURVE SMOOTH",
"240 236.5 OFFCURVE",
"233.5 243 OFFCURVE",
"229.5 243 CURVE SMOOTH",
"227.5 243 OFFCURVE",
"225.5 241.5 OFFCURVE",
"223 239 CURVE SMOOTH",
"207.5 220.5 LINE",
"186.5 240.5 OFFCURVE",
"159 246 OFFCURVE",
"133.5 246 CURVE SMOOTH",
"85.5 246 OFFCURVE",
"25.5 225.5 OFFCURVE",
"25.5 120.5 CURVE SMOOTH",
"25.5 80.5 OFFCURVE",
"34 53 OFFCURVE",
"47.5 34.5 CURVE",
"33 17 LINE SMOOTH",
"31 15 OFFCURVE",
"30 13 OFFCURVE",
"30 10.5 CURVE SMOOTH",
"30 7 OFFCURVE",
"36.5 1 OFFCURVE",
"40.5 1 CURVE SMOOTH",
"43 1 OFFCURVE",
"44.5 2.5 OFFCURVE",
"47 4.5 CURVE SMOOTH",
"60.5 20.5 LINE",
"81.5 2.5 OFFCURVE",
"109 -2.5 OFFCURVE",
"133.5 -2.5 CURVE SMOOTH"
);
},
{
closed = 1;
nodes = (
"112.5 31 OFFCURVE",
"96.5 36.5 OFFCURVE",
"85.5 49 CURVE",
"191.5 173.5 LINE",
"196.5 160 OFFCURVE",
"199 143 OFFCURVE",
"199 121.5 CURVE SMOOTH",
"199 54 OFFCURVE",
"174 31 OFFCURVE",
"132.5 31 CURVE SMOOTH"
);
},
{
closed = 1;
nodes = (
"69 79.5 OFFCURVE",
"66 98 OFFCURVE",
"66 121.5 CURVE SMOOTH",
"66 189 OFFCURVE",
"91 212.5 OFFCURVE",
"132.5 212.5 CURVE SMOOTH",
"153.5 212.5 OFFCURVE",
"170.5 206.5 OFFCURVE",
"182 191 CURVE",
"74.5 66 LINE"
);
}
);
width = 265;
},
{
anchors = (
{
name = top;
position = "{133, 243.5}";
}
);
layerId = "209CD697-34B5-4613-8FA2-E55A274D1785";
name = Bold;
paths = (
{
closed = 1;
nodes = (
"207 -3.5 OFFCURVE",
"245.5 41 OFFCURVE",
"245.5 122 CURVE SMOOTH",
"245.5 155.5 OFFCURVE",
"238.5 183 OFFCURVE",
"225.5 203.5 CURVE",
"242.5 223 LINE SMOOTH",
"245 226.5 OFFCURVE",
"247 229.5 OFFCURVE",
"247 233 CURVE SMOOTH",
"247 241 OFFCURVE",
"232 253.5 OFFCURVE",
"224.5 253.5 CURVE SMOOTH",
"221.5 253.5 OFFCURVE",
"217.5 251 OFFCURVE",
"214.5 247.5 CURVE SMOOTH",
"199.5 230 LINE",
"182 241.5 OFFCURVE",
"160 247.5 OFFCURVE",
"133 247.5 CURVE SMOOTH",
"58.5 247.5 OFFCURVE",
"19.5 203 OFFCURVE",
"19.5 122 CURVE SMOOTH",
"19.5 89.5 OFFCURVE",
"25.5 63 OFFCURVE",
"38 42.5 CURVE",
"23 24.5 LINE SMOOTH",
"19.5 21 OFFCURVE",
"18 18 OFFCURVE",
"18 15 CURVE SMOOTH",
"18 6 OFFCURVE",
"33 -5.5 OFFCURVE",
"40.5 -5.5 CURVE SMOOTH",
"44 -5.5 OFFCURVE",
"47 -3.5 OFFCURVE",
"50.5 0.5 CURVE SMOOTH",
"63.5 15.5 LINE",
"81 3 OFFCURVE",
"104.5 -3.5 OFFCURVE",
"133 -3.5 CURVE SMOOTH"
);
},
{
closed = 1;
nodes = (
"120.5 51 OFFCURVE",
"111.5 55 OFFCURVE",
"104.5 63 CURVE",
"174.5 144.5 LINE",
"175 137.5 OFFCURVE",
"175.5 130 OFFCURVE",
"175.5 122 CURVE SMOOTH",
"175.5 75.5 OFFCURVE",
"162.5 51 OFFCURVE",
"133 51 CURVE SMOOTH"
);
},
{
closed = 1;
nodes = (
"90 109 OFFCURVE",
"89.5 115 OFFCURVE",
"89.5 122 CURVE SMOOTH",
"89.5 168.5 OFFCURVE",
"103 193 OFFCURVE",
"133 193 CURVE SMOOTH",
"143.5 193 OFFCURVE",
"152.5 189.5 OFFCURVE",
"159 183 CURVE",
"90.5 103 LINE"
);
}
);
width = 265;
}
);
unicode = 00F8;
},
{
glyphname = oe;
lastChange = "2015-01-14 23:02:33 +0000";
layers = (
{
anchors = (
{
name = top;
position = "{203, 243.5}";
}
);
components = (
{
name = e;
transform = "{1, 0, 0, 1, 150.052, 0}";
}
);
layerId = "63CB2BE0-8E67-47A9-A148-3C9E8B72ABA2";
name = Regular;
paths = (
{
closed = 1;
nodes = (
"165.5 -3 OFFCURVE",
"190.5 6 OFFCURVE",
"208.5 23.5 CURVE",
"208 219 LINE",
"190 237 OFFCURVE",
"165 246.5 OFFCURVE",
"133.5 246.5 CURVE SMOOTH",
"64.5 246.5 OFFCURVE",
"25.5 201.5 OFFCURVE",
"25.5 120.5 CURVE SMOOTH",
"25.5 40.5 OFFCURVE",
"63.5 -3 OFFCURVE",
"133.5 -3 CURVE SMOOTH"
);
},
{
closed = 1;
nodes = (
"86.5 31 OFFCURVE",
"66.5 59.5 OFFCURVE",
"66.5 121.5 CURVE SMOOTH",
"66.5 184 OFFCURVE",
"87 213 OFFCURVE",
"132.5 213 CURVE SMOOTH",
"182.5 213 OFFCURVE",
"205 183.5 OFFCURVE",
"205 121.5 CURVE SMOOTH",
"205 59.5 OFFCURVE",
"182.5 31 OFFCURVE",
"132.5 31 CURVE SMOOTH"
);
}
);
width = 406;
},
{
anchors = (
{
name = top;
position = "{203, 243.5}";
}
);
components = (
{
name = e;
transform = "{1, 0, 0, 1, 156.11, 0}";
}
);
layerId = "209CD697-34B5-4613-8FA2-E55A274D1785";
name = Bold;
paths = (
{
closed = 1;
nodes = (
"166.5 -3.5 OFFCURVE",
"192.5 7.5 OFFCURVE",
"211.5 25 CURVE",
"210 219 LINE",
"191.5 236.5 OFFCURVE",
"165.5 247.5 OFFCURVE",
"132.5 247.5 CURVE SMOOTH",
"58 247.5 OFFCURVE",
"19 203 OFFCURVE",
"19 122 CURVE SMOOTH",
"19 41 OFFCURVE",
"58 -3.5 OFFCURVE",
"132.5 -3.5 CURVE SMOOTH"
);
},
{
closed = 1;
nodes = (
"102.5 51 OFFCURVE",
"89 75.5 OFFCURVE",
"89 122 CURVE SMOOTH",
"89 168.5 OFFCURVE",
"102.5 193 OFFCURVE",
"132.5 193 CURVE SMOOTH",
"162 193 OFFCURVE",
"175 168.5 OFFCURVE",
"175 122 CURVE SMOOTH",
"175 75.5 OFFCURVE",
"162 51 OFFCURVE",
"132.5 51 CURVE SMOOTH"
);
}
);
width = 406;
}
);
unicode = 0153;
},
{
glyphname = p;
lastChange = "2015-01-14 23:02:33 +0000";
layers = (
{
layerId = "63CB2BE0-8E67-47A9-A148-3C9E8B72ABA2";
name = Regular;
paths = (
{
closed = 1;
nodes = (
"60.5 -97 LINE SMOOTH",
"73.5 -97 OFFCURVE",
"79 -93 OFFCURVE",
"79 -86.5 CURVE SMOOTH",
"79 21 LINE",
"97.5 7 OFFCURVE",
"117 -3 OFFCURVE",
"146 -3 CURVE SMOOTH",
"201.5 -3 OFFCURVE",
"240.5 41 OFFCURVE",
"240.5 121.5 CURVE SMOOTH",
"240.5 193.5 OFFCURVE",
"208 246.5 OFFCURVE",
"150 246.5 CURVE SMOOTH",
"123.5 246.5 OFFCURVE",
"99 235.5 OFFCURVE",
"76 211.5 CURVE",
"73 223.5 OFFCURVE",
"71 242.5 OFFCURVE",
"59.5 242.5 CURVE SMOOTH",
"53.5 242.5 OFFCURVE",
"34.5 240.5 OFFCURVE",
"34.5 231.5 CURVE SMOOTH",
"34.5 229.5 OFFCURVE",
"40 211 OFFCURVE",
"40 173 CURVE SMOOTH",
"40 -86.5 LINE SMOOTH",
"40 -93 OFFCURVE",
"45.5 -97 OFFCURVE",
"58.5 -97 CURVE SMOOTH"
);
},
{
closed = 1;
nodes = (
"115.5 31.5 OFFCURVE",
"96 38.5 OFFCURVE",
"79 52.5 CURVE",
"79 180.5 LINE",
"98.5 201.5 OFFCURVE",
"121.5 212.5 OFFCURVE",
"142 212.5 CURVE SMOOTH",
"179 212.5 OFFCURVE",
"199.5 178.5 OFFCURVE",
"199.5 118.5 CURVE SMOOTH",
"199.5 63 OFFCURVE",
"178.5 32.5 OFFCURVE",
"137 31.5 CURVE SMOOTH"
);
}
);
width = 267;
},
{
layerId = "209CD697-34B5-4613-8FA2-E55A274D1785";
name = Bold;
paths = (
{
closed = 1;
nodes = (
"73.5 -96 LINE SMOOTH",
"93 -96 OFFCURVE",
"101.5 -91 OFFCURVE",
"101.5 -81 CURVE SMOOTH",
"101.5 10.5 LINE",
"111.5 3.5 OFFCURVE",
"127 -3.5 OFFCURVE",
"149 -3.5 CURVE SMOOTH",
"212 -3.5 OFFCURVE",
"247.5 45.5 OFFCURVE",
"247.5 121.5 CURVE SMOOTH",
"247.5 202.5 OFFCURVE",
"210.5 247.5 OFFCURVE",
"160.5 247.5 CURVE SMOOTH",
"131.5 247.5 OFFCURVE",
"108.5 232.5 OFFCURVE",
"98 212.5 CURVE",
"95 223.5 OFFCURVE",
"94 242.5 OFFCURVE",
"79 242.5 CURVE SMOOTH",
"67.5 242.5 OFFCURVE",
"27 238.5 OFFCURVE",
"27 227.5 CURVE SMOOTH",
"27 218 OFFCURVE",
"32.5 208.5 OFFCURVE",
"32.5 161.5 CURVE SMOOTH",
"32.5 -81 LINE SMOOTH",
"32.5 -91 OFFCURVE",
"41 -96 OFFCURVE",
"60.5 -96 CURVE SMOOTH"
);
},
{
closed = 1;
nodes = (
"120 51 OFFCURVE",
"109 55.5 OFFCURVE",
"101.5 59.5 CURVE",
"101.5 163.5 LINE",
"110 178 OFFCURVE",
"122 191 OFFCURVE",
"140 191 CURVE SMOOTH",
"165.5 191 OFFCURVE",
"177.5 167 OFFCURVE",
"177.5 121.5 CURVE SMOOTH",
"177.5 75 OFFCURVE",
"163.5 51 OFFCURVE",
"134 51 CURVE SMOOTH"
);
}
);
width = 267;
}
);
unicode = 0070;
},
{
glyphname = thorn;
lastChange = "2015-01-14 23:02:33 +0000";
layers = (
{
layerId = "63CB2BE0-8E67-47A9-A148-3C9E8B72ABA2";
name = Regular;
paths = (
{
closed = 1;
nodes = (
"60 -97 LINE SMOOTH",
"73 -97 OFFCURVE",
"79 -93 OFFCURVE",
"79 -86.5 CURVE SMOOTH",
"79 21 LINE",
"97 7 OFFCURVE",
"116.5 -3 OFFCURVE",
"145.5 -3 CURVE SMOOTH",
"201 -3 OFFCURVE",
"240 41 OFFCURVE",
"240 121 CURVE SMOOTH",
"240 194.5 OFFCURVE",
"205.5 246.5 OFFCURVE",
"149.5 246.5 CURVE SMOOTH",
"124.5 246.5 OFFCURVE",
"100.5 236.5 OFFCURVE",
"79 215 CURVE",
"79 340 LINE SMOOTH",
"79 346.5 OFFCURVE",
"73 350.5 OFFCURVE",
"60 350.5 CURVE SMOOTH",
"58 350.5 LINE SMOOTH",
"45 350.5 OFFCURVE",
"39.5 346.5 OFFCURVE",
"39.5 340 CURVE SMOOTH",
"39.5 -86.5 LINE SMOOTH",
"39.5 -93 OFFCURVE",
"45 -97 OFFCURVE",
"58 -97 CURVE SMOOTH"
);
},
{
closed = 1;
nodes = (
"115 31.5 OFFCURVE",
"95.5 38.5 OFFCURVE",
"79 52.5 CURVE",
"79 180.5 LINE",
"98 201.5 OFFCURVE",
"121 212.5 OFFCURVE",
"141.5 212.5 CURVE SMOOTH",
"178.5 212.5 OFFCURVE",
"199 178.5 OFFCURVE",
"199 118.5 CURVE SMOOTH",
"199 63 OFFCURVE",
"178 32.5 OFFCURVE",
"136.5 31.5 CURVE SMOOTH"
);
}
);
width = 265.5;
},
{
layerId = "209CD697-34B5-4613-8FA2-E55A274D1785";
name = Bold;
paths = (
{
closed = 1;
nodes = (
"71.5 -96 LINE SMOOTH",
"91 -96 OFFCURVE",
"99.5 -91 OFFCURVE",
"99.5 -81 CURVE SMOOTH",
"99.5 10.5 LINE",
"109 3.5 OFFCURVE",
"125 -3.5 OFFCURVE",
"147 -3.5 CURVE SMOOTH",
"209.5 -3.5 OFFCURVE",
"245 45.5 OFFCURVE",
"245 121.5 CURVE SMOOTH",
"245 202.5 OFFCURVE",
"208.5 247.5 OFFCURVE",
"158 247.5 CURVE SMOOTH",
"132.5 247.5 OFFCURVE",
"111 236 OFFCURVE",
"99.5 219 CURVE",
"99.5 336.5 LINE SMOOTH",
"99.5 346 OFFCURVE",
"91 351.5 OFFCURVE",
"71.5 351.5 CURVE SMOOTH",
"58 351.5 LINE SMOOTH",
"38.5 351.5 OFFCURVE",
"30.5 346 OFFCURVE",
"30.5 336.5 CURVE SMOOTH",
"30.5 -81 LINE SMOOTH",
"30.5 -91 OFFCURVE",
"38.5 -96 OFFCURVE",
"58 -96 CURVE SMOOTH"
);
},
{
closed = 1;
nodes = (
"117.5 51 OFFCURVE",
"106.5 55.5 OFFCURVE",
"99.5 59.5 CURVE",
"99.5 163.5 LINE",
"107.5 178 OFFCURVE",
"120 191 OFFCURVE",
"137.5 191 CURVE SMOOTH",
"163 191 OFFCURVE",
"175 167 OFFCURVE",
"175 121.5 CURVE SMOOTH",
"175 75 OFFCURVE",
"161 51 OFFCURVE",
"132 51 CURVE SMOOTH"
);
}
);
width = 265.5;
}
);
unicode = 00FE;
},
{
glyphname = q;
lastChange = "2015-01-14 23:02:33 +0000";
layers = (
{
layerId = "63CB2BE0-8E67-47A9-A148-3C9E8B72ABA2";
name = Regular;
paths = (
{
closed = 1;
nodes = (
"206 -97 LINE SMOOTH",
"219 -97 OFFCURVE",
"224.5 -93 OFFCURVE",
"224.5 -86.5 CURVE SMOOTH",
"224.5 234.5 LINE SMOOTH",
"224.5 241 OFFCURVE",
"220.5 244.5 OFFCURVE",
"210.5 244.5 CURVE SMOOTH",
"209 244.5 LINE SMOOTH",
"202 244.5 OFFCURVE",
"198 243.5 OFFCURVE",
"196 239 CURVE SMOOTH",
"192.5 229.5 OFFCURVE",
"190.5 221 OFFCURVE",
"188.5 211.5 CURVE",
"166 235.5 OFFCURVE",
"141 246.5 OFFCURVE",
"114.5 246.5 CURVE SMOOTH",
"58.5 246.5 OFFCURVE",
"24 194.5 OFFCURVE",
"24 121 CURVE SMOOTH",
"24 41 OFFCURVE",
"63.5 -3 OFFCURVE",
"119 -3 CURVE SMOOTH",
"147.5 -3 OFFCURVE",
"167.5 7 OFFCURVE",
"185.5 21 CURVE",
"185.5 -86.5 LINE SMOOTH",
"185.5 -93 OFFCURVE",
"191 -97 OFFCURVE",
"204 -97 CURVE SMOOTH"
);
},
{
closed = 1;
nodes = (
"86 32.5 OFFCURVE",
"65 63 OFFCURVE",
"65 118.5 CURVE SMOOTH",
"65 178.5 OFFCURVE",
"85.5 212.5 OFFCURVE",
"122.5 212.5 CURVE SMOOTH",
"143 212.5 OFFCURVE",
"166.5 201.5 OFFCURVE",
"185.5 180.5 CURVE",
"185.5 52.5 LINE",
"168.5 38.5 OFFCURVE",
"149 31.5 OFFCURVE",
"127.5 31.5 CURVE SMOOTH"
);
}
);
width = 264;
},
{
layerId = "209CD697-34B5-4613-8FA2-E55A274D1785";
name = Bold;
paths = (
{
closed = 1;
nodes = (
"209 -96 LINE SMOOTH",
"228.5 -96 OFFCURVE",
"236.5 -91 OFFCURVE",
"236.5 -81 CURVE SMOOTH",
"236.5 229.5 LINE SMOOTH",
"236.5 239.5 OFFCURVE",
"228.5 244.5 OFFCURVE",
"209 244.5 CURVE SMOOTH",
"203 244.5 LINE SMOOTH",
"188.5 244.5 OFFCURVE",
"178.5 243 OFFCURVE",
"176 232.5 CURVE SMOOTH",
"174.5 226 OFFCURVE",
"173 219 OFFCURVE",
"171.5 212.5 CURVE",
"161 232.5 OFFCURVE",
"138 247.5 OFFCURVE",
"109 247.5 CURVE SMOOTH",
"57.5 247.5 OFFCURVE",
"19.5 202.5 OFFCURVE",
"19.5 121.5 CURVE SMOOTH",
"19.5 45.5 OFFCURVE",
"56 -3.5 OFFCURVE",
"120 -3.5 CURVE SMOOTH",
"142 -3.5 OFFCURVE",
"158 3.5 OFFCURVE",
"168 10.5 CURVE",
"168 -81 LINE SMOOTH",
"168 -91 OFFCURVE",
"176 -96 OFFCURVE",
"195.5 -96 CURVE SMOOTH"
);
},
{
closed = 1;
nodes = (
"104.5 51 OFFCURVE",
"89.5 75 OFFCURVE",
"89.5 121.5 CURVE SMOOTH",
"89.5 167 OFFCURVE",
"102.5 191 OFFCURVE",
"129.5 191 CURVE SMOOTH",
"147.5 191 OFFCURVE",
"159.5 178 OFFCURVE",
"168 163.5 CURVE",
"168 59.5 LINE",
"160.5 55.5 OFFCURVE",
"149.5 51 OFFCURVE",
"135 51 CURVE SMOOTH"
);
}
);
width = 264;
}
);
unicode = 0071;
},
{
glyphname = r;
lastChange = "2015-01-14 23:02:33 +0000";
layers = (
{
anchors = (
{
name = bottom;
position = "{62.5, -1}";
},
{
name = top;
position = "{61.5, 242.5}";
}
);
layerId = "63CB2BE0-8E67-47A9-A148-3C9E8B72ABA2";
name = Regular;
paths = (
{
closed = 1;
nodes = (
"62.5 -1 LINE SMOOTH",
"75.5 -1 OFFCURVE",
"81 3 OFFCURVE",
"81 9.5 CURVE SMOOTH",
"81 180 LINE",
"81 180 OFFCURVE",
"99.5 208.5 OFFCURVE",
"124 208.5 CURVE SMOOTH",
"140 208.5 OFFCURVE",
"143.5 203 OFFCURVE",
"149.5 203 CURVE SMOOTH",
"155 203 OFFCURVE",
"159 219.5 OFFCURVE",
"159 228.5 CURVE SMOOTH",
"159 238.5 OFFCURVE",
"150 246.5 OFFCURVE",
"132 246.5 CURVE SMOOTH",
"112.5 246.5 OFFCURVE",
"93.5 234 OFFCURVE",
"78 211.5 CURVE",
"75 223.5 OFFCURVE",
"72.5 242.5 OFFCURVE",
"61.5 242.5 CURVE SMOOTH",
"55.5 242.5 OFFCURVE",
"36.5 240.5 OFFCURVE",
"36.5 231.5 CURVE SMOOTH",
"36.5 229.5 OFFCURVE",
"42 211 OFFCURVE",
"42 173 CURVE SMOOTH",
"42 9.5 LINE SMOOTH",
"42 3 OFFCURVE",
"47.5 -1 OFFCURVE",
"60.5 -1 CURVE SMOOTH"
);
}
);
width = 170.5;
},
{
anchors = (
{
name = bottom;
position = "{70, -1}";
},
{
name = top;
position = "{62, 243.5}";
}
);
layerId = "209CD697-34B5-4613-8FA2-E55A274D1785";
name = Bold;
paths = (
{
closed = 1;
nodes = (
"70 -1 LINE SMOOTH",
"89.5 -1 OFFCURVE",
"98 4 OFFCURVE",
"98 14 CURVE SMOOTH",
"98 163.5 LINE",
"103.5 173 OFFCURVE",
"116 187 OFFCURVE",
"135 187 CURVE SMOOTH",
"144.5 187 OFFCURVE",
"150.5 183 OFFCURVE",
"157 183 CURVE SMOOTH",
"166.5 183 OFFCURVE",
"171.5 213.5 OFFCURVE",
"171.5 222.5 CURVE SMOOTH",
"171.5 231.5 OFFCURVE",
"168 247.5 OFFCURVE",
"145 247.5 CURVE SMOOTH",
"118 247.5 OFFCURVE",
"104 229.5 OFFCURVE",
"94 212 CURVE",
"91.5 223.5 OFFCURVE",
"90.5 242.5 OFFCURVE",
"75.5 242.5 CURVE SMOOTH",
"64 242.5 OFFCURVE",
"23.5 238.5 OFFCURVE",
"23.5 227.5 CURVE SMOOTH",
"23.5 218 OFFCURVE",
"29 208.5 OFFCURVE",
"29 161.5 CURVE SMOOTH",
"29 14 LINE SMOOTH",
"29 4 OFFCURVE",
"37.5 -1 OFFCURVE",
"57 -1 CURVE SMOOTH"
);
}
);
width = 170.5;
}
);
unicode = 0072;
},
{
glyphname = s;
lastChange = "2015-01-14 23:02:33 +0000";
layers = (
{
anchors = (
{
name = bottom;
position = "{96.5, 0}";
},
{
name = top;
position = "{96.5, 243.5}";
}
);
layerId = "63CB2BE0-8E67-47A9-A148-3C9E8B72ABA2";
name = Regular;
paths = (
{
closed = 1;
nodes = (
"136.5 -4 OFFCURVE",
"173 26.5 OFFCURVE",
"173 68.5 CURVE SMOOTH",
"173 111 OFFCURVE",
"155.5 126.5 OFFCURVE",
"98.5 144 CURVE SMOOTH",
"72 152 OFFCURVE",
"62 163.5 OFFCURVE",
"62 184.5 CURVE SMOOTH",
"62 202.5 OFFCURVE",
"80 214 OFFCURVE",
"103.5 214 CURVE SMOOTH",
"128.5 214 OFFCURVE",
"143.5 202 OFFCURVE",
"146 202 CURVE SMOOTH",
"152 202 OFFCURVE",
"161 219.5 OFFCURVE",
"161 227 CURVE SMOOTH",
"161 237 OFFCURVE",
"131 247 OFFCURVE",
"99.5 247 CURVE SMOOTH",
"54 247 OFFCURVE",
"22 218.5 OFFCURVE",
"22 179.5 CURVE SMOOTH",
"22 144.5 OFFCURVE",
"36.5 124.5 OFFCURVE",
"86.5 109.5 CURVE SMOOTH",
"121.5 99.5 OFFCURVE",
"133.5 88.5 OFFCURVE",
"133.5 67.5 CURVE SMOOTH",
"133.5 42 OFFCURVE",
"117.5 30 OFFCURVE",
"87.5 30 CURVE SMOOTH",
"54.5 30 OFFCURVE",
"36 48.5 OFFCURVE",
"32.5 48.5 CURVE SMOOTH",
"26 48.5 OFFCURVE",
"16.5 30.5 OFFCURVE",
"16.5 25 CURVE SMOOTH",
"16.5 14.5 OFFCURVE",
"48 -4 OFFCURVE",
"90.5 -4 CURVE SMOOTH"
);
}
);
width = 192.5;
},
{
anchors = (
{
name = bottom;
position = "{96.5, 0}";
},
{
name = top;
position = "{96.5, 243.5}";
}
);
layerId = "209CD697-34B5-4613-8FA2-E55A274D1785";
name = Bold;
paths = (
{
closed = 1;
nodes = (
"150 -3.5 OFFCURVE",
"183 28.5 OFFCURVE",
"183 76 CURVE SMOOTH",
"183 113 OFFCURVE",
"163.5 130 OFFCURVE",
"142.5 140.5 CURVE SMOOTH",
"118 152 OFFCURVE",
"90 156.5 OFFCURVE",
"90 177 CURVE SMOOTH",
"90 188.5 OFFCURVE",
"99.5 193.5 OFFCURVE",
"114.5 193.5 CURVE SMOOTH",
"136.5 193.5 OFFCURVE",
"149.5 183.5 OFFCURVE",
"154.5 183.5 CURVE SMOOTH",
"163.5 183.5 OFFCURVE",
"174.5 210 OFFCURVE",
"174.5 220.5 CURVE SMOOTH",
"174.5 240 OFFCURVE",
"132 247.5 OFFCURVE",
"105 247.5 CURVE SMOOTH",
"53 247.5 OFFCURVE",
"20 219.5 OFFCURVE",
"20 171 CURVE SMOOTH",
"20 124.5 OFFCURVE",
"50.5 110 OFFCURVE",
"73 101 CURVE SMOOTH",
"94 92.5 OFFCURVE",
"113 88 OFFCURVE",
"113 70.5 CURVE SMOOTH",
"113 58 OFFCURVE",
"104 51 OFFCURVE",
"86 51 CURVE SMOOTH",
"61.5 51 OFFCURVE",
"46 64 OFFCURVE",
"39 64 CURVE SMOOTH",
"30 64 OFFCURVE",
"14.5 40 OFFCURVE",
"14.5 28 CURVE SMOOTH",
"14.5 8 OFFCURVE",
"57 -3.5 OFFCURVE",
"92 -3.5 CURVE SMOOTH"
);
}
);
width = 192.5;
}
);
unicode = 0073;
},
{
glyphname = germandbls;
lastChange = "2015-01-14 23:02:33 +0000";
layers = (
{
layerId = "63CB2BE0-8E67-47A9-A148-3C9E8B72ABA2";
name = Regular;
paths = (
{
closed = 1;
nodes = (
"62.5 -1 LINE SMOOTH",
"75.5 -1 OFFCURVE",
"81 3 OFFCURVE",
"81 9.5 CURVE SMOOTH",
"81 243 LINE SMOOTH",
"81 275.5 OFFCURVE",
"101 295.5 OFFCURVE",
"133 295.5 CURVE SMOOTH",
"157.5 295.5 OFFCURVE",
"184.5 286 OFFCURVE",
"184.5 246 CURVE SMOOTH",
"184.5 216 OFFCURVE",
"157.5 192 OFFCURVE",
"129 192 CURVE SMOOTH",
"124.5 192 LINE SMOOTH",
"118 192 OFFCURVE",
"115 188 OFFCURVE",
"115 178 CURVE SMOOTH",
"115 172.5 LINE SMOOTH",
"115 162.5 OFFCURVE",
"118 158.5 OFFCURVE",
"124.5 158.5 CURVE SMOOTH",
"140 158.5 LINE SMOOTH",
"172.5 158.5 OFFCURVE",
"198.5 135 OFFCURVE",
"198.5 96 CURVE SMOOTH",
"198.5 56.5 OFFCURVE",
"172.5 33.5 OFFCURVE",
"140 33.5 CURVE SMOOTH",
"124.5 33.5 LINE SMOOTH",
"118 33.5 OFFCURVE",
"115 29.5 OFFCURVE",
"115 19.5 CURVE SMOOTH",
"115 14 LINE SMOOTH",
"115 4 OFFCURVE",
"118 0 OFFCURVE",
"124.5 0 CURVE SMOOTH",
"139.5 0 LINE SMOOTH",
"195 0 OFFCURVE",
"239.5 33.5 OFFCURVE",
"239.5 96 CURVE SMOOTH",
"239.5 136 OFFCURVE",
"218 169.5 OFFCURVE",
"178.5 179 CURVE",
"178.5 180.5 LINE",
"207 192.5 OFFCURVE",
"226 222.5 OFFCURVE",
"226 250 CURVE SMOOTH",
"226 309 OFFCURVE",
"184.5 329 OFFCURVE",
"133.5 329 CURVE SMOOTH",
"78.5 329 OFFCURVE",
"42 293.5 OFFCURVE",
"42 243 CURVE SMOOTH",
"42 9.5 LINE SMOOTH",
"42 3 OFFCURVE",
"47.5 -1 OFFCURVE",
"60.5 -1 CURVE SMOOTH"
);
}
);
width = 258;
},
{
layerId = "209CD697-34B5-4613-8FA2-E55A274D1785";
name = Bold;
paths = (
{
closed = 1;
nodes = (
"68 -1 LINE SMOOTH",
"87.5 -1 OFFCURVE",
"96 4 OFFCURVE",
"96 14 CURVE SMOOTH",
"96 234 LINE SMOOTH",
"96 256 OFFCURVE",
"110 271.5 OFFCURVE",
"133 271.5 CURVE SMOOTH",
"157.5 271.5 OFFCURVE",
"167 252 OFFCURVE",
"167 238 CURVE SMOOTH",
"167 216.5 OFFCURVE",
"152 199.5 OFFCURVE",
"128.5 199.5 CURVE",
"127 199.5 LINE",
"119 199.5 OFFCURVE",
"114.5 191.5 OFFCURVE",
"114.5 176 CURVE SMOOTH",
"114.5 168 LINE SMOOTH",
"114.5 152 OFFCURVE",
"119 145 OFFCURVE",
"128.5 145 CURVE",
"129.5 145 LINE",
"160.5 145 OFFCURVE",
"178.5 126 OFFCURVE",
"178.5 98 CURVE SMOOTH",
"178.5 72 OFFCURVE",
"161 54.5 OFFCURVE",
"135 54.5 CURVE SMOOTH",
"128.5 54.5 LINE SMOOTH",
"119 54.5 OFFCURVE",
"114.5 47.5 OFFCURVE",
"114.5 31 CURVE SMOOTH",
"114.5 23.5 LINE SMOOTH",
"114.5 7 OFFCURVE",
"119 0 OFFCURVE",
"128.5 0 CURVE SMOOTH",
"139.5 0 LINE SMOOTH",
"207 0 OFFCURVE",
"248.5 42 OFFCURVE",
"248.5 98 CURVE SMOOTH",
"248.5 138 OFFCURVE",
"232 163.5 OFFCURVE",
"193.5 178.5 CURVE",
"193.5 180.5 LINE",
"222 192 OFFCURVE",
"236.5 216 OFFCURVE",
"236.5 247 CURVE SMOOTH",
"236.5 298.5 OFFCURVE",
"192.5 330 OFFCURVE",
"133.5 330 CURVE SMOOTH",
"72 330 OFFCURVE",
"27 290.5 OFFCURVE",
"27 228.5 CURVE SMOOTH",
"27 14 LINE SMOOTH",
"27 4 OFFCURVE",
"35.5 -1 OFFCURVE",
"55 -1 CURVE SMOOTH"
);
}
);
width = 258;
}
);
unicode = 00DF;
},
{
glyphname = longs;
lastChange = "2015-01-14 23:02:33 +0000";
layers = (
{
layerId = "63CB2BE0-8E67-47A9-A148-3C9E8B72ABA2";
name = Regular;
paths = (
{
closed = 1;
nodes = (
"71 -1 LINE SMOOTH",
"84 -1 OFFCURVE",
"89.5 3 OFFCURVE",
"89.5 9.5 CURVE",
"89.5 284.5 LINE",
"89.5 315 OFFCURVE",
"101 318.5 OFFCURVE",
"114.5 318.5 CURVE SMOOTH",
"128 318.5 OFFCURVE",
"130.5 316.5 OFFCURVE",
"134.5 316.5 CURVE SMOOTH",
"141 316.5 OFFCURVE",
"144.5 334.5 OFFCURVE",
"144.5 338.5 CURVE SMOOTH",
"144.5 351 OFFCURVE",
"123 352.5 OFFCURVE",
"110.5 352.5 CURVE SMOOTH",
"87 352.5 OFFCURVE",
"50.5 343.5 OFFCURVE",
"50.5 288 CURVE SMOOTH",
"50.5 243.5 LINE",
"31.5 243.5 LINE SMOOTH",
"25 243.5 OFFCURVE",
"22.5 239.5 OFFCURVE",
"22.5 229.5 CURVE SMOOTH",
"22.5 224 LINE SMOOTH",
"22.5 214.5 OFFCURVE",
"25 210 OFFCURVE",
"31.5 210 CURVE SMOOTH",
"50.5 210 LINE",
"50.5 9.5 LINE SMOOTH",
"50.5 3 OFFCURVE",
"56 -1 OFFCURVE",
"69 -1 CURVE SMOOTH"
);
}
);
width = 151.5;
},
{
layerId = "209CD697-34B5-4613-8FA2-E55A274D1785";
name = Bold;
paths = (
{
closed = 1;
nodes = (
"78 -1 LINE SMOOTH",
"97.5 -1 OFFCURVE",
"106 4 OFFCURVE",
"106 14 CURVE",
"106 279.5 LINE",
"106 293.5 OFFCURVE",
"110.5 299.5 OFFCURVE",
"122.5 299.5 CURVE SMOOTH",
"127 299.5 OFFCURVE",
"133.5 298 OFFCURVE",
"137 298 CURVE SMOOTH",
"146.5 298 OFFCURVE",
"151.5 327.5 OFFCURVE",
"151.5 331.5 CURVE SMOOTH",
"151.5 353 OFFCURVE",
"120 354 OFFCURVE",
"105 354 CURVE SMOOTH",
"61 354 OFFCURVE",
"37 330.5 OFFCURVE",
"37 278.5 CURVE SMOOTH",
"37 243.5 LINE",
"28.5 243.5 LINE SMOOTH",
"18.5 243.5 OFFCURVE",
"14.5 236.5 OFFCURVE",
"14.5 220.5 CURVE SMOOTH",
"14.5 212.5 LINE SMOOTH",
"14.5 196 OFFCURVE",
"18.5 189 OFFCURVE",
"28.5 189 CURVE SMOOTH",
"37 189 LINE",
"37 14 LINE SMOOTH",
"37 4 OFFCURVE",
"45 -1 OFFCURVE",
"65 -1 CURVE SMOOTH"
);
}
);
width = 151.5;
}
);
unicode = 017F;
},
{
glyphname = t;
lastChange = "2015-01-14 23:02:33 +0000";
layers = (
{
anchors = (
{
name = bottom;
position = "{100.5, 0}";
},
{
name = caron;
position = "{86.5, 350.5}";
},
{
name = center;
position = "{79.5, 136}";
}
);
layerId = "63CB2BE0-8E67-47A9-A148-3C9E8B72ABA2";
name = Regular;
paths = (
{
closed = 1;
nodes = (
"122.5 -3 OFFCURVE",
"144 -1.5 OFFCURVE",
"144 11 CURVE SMOOTH",
"144 15 OFFCURVE",
"140.5 33 OFFCURVE",
"134 33 CURVE SMOOTH",
"130 33 OFFCURVE",
"127.5 31 OFFCURVE",
"114 31 CURVE SMOOTH",
"100.5 31 OFFCURVE",
"89 37.5 OFFCURVE",
"89 65 CURVE SMOOTH",
"89 210 LINE",
"128 210 LINE SMOOTH",
"134.5 210 OFFCURVE",
"137.5 214.5 OFFCURVE",
"137.5 224 CURVE SMOOTH",
"137.5 229.5 LINE SMOOTH",
"137.5 239.5 OFFCURVE",
"134.5 243.5 OFFCURVE",
"128 243.5 CURVE SMOOTH",
"89 243.5 LINE",
"89 292.5 LINE SMOOTH",
"89 299 OFFCURVE",
"85 303 OFFCURVE",
"75 303 CURVE SMOOTH",
"70.5 303 LINE SMOOTH",
"60.5 303 OFFCURVE",
"56 299 OFFCURVE",
"55.5 292.5 CURVE SMOOTH",
"50 243.5 LINE",
"26.5 243.5 LINE SMOOTH",
"20 243.5 OFFCURVE",
"17 239.5 OFFCURVE",
"17 229.5 CURVE SMOOTH",
"17 224 LINE SMOOTH",
"17 214.5 OFFCURVE",
"20 210 OFFCURVE",
"26.5 210 CURVE SMOOTH",
"50 210 LINE",
"50 61.5 LINE SMOOTH",
"50 7.5 OFFCURVE",
"86.5 -3 OFFCURVE",
"110 -3 CURVE SMOOTH"
);
}
);
width = 159.5;
},
{
anchors = (
{
name = bottom;
position = "{93.5, 0}";
},
{
name = caron;
position = "{98, 350.5}";
},
{
name = center;
position = "{79, 136}";
}
);
layerId = "209CD697-34B5-4613-8FA2-E55A274D1785";
name = Bold;
paths = (
{
closed = 1;
nodes = (
"118.5 -3.5 OFFCURVE",
"148.5 -2.5 OFFCURVE",
"148.5 19 CURVE SMOOTH",
"148.5 23 OFFCURVE",
"143.5 52.5 OFFCURVE",
"134 52.5 CURVE SMOOTH",
"131.5 52.5 OFFCURVE",
"126 51 OFFCURVE",
"121.5 51 CURVE SMOOTH",
"109.5 51 OFFCURVE",
"105 57 OFFCURVE",
"105 71 CURVE SMOOTH",
"105 189 LINE",
"127.5 189 LINE SMOOTH",
"137.5 189 OFFCURVE",
"141.5 196 OFFCURVE",
"141.5 212.5 CURVE SMOOTH",
"141.5 220.5 LINE SMOOTH",
"141.5 236.5 OFFCURVE",
"137.5 243.5 OFFCURVE",
"127.5 243.5 CURVE SMOOTH",
"105 243.5 LINE",
"105 288 LINE SMOOTH",
"105 298 OFFCURVE",
"98 303 OFFCURVE",
"81.5 303 CURVE SMOOTH",
"67 303 LINE SMOOTH",
"51.5 303 OFFCURVE",
"43.5 298 OFFCURVE",
"42 288 CURVE SMOOTH",
"36 243.5 LINE",
"28.5 243.5 LINE SMOOTH",
"18.5 243.5 OFFCURVE",
"14.5 236.5 OFFCURVE",
"14.5 220.5 CURVE SMOOTH",
"14.5 212.5 LINE SMOOTH",
"14.5 196 OFFCURVE",
"18.5 189 OFFCURVE",
"28.5 189 CURVE SMOOTH",
"36 189 LINE",
"36 72 LINE SMOOTH",
"36 20 OFFCURVE",
"60 -3.5 OFFCURVE",
"104 -3.5 CURVE SMOOTH"
);
}
);
width = 159.5;
}
);
unicode = 0074;
},
{
glyphname = u;
lastChange = "2015-01-14 23:02:33 +0000";
layers = (
{
anchors = (
{
name = bottom;
position = "{117, 0}";
},
{
name = horn;
position = "{199, 244.5}";
},
{
name = ogonek;
position = "{218, 4.5}";
},
{
name = top;
position = "{130, 243.5}";
}
);
hints = (
{
horizontal = 1;
origin = "{0, 38}";
target = "{0, 23}";
},
{
horizontal = 1;
origin = "{0, 31}";
target = down;
type = TopGhost;
},
{
horizontal = 1;
origin = "{0, 5}";
target = up;
type = BottomGhost;
},
{
origin = "{0, 35}";
target = "{0, 26}";
},
{
origin = "{0, 20}";
target = "{0, 11}";
}
);
layerId = "63CB2BE0-8E67-47A9-A148-3C9E8B72ABA2";
name = Regular;
paths = (
{
closed = 1;
nodes = (
"137 -3 OFFCURVE",
"164 10.5 OFFCURVE",
"183.5 32 CURVE",
"186.5 19 OFFCURVE",
"188.5 -0.5 OFFCURVE",
"200 -0.5 CURVE SMOOTH",
"206 -0.5 OFFCURVE",
"225 1.5 OFFCURVE",
"225 10.5 CURVE SMOOTH",
"225 12.5 OFFCURVE",
"219.5 31 OFFCURVE",
"219.5 69 CURVE SMOOTH",
"219.5 234.5 LINE SMOOTH",
"219.5 241 OFFCURVE",
"214 244.5 OFFCURVE",
"201 244.5 CURVE SMOOTH",
"199 244.5 LINE SMOOTH",
"186 244.5 OFFCURVE",
"180.5 241 OFFCURVE",
"180.5 234.5 CURVE SMOOTH",
"180.5 64 LINE",
"165 44 OFFCURVE",
"142.5 31 OFFCURVE",
"121.5 31 CURVE SMOOTH",
"91.5 31 OFFCURVE",
"74 48 OFFCURVE",
"74 76.5 CURVE SMOOTH",
"74 234.5 LINE SMOOTH",
"74 241 OFFCURVE",
"68.5 244.5 OFFCURVE",
"55.5 244.5 CURVE SMOOTH",
"53.5 244.5 LINE SMOOTH",
"40.5 244.5 OFFCURVE",
"35 241 OFFCURVE",
"35 234.5 CURVE SMOOTH",
"35 72.5 LINE SMOOTH",
"35 25.5 OFFCURVE",
"63.5 -3 OFFCURVE",
"111 -3 CURVE SMOOTH"
);
}
);
width = 259.5;
},
{
anchors = (
{
name = bottom;
position = "{117, 0}";
},
{
name = horn;
position = "{189.5, 244.5}";
},
{
name = ogonek;
position = "{211.5, 4.5}";
},
{
name = top;
position = "{130, 243.5}";
}
);
hints = (
{
horizontal = 1;
origin = "{0, 5}";
target = up;
type = BottomGhost;
},
{
horizontal = 1;
origin = "{0, 31}";
target = down;
type = TopGhost;
},
{
horizontal = 1;
origin = "{0, 38}";
target = "{0, 23}";
},
{
origin = "{0, 35}";
target = "{0, 26}";
},
{
origin = "{0, 20}";
target = "{0, 11}";
}
);
layerId = "209CD697-34B5-4613-8FA2-E55A274D1785";
name = Bold;
paths = (
{
closed = 1;
nodes = (
"126.5 -3.5 OFFCURVE",
"152 14 OFFCURVE",
"165.5 31.5 CURVE",
"168 19 OFFCURVE",
"169 -0.5 OFFCURVE",
"184 -0.5 CURVE SMOOTH",
"195.5 -0.5 OFFCURVE",
"236.5 3.5 OFFCURVE",
"236.5 14.5 CURVE SMOOTH",
"236.5 24 OFFCURVE",
"230.5 34 OFFCURVE",
"230.5 82 CURVE SMOOTH",
"230.5 229.5 LINE SMOOTH",
"230.5 239.5 OFFCURVE",
"222.5 244.5 OFFCURVE",
"202.5 244.5 CURVE SMOOTH",
"189.5 244.5 LINE SMOOTH",
"170 244.5 OFFCURVE",
"161.5 239.5 OFFCURVE",
"161.5 229.5 CURVE SMOOTH",
"161.5 80 LINE",
"156 69.5 OFFCURVE",
"143.5 53 OFFCURVE",
"124.5 53 CURVE SMOOTH",
"104 53 OFFCURVE",
"96.5 64 OFFCURVE",
"96.5 82 CURVE SMOOTH",
"96.5 229.5 LINE SMOOTH",
"96.5 239.5 OFFCURVE",
"88 244.5 OFFCURVE",
"68.5 244.5 CURVE SMOOTH",
"55.5 244.5 LINE SMOOTH",
"36 244.5 OFFCURVE",
"27.5 239.5 OFFCURVE",
"27.5 229.5 CURVE SMOOTH",
"27.5 72 LINE SMOOTH",
"27.5 20 OFFCURVE",
"49.5 -3.5 OFFCURVE",
"96 -3.5 CURVE SMOOTH"
);
}
);
width = 259.5;
}
);
unicode = 0075;
},
{
glyphname = v;
lastChange = "2015-01-14 23:02:33 +0000";
layers = (
{
layerId = "63CB2BE0-8E67-47A9-A148-3C9E8B72ABA2";
name = Regular;
paths = (
{
closed = 1;
nodes = (
"121 -1 LINE SMOOTH",
"130.5 -1 OFFCURVE",
"138 1 OFFCURVE",
"140 6.5 CURVE SMOOTH",
"215 230 LINE SMOOTH",
"216 233 OFFCURVE",
"216 235 OFFCURVE",
"216 236.5 CURVE SMOOTH",
"216 242 OFFCURVE",
"211 244.5 OFFCURVE",
"199 244.5 CURVE",
"197.5 244.5 LINE",
"188 244.5 OFFCURVE",
"180.5 243 OFFCURVE",
"178.5 237 CURVE SMOOTH",
"130.5 87.5 LINE SMOOTH",
"125 70 OFFCURVE",
"120 46 OFFCURVE",
"116.5 30.5 CURVE",
"114.5 30.5 LINE",
"110.5 46 OFFCURVE",
"104.5 70 OFFCURVE",
"98.5 88.5 CURVE SMOOTH",
"51 237 LINE SMOOTH",
"49 243 OFFCURVE",
"41.5 244.5 OFFCURVE",
"32 244.5 CURVE SMOOTH",
"30 244.5 LINE SMOOTH",
"16 244.5 OFFCURVE",
"10 241.5 OFFCURVE",
"10 236.5 CURVE SMOOTH",
"10 235 OFFCURVE",
"10.5 232 OFFCURVE",
"11 230.5 CURVE SMOOTH",
"86 6.5 LINE SMOOTH",
"88 1 OFFCURVE",
"95.5 -1 OFFCURVE",
"105 -1 CURVE SMOOTH"
);
}
);
width = 226;
},
{
layerId = "209CD697-34B5-4613-8FA2-E55A274D1785";
name = Bold;
paths = (
{
closed = 1;
nodes = (
"120 -1 LINE SMOOTH",
"133.5 -1 OFFCURVE",
"144 1.5 OFFCURVE",
"146.5 9 CURVE SMOOTH",
"220.5 226 LINE SMOOTH",
"221.5 229.5 OFFCURVE",
"222 232 OFFCURVE",
"222 234.5 CURVE SMOOTH",
"222 241 OFFCURVE",
"213.5 244.5 OFFCURVE",
"194 244.5 CURVE SMOOTH",
"182 244.5 LINE SMOOTH",
"168.5 244.5 OFFCURVE",
"158.5 242.5 OFFCURVE",
"156 235 CURVE SMOOTH",
"128.5 148.5 LINE SMOOTH",
"125.5 138 OFFCURVE",
"120 113 OFFCURVE",
"115.5 92.5 CURVE",
"113.5 92.5 LINE",
"109 113 OFFCURVE",
"104 137.5 OFFCURVE",
"100.5 148.5 CURVE SMOOTH",
"73 235 LINE SMOOTH",
"71 242.5 OFFCURVE",
"60.5 244.5 OFFCURVE",
"47 244.5 CURVE SMOOTH",
"31.5 244.5 LINE SMOOTH",
"12 244.5 OFFCURVE",
"3.5 241 OFFCURVE",
"3.5 234.5 CURVE SMOOTH",
"3.5 232 OFFCURVE",
"4 229.5 OFFCURVE",
"5 226 CURVE SMOOTH",
"79 9 LINE SMOOTH",
"81.5 1.5 OFFCURVE",
"92 -1 OFFCURVE",
"105.5 -1 CURVE SMOOTH"
);
}
);
width = 226;
}
);
leftKerningGroup = v;
rightKerningGroup = v;
unicode = 0076;
},
{
glyphname = w;
lastChange = "2015-01-14 23:02:33 +0000";
layers = (
{
anchors = (
{
name = top;
position = "{174.5, 243.5}";
}
);
layerId = "63CB2BE0-8E67-47A9-A148-3C9E8B72ABA2";
name = Regular;
paths = (
{
closed = 1;
nodes = (
"110.5 -1 LINE SMOOTH",
"120 -1 OFFCURVE",
"127.5 1 OFFCURVE",
"129 6.5 CURVE SMOOTH",
"167.5 154.5 LINE SMOOTH",
"170 165 OFFCURVE",
"172.5 178.5 OFFCURVE",
"174.5 190.5 CURVE",
"176 178.5 OFFCURVE",
"178.5 165 OFFCURVE",
"181.5 154 CURVE SMOOTH",
"218.5 6.5 LINE SMOOTH",
"220 1 OFFCURVE",
"227.5 -1 OFFCURVE",
"236.5 -1 CURVE SMOOTH",
"250.5 -1 LINE SMOOTH",
"260 -1 OFFCURVE",
"268 1 OFFCURVE",
"269.5 6.5 CURVE SMOOTH",
"332 230 LINE SMOOTH",
"332.5 233 OFFCURVE",
"333 235 OFFCURVE",
"333 236.5 CURVE SMOOTH",
"333 242 OFFCURVE",
"327 244.5 OFFCURVE",
"314.5 244.5 CURVE SMOOTH",
"305 244.5 OFFCURVE",
"297 243 OFFCURVE",
"295.5 237 CURVE SMOOTH",
"256.5 87.5 LINE SMOOTH",
"252.5 73 OFFCURVE",
"249 52 OFFCURVE",
"245.5 35.5 CURVE",
"242.5 52 OFFCURVE",
"241 62 OFFCURVE",
"234 88.5 CURVE SMOOTH",
"195 236.5 LINE SMOOTH",
"193 243 OFFCURVE",
"186 244.5 OFFCURVE",
"176.5 244.5 CURVE SMOOTH",
"173.5 244.5 LINE SMOOTH",
"164 244.5 OFFCURVE",
"156.5 243 OFFCURVE",
"155 236.5 CURVE SMOOTH",
"116.5 88.5 LINE SMOOTH",
"112.5 73.5 OFFCURVE",
"107.5 51.5 OFFCURVE",
"105 35 CURVE",
"101 52 OFFCURVE",
"96 77 OFFCURVE",
"93 88 CURVE SMOOTH",
"54 237 LINE SMOOTH",
"52.5 243 OFFCURVE",
"44.5 244.5 OFFCURVE",
"35.5 244.5 CURVE SMOOTH",
"20 244.5 OFFCURVE",
"14 241.5 OFFCURVE",
"14 236.5 CURVE SMOOTH",
"14 235 OFFCURVE",
"15.5 230 OFFCURVE",
"16.5 227.5 CURVE SMOOTH",
"78 6.5 LINE",
"79 1 OFFCURVE",
"87 -1 OFFCURVE",
"96.5 -1 CURVE SMOOTH"
);
}
);
width = 348;
},
{
anchors = (
{
name = top;
position = "{174.5, 243.5}";
}
);
layerId = "209CD697-34B5-4613-8FA2-E55A274D1785";
name = Bold;
paths = (
{
closed = 1;
nodes = (
"116.5 -1 LINE SMOOTH",
"129.5 -1 OFFCURVE",
"140.5 2.5 OFFCURVE",
"142 9 CURVE SMOOTH",
"168.5 119.5 LINE",
"170.5 126.5 OFFCURVE",
"172 133 OFFCURVE",
"174 140 CURVE",
"175.5 133.5 OFFCURVE",
"177 126.5 OFFCURVE",
"179 120 CURVE",
"207.5 9 LINE SMOOTH",
"209 2.5 OFFCURVE",
"218 -1 OFFCURVE",
"233 -1 CURVE SMOOTH",
"256 -1 LINE SMOOTH",
"269 -1 OFFCURVE",
"279.5 2.5 OFFCURVE",
"281.5 9 CURVE SMOOTH",
"336.5 225.5 LINE SMOOTH",
"337 228.5 OFFCURVE",
"337.5 230.5 OFFCURVE",
"337.5 232.5 CURVE SMOOTH",
"337.5 240 OFFCURVE",
"328.5 244.5 OFFCURVE",
"308.5 244.5 CURVE SMOOTH",
"291.5 244.5 OFFCURVE",
"283 241.5 OFFCURVE",
"281 235 CURVE SMOOTH",
"249 112 LINE",
"247 105 OFFCURVE",
"245 98.5 OFFCURVE",
"243.5 91.5 CURVE",
"242 98 OFFCURVE",
"240 104 OFFCURVE",
"238.5 110.5 CURVE",
"209 235 LINE SMOOTH",
"207.5 241.5 OFFCURVE",
"196 244.5 OFFCURVE",
"183 244.5 CURVE SMOOTH",
"172 244.5 LINE SMOOTH",
"157 244.5 OFFCURVE",
"147.5 241.5 OFFCURVE",
"146.5 235 CURVE SMOOTH",
"116.5 113 LINE",
"114.5 106 OFFCURVE",
"113 99 OFFCURVE",
"111 91.5 CURVE",
"109 98.5 OFFCURVE",
"107.5 105 OFFCURVE",
"106 112 CURVE",
"74 235 LINE SMOOTH",
"72 242 OFFCURVE",
"62.5 244.5 OFFCURVE",
"37.5 244.5 CURVE SMOOTH",
"17 244.5 OFFCURVE",
"8.5 240 OFFCURVE",
"8.5 232.5 CURVE SMOOTH",
"8.5 230.5 OFFCURVE",
"8.5 228.5 OFFCURVE",
"9.5 225.5 CURVE SMOOTH",
"68 9 LINE SMOOTH",
"70 2.5 OFFCURVE",
"78.5 -1 OFFCURVE",
"93.5 -1 CURVE SMOOTH"
);
}
);
width = 348;
}
);
leftKerningGroup = v;
rightKerningGroup = v;
unicode = 0077;
},
{
glyphname = x;
lastChange = "2015-01-14 23:02:33 +0000";
layers = (
{
layerId = "63CB2BE0-8E67-47A9-A148-3C9E8B72ABA2";
name = Regular;
paths = (
{
closed = 1;
nodes = (
"31 -1 LINE",
"40 -1 OFFCURVE",
"48 0.5 OFFCURVE",
"51.5 5.5 CURVE SMOOTH",
"102 80 LINE SMOOTH",
"107.5 88.5 OFFCURVE",
"110 93 OFFCURVE",
"112 96.5 CURVE",
"113.5 93 OFFCURVE",
"116 88.5 OFFCURVE",
"121.5 80 CURVE SMOOTH",
"171 6 LINE SMOOTH",
"174.5 0.5 OFFCURVE",
"181.5 -1 OFFCURVE",
"191 -1 CURVE SMOOTH",
"195.5 -1 LINE SMOOTH",
"211 -1 OFFCURVE",
"216.5 2 OFFCURVE",
"216.5 7 CURVE SMOOTH",
"216.5 9.5 OFFCURVE",
"215.5 12 OFFCURVE",
"213 15.5 CURVE SMOOTH",
"137.5 126 LINE",
"208 228.5 LINE SMOOTH",
"210 231.5 OFFCURVE",
"211.5 234.5 OFFCURVE",
"211.5 236.5 CURVE SMOOTH",
"211.5 242.5 OFFCURVE",
"206 244.5 OFFCURVE",
"192 244.5 CURVE",
"190 244.5 LINE",
"181 244.5 OFFCURVE",
"172.5 243.5 OFFCURVE",
"169 238 CURVE SMOOTH",
"124.5 171 LINE SMOOTH",
"119 162.5 OFFCURVE",
"116.5 158 OFFCURVE",
"114.5 154.5 CURVE",
"113 158 OFFCURVE",
"110.5 162.5 OFFCURVE",
"105 171 CURVE SMOOTH",
"60.5 237.5 LINE SMOOTH",
"57 243.5 OFFCURVE",
"50.5 244.5 OFFCURVE",
"40.5 244.5 CURVE SMOOTH",
"36.5 244.5 LINE SMOOTH",
"20.5 244.5 OFFCURVE",
"15 242 OFFCURVE",
"15 236.5 CURVE SMOOTH",
"15 234.5 OFFCURVE",
"16.5 231.5 OFFCURVE",
"18.5 228.5 CURVE SMOOTH",
"88.5 125 LINE",
"13 15.5 LINE SMOOTH",
"10.5 12 OFFCURVE",
"9.5 9.5 OFFCURVE",
"9.5 7 CURVE SMOOTH",
"9.5 1.5 OFFCURVE",
"15 -1 OFFCURVE",
"29.5 -1 CURVE"
);
}
);
width = 226;
},
{
layerId = "209CD697-34B5-4613-8FA2-E55A274D1785";
name = Bold;
paths = (
{
closed = 1;
nodes = (
"45.5 -1 LINE SMOOTH",
"59 -1 OFFCURVE",
"69 -0.5 OFFCURVE",
"74 8 CURVE SMOOTH",
"106.5 59 LINE SMOOTH",
"108.5 62.5 OFFCURVE",
"111 65.5 OFFCURVE",
"113 69 CURVE",
"114.5 65.5 OFFCURVE",
"117 62.5 OFFCURVE",
"119 59 CURVE SMOOTH",
"151 8 LINE SMOOTH",
"156 -0.5 OFFCURVE",
"166 -1 OFFCURVE",
"179.5 -1 CURVE SMOOTH",
"194.5 -1 LINE SMOOTH",
"214.5 -1 OFFCURVE",
"223.5 2.5 OFFCURVE",
"223.5 7.5 CURVE SMOOTH",
"223.5 10.5 OFFCURVE",
"222 14.5 OFFCURVE",
"218.5 19.5 CURVE SMOOTH",
"149.5 124 LINE",
"217.5 224.5 LINE SMOOTH",
"221 229.5 OFFCURVE",
"222.5 233.5 OFFCURVE",
"222.5 236.5 CURVE SMOOTH",
"222.5 241.5 OFFCURVE",
"213.5 244.5 OFFCURVE",
"193.5 244.5 CURVE SMOOTH",
"180 244.5 LINE SMOOTH",
"166.5 244.5 OFFCURVE",
"156.5 244 OFFCURVE",
"151.5 236 CURVE SMOOTH",
"122.5 190.5 LINE SMOOTH",
"120 186.5 OFFCURVE",
"117.5 182.5 OFFCURVE",
"114.5 178.5 CURVE",
"112.5 182 OFFCURVE",
"110 186 OFFCURVE",
"107.5 189.5 CURVE SMOOTH",
"79 236 LINE SMOOTH",
"74 244 OFFCURVE",
"64.5 244.5 OFFCURVE",
"51 244.5 CURVE SMOOTH",
"36 244.5 LINE SMOOTH",
"16 244.5 OFFCURVE",
"6.5 241.5 OFFCURVE",
"6.5 236.5 CURVE SMOOTH",
"6.5 233 OFFCURVE",
"8.5 229.5 OFFCURVE",
"11.5 224 CURVE SMOOTH",
"78 123.5 LINE",
"7.5 19 LINE SMOOTH",
"4 14 OFFCURVE",
"2.5 10.5 OFFCURVE",
"2.5 7.5 CURVE SMOOTH",
"2.5 2.5 OFFCURVE",
"11.5 -1 OFFCURVE",
"31.5 -1 CURVE SMOOTH"
);
}
);
width = 226;
}
);
unicode = 0078;
},
{
glyphname = y;
lastChange = "2015-01-14 23:02:33 +0000";
layers = (
{
anchors = (
{
name = bottom;
position = "{161, 0}";
},
{
name = top;
position = "{112.5, 243.5}";
}
);
layerId = "63CB2BE0-8E67-47A9-A148-3C9E8B72ABA2";
name = Regular;
paths = (
{
closed = 1;
nodes = (
"72 -97 LINE SMOOTH",
"83.5 -97 OFFCURVE",
"91.5 -94 OFFCURVE",
"94 -87 CURVE SMOOTH",
"214 230 LINE SMOOTH",
"215 233 OFFCURVE",
"215.5 235 OFFCURVE",
"215.5 236.5 CURVE SMOOTH",
"215.5 242 OFFCURVE",
"209.5 244.5 OFFCURVE",
"196.5 244.5 CURVE",
"195.5 244.5 LINE",
"185.5 244.5 OFFCURVE",
"178 243 OFFCURVE",
"176 237 CURVE SMOOTH",
"129.5 111 LINE SMOOTH",
"124 96.5 OFFCURVE",
"119 78.5 OFFCURVE",
"114 64 CURVE",
"113 64 LINE",
"109 79 OFFCURVE",
"104 95.5 OFFCURVE",
"98.5 111 CURVE SMOOTH",
"51 237 LINE SMOOTH",
"48.5 243 OFFCURVE",
"41.5 244.5 OFFCURVE",
"32 244.5 CURVE SMOOTH",
"28.5 244.5 LINE SMOOTH",
"14.5 244.5 OFFCURVE",
"8.5 241.5 OFFCURVE",
"8.5 236.5 CURVE SMOOTH",
"8.5 235 OFFCURVE",
"9.5 232 OFFCURVE",
"10 230.5 CURVE SMOOTH",
"91.5 13 LINE",
"52 -81.5 LINE",
"50 -87.5 OFFCURVE",
"50 -88.5 OFFCURVE",
"50 -89.5 CURVE SMOOTH",
"50 -94 OFFCURVE",
"55 -97 OFFCURVE",
"65 -97 CURVE SMOOTH"
);
}
);
width = 224;
},
{
anchors = (
{
name = bottom;
position = "{168, 0}";
},
{
name = top;
position = "{112.5, 243.5}";
}
);
layerId = "209CD697-34B5-4613-8FA2-E55A274D1785";
name = Bold;
paths = (
{
closed = 1;
nodes = (
"88 -96 LINE SMOOTH",
"101.5 -96 OFFCURVE",
"111.5 -93.5 OFFCURVE",
"114 -86 CURVE SMOOTH",
"221 226 LINE SMOOTH",
"222 229.5 OFFCURVE",
"222.5 232 OFFCURVE",
"222.5 234.5 CURVE SMOOTH",
"222.5 241 OFFCURVE",
"214 244.5 OFFCURVE",
"194.5 244.5 CURVE SMOOTH",
"183 244.5 LINE SMOOTH",
"169.5 244.5 OFFCURVE",
"159.5 242.5 OFFCURVE",
"157 235 CURVE SMOOTH",
"129.5 148.5 LINE SMOOTH",
"126.5 138.5 OFFCURVE",
"120.5 112.5 OFFCURVE",
"116.5 92.5 CURVE",
"114.5 92.5 LINE",
"110.5 112.5 OFFCURVE",
"105 138 OFFCURVE",
"101.5 148.5 CURVE SMOOTH",
"74 235 LINE SMOOTH",
"72 242.5 OFFCURVE",
"61.5 244.5 OFFCURVE",
"48 244.5 CURVE SMOOTH",
"33 244.5 LINE SMOOTH",
"13.5 244.5 OFFCURVE",
"4.5 241 OFFCURVE",
"4.5 234.5 CURVE SMOOTH",
"4.5 232 OFFCURVE",
"5.5 229.5 OFFCURVE",
"6.5 226 CURVE SMOOTH",
"83.5 0 LINE",
"54 -78 LINE SMOOTH",
"52.5 -81 OFFCURVE",
"52 -84 OFFCURVE",
"52 -86 CURVE SMOOTH",
"52 -92.5 OFFCURVE",
"61 -96 OFFCURVE",
"80 -96 CURVE SMOOTH"
);
}
);
width = 224;
}
);
rightKerningGroup = v;
unicode = 0079;
},
{
glyphname = z;
lastChange = "2015-01-14 23:02:33 +0000";
layers = (
{
anchors = (
{
name = bottom;
position = "{111, 0}";
},
{
name = top;
position = "{114, 243.5}";
}
);
layerId = "63CB2BE0-8E67-47A9-A148-3C9E8B72ABA2";
name = Regular;
paths = (
{
closed = 1;
nodes = (
"200 0 LINE SMOOTH",
"206.5 0 OFFCURVE",
"209 4 OFFCURVE",
"209 14 CURVE SMOOTH",
"209 19.5 LINE SMOOTH",
"209 29.5 OFFCURVE",
"206.5 33.5 OFFCURVE",
"200 33.5 CURVE SMOOTH",
"72 33.5 LINE",
"208 215 LINE SMOOTH",
"208.5 216 OFFCURVE",
"209 217 OFFCURVE",
"209 219.5 CURVE SMOOTH",
"209 228 OFFCURVE",
"204 243.5 OFFCURVE",
"199.5 243.5 CURVE SMOOTH",
"36 243.5 LINE SMOOTH",
"29.5 243.5 OFFCURVE",
"26.5 239.5 OFFCURVE",
"26.5 229.5 CURVE SMOOTH",
"26.5 224 LINE SMOOTH",
"26.5 214.5 OFFCURVE",
"29.5 210 OFFCURVE",
"36 210 CURVE SMOOTH",
"155 210 LINE",
"18.5 29 LINE SMOOTH",
"17.5 27.5 OFFCURVE",
"17 25.5 OFFCURVE",
"17 24 CURVE SMOOTH",
"17 14.5 OFFCURVE",
"24 0 OFFCURVE",
"27.5 0 CURVE"
);
}
);
width = 228;
},
{
anchors = (
{
name = bottom;
position = "{112.5, 0}";
},
{
name = top;
position = "{114, 243.5}";
}
);
layerId = "209CD697-34B5-4613-8FA2-E55A274D1785";
name = Bold;
paths = (
{
closed = 1;
nodes = (
"200.5 0 LINE SMOOTH",
"210 0 OFFCURVE",
"214.5 7 OFFCURVE",
"214.5 23.5 CURVE SMOOTH",
"214.5 31 LINE SMOOTH",
"214.5 47.5 OFFCURVE",
"210 54.5 OFFCURVE",
"200.5 54.5 CURVE SMOOTH",
"105 54.5 LINE",
"211 201 LINE SMOOTH",
"212 202 OFFCURVE",
"212.5 204.5 OFFCURVE",
"212.5 208 CURVE SMOOTH",
"212.5 221 OFFCURVE",
"204 243.5 OFFCURVE",
"199 243.5 CURVE SMOOTH",
"34 243.5 LINE SMOOTH",
"24 243.5 OFFCURVE",
"20 236.5 OFFCURVE",
"20 220.5 CURVE SMOOTH",
"20 212.5 LINE SMOOTH",
"20 196 OFFCURVE",
"24 189 OFFCURVE",
"34 189 CURVE SMOOTH",
"120.5 189 LINE",
"14 42 LINE SMOOTH",
"13 40.5 OFFCURVE",
"12.5 38 OFFCURVE",
"12.5 35.5 CURVE SMOOTH",
"12.5 23.5 OFFCURVE",
"20 0 OFFCURVE",
"26 0 CURVE"
);
}
);
width = 228;
}
);
unicode = 007A;
},
{
glyphname = y.loclGUA;
lastChange = "2015-01-14 23:02:33 +0000";
layers = (
{
anchors = (
{
name = bottom;
position = "{243, 0}";
},
{
name = top;
position = "{130, 243.5}";
}
);
layerId = "63CB2BE0-8E67-47A9-A148-3C9E8B72ABA2";
name = Regular;
paths = (
{
closed = 1;
nodes = (
"188 -99 OFFCURVE",
"219.5 -65 OFFCURVE",
"219.5 46 CURVE SMOOTH",
"219.5 234.5 LINE SMOOTH",
"219.5 241 OFFCURVE",
"214 244.5 OFFCURVE",
"201 244.5 CURVE SMOOTH",
"199 244.5 LINE SMOOTH",
"186 244.5 OFFCURVE",
"180.5 241 OFFCURVE",
"180.5 234.5 CURVE SMOOTH",
"180.5 64 LINE",
"165 44 OFFCURVE",
"142.5 31 OFFCURVE",
"121.5 31 CURVE SMOOTH",
"91.5 31 OFFCURVE",
"74 48 OFFCURVE",
"74 76.5 CURVE SMOOTH",
"74 234.5 LINE SMOOTH",
"74 241 OFFCURVE",
"68.5 244.5 OFFCURVE",
"55.5 244.5 CURVE SMOOTH",
"53.5 244.5 LINE SMOOTH",
"40.5 244.5 OFFCURVE",
"35 241 OFFCURVE",
"35 234.5 CURVE SMOOTH",
"35 72.5 LINE SMOOTH",
"35 25.5 OFFCURVE",
"63.5 -3 OFFCURVE",
"111 -3 CURVE SMOOTH",
"139.5 -3 OFFCURVE",
"169 13 OFFCURVE",
"188.5 38.5 CURVE",
"181 48.5 LINE",
"181 29 LINE",
"181 -38.5 OFFCURVE",
"158 -65 OFFCURVE",
"117.5 -65 CURVE SMOOTH",
"69 -65 OFFCURVE",
"47 -40 OFFCURVE",
"41.5 -40 CURVE SMOOTH",
"39.5 -40 OFFCURVE",
"37 -42 OFFCURVE",
"37 -54 CURVE SMOOTH",
"37 -57.5 OFFCURVE",
"37 -61 OFFCURVE",
"37.5 -65.5 CURVE SMOOTH",
"39 -79.5 OFFCURVE",
"73.5 -99 OFFCURVE",
"121 -99 CURVE SMOOTH"
);
}
);
width = 259.5;
},
{
anchors = (
{
name = bottom;
position = "{247.5, 0}";
},
{
name = top;
position = "{130, 243.5}";
}
);
layerId = "209CD697-34B5-4613-8FA2-E55A274D1785";
name = Bold;
paths = (
{
closed = 1;
nodes = (
"199.5 -99 OFFCURVE",
"231.5 -51.5 OFFCURVE",
"230.5 43.5 CURVE",
"230.5 229.5 LINE SMOOTH",
"230.5 239.5 OFFCURVE",
"222.5 244.5 OFFCURVE",
"202.5 244.5 CURVE SMOOTH",
"189.5 244.5 LINE SMOOTH",
"170 244.5 OFFCURVE",
"161.5 239.5 OFFCURVE",
"161.5 229.5 CURVE SMOOTH",
"161.5 80 LINE",
"156 69.5 OFFCURVE",
"143.5 53 OFFCURVE",
"124.5 53 CURVE SMOOTH",
"104 53 OFFCURVE",
"96.5 64 OFFCURVE",
"96.5 82 CURVE SMOOTH",
"96.5 229.5 LINE SMOOTH",
"96.5 239.5 OFFCURVE",
"88 244.5 OFFCURVE",
"68.5 244.5 CURVE SMOOTH",
"55.5 244.5 LINE SMOOTH",
"36 244.5 OFFCURVE",
"27.5 239.5 OFFCURVE",
"27.5 229.5 CURVE SMOOTH",
"27.5 72 LINE SMOOTH",
"27.5 20 OFFCURVE",
"49.5 -3.5 OFFCURVE",
"96 -3.5 CURVE SMOOTH",
"134 -3.5 OFFCURVE",
"165 24 OFFCURVE",
"173.5 45 CURVE",
"165.5 63 LINE",
"165.5 15.5 LINE SMOOTH",
"165.5 -23 OFFCURVE",
"143 -44.5 OFFCURVE",
"107 -44.5 CURVE SMOOTH",
"71 -44.5 OFFCURVE",
"47.5 -25 OFFCURVE",
"42 -25 CURVE SMOOTH",
"38.5 -25 OFFCURVE",
"36 -30 OFFCURVE",
"36 -44 CURVE SMOOTH",
"36 -49.5 OFFCURVE",
"36.5 -57 OFFCURVE",
"37.5 -65.5 CURVE SMOOTH",
"39 -85.5 OFFCURVE",
"79 -99 OFFCURVE",
"127 -99 CURVE SMOOTH"
);
}
);
width = 259.5;
}
);
},
{
glyphname = g.ss01;
lastChange = "2015-01-14 23:02:33 +0000";
layers = (
{
anchors = (
{
name = top;
position = "{121, 243.5}";
}
);
layerId = "63CB2BE0-8E67-47A9-A148-3C9E8B72ABA2";
name = Regular;
paths = (
{
closed = 1;
nodes = (
"184 -99 OFFCURVE",
"216 -65 OFFCURVE",
"216 46 CURVE SMOOTH",
"216 235 LINE",
"215.5 241 OFFCURVE",
"212.5 244.5 OFFCURVE",
"203 244.5 CURVE SMOOTH",
"200.5 244.5 LINE SMOOTH",
"187.5 244.5 OFFCURVE",
"185.5 235 OFFCURVE",
"182 221.5 CURVE",
"170.5 231 OFFCURVE",
"147.5 246.5 OFFCURVE",
"118 246.5 CURVE SMOOTH",
"54 246.5 OFFCURVE",
"16 196 OFFCURVE",
"16 122.5 CURVE SMOOTH",
"16 65 OFFCURVE",
"41 0 OFFCURVE",
"107.5 0 CURVE SMOOTH",
"139.5 0 OFFCURVE",
"168 17.5 OFFCURVE",
"182.5 65 CURVE",
"177 71 LINE",
"177 39 LINE",
"177 -36 OFFCURVE",
"156.5 -65 OFFCURVE",
"113.5 -65 CURVE SMOOTH",
"65 -65 OFFCURVE",
"43.5 -40 OFFCURVE",
"37.5 -40 CURVE SMOOTH",
"36 -40 OFFCURVE",
"33 -42 OFFCURVE",
"33 -54 CURVE SMOOTH",
"33 -57.5 OFFCURVE",
"33 -61 OFFCURVE",
"33.5 -65.5 CURVE SMOOTH",
"35.5 -79.5 OFFCURVE",
"70 -99 OFFCURVE",
"117.5 -99 CURVE SMOOTH"
);
},
{
closed = 1;
nodes = (
"66.5 34 OFFCURVE",
"56 81.5 OFFCURVE",
"56 127 CURVE SMOOTH",
"56 173 OFFCURVE",
"72 212.5 OFFCURVE",
"125.5 212.5 CURVE SMOOTH",
"149.5 212.5 OFFCURVE",
"168 201.5 OFFCURVE",
"178 194.5 CURVE",
"177.5 187 OFFCURVE",
"176.5 179.5 OFFCURVE",
"176.5 171 CURVE",
"176.5 113.5 LINE",
"163.5 51.5 OFFCURVE",
"133.5 34 OFFCURVE",
"113 34 CURVE SMOOTH"
);
}
);
width = 254.5;
},
{
anchors = (
{
name = top;
position = "{117, 243.5}";
}
);
layerId = "209CD697-34B5-4613-8FA2-E55A274D1785";
name = Bold;
paths = (
{
closed = 1;
nodes = (
"195 -99 OFFCURVE",
"225.5 -51.5 OFFCURVE",
"225.5 43.5 CURVE SMOOTH",
"225.5 233 LINE",
"225 240.5 OFFCURVE",
"216 244.5 OFFCURVE",
"197 244.5 CURVE SMOOTH",
"191.5 244.5 LINE SMOOTH",
"168 244 OFFCURVE",
"167 239.5 OFFCURVE",
"163 223 CURVE",
"152.5 232.5 OFFCURVE",
"131 247.5 OFFCURVE",
"105 247.5 CURVE SMOOTH",
"47.5 247.5 OFFCURVE",
"10.5 199 OFFCURVE",
"10.5 125 CURVE SMOOTH",
"10.5 75.5 OFFCURVE",
"28.5 2 OFFCURVE",
"102.5 2 CURVE SMOOTH",
"133.5 2 OFFCURVE",
"157 22.5 OFFCURVE",
"165.5 46 CURVE",
"156.5 60.5 LINE",
"156.5 15.5 LINE SMOOTH",
"157 -23 OFFCURVE",
"138.5 -44.5 OFFCURVE",
"102.5 -44.5 CURVE SMOOTH",
"66 -44.5 OFFCURVE",
"43 -25 OFFCURVE",
"37.5 -25 CURVE SMOOTH",
"34 -25 OFFCURVE",
"31 -30 OFFCURVE",
"31 -44 CURVE SMOOTH",
"31 -49.5 OFFCURVE",
"31.5 -57 OFFCURVE",
"32.5 -65.5 CURVE SMOOTH",
"34.5 -85.5 OFFCURVE",
"74 -99 OFFCURVE",
"122 -99 CURVE SMOOTH"
);
},
{
closed = 1;
nodes = (
"86 58 OFFCURVE",
"80 94 OFFCURVE",
"80 125.5 CURVE SMOOTH",
"80 169.5 OFFCURVE",
"97 193 OFFCURVE",
"126.5 193 CURVE SMOOTH",
"139 193 OFFCURVE",
"149.5 187.5 OFFCURVE",
"158 181 CURVE",
"157.5 175 OFFCURVE",
"156.5 164.5 OFFCURVE",
"156.5 151.5 CURVE",
"156.5 85.5 LINE",
"148.5 71 OFFCURVE",
"138 58 OFFCURVE",
"123 58 CURVE SMOOTH"
);
}
);
width = 254.5;
}
);
},
{
glyphname = fi;
lastChange = "2015-01-14 23:02:33 +0000";
layers = (
{
layerId = "63CB2BE0-8E67-47A9-A148-3C9E8B72ABA2";
name = Regular;
paths = (
{
closed = 1;
nodes = (
"71 -1 LINE SMOOTH",
"84 -1 OFFCURVE",
"89.5 3 OFFCURVE",
"89.5 9.5 CURVE SMOOTH",
"89.5 210 LINE",
"130 210 LINE SMOOTH",
"136.5 210 OFFCURVE",
"139.5 214.5 OFFCURVE",
"139.5 224 CURVE SMOOTH",
"139.5 229.5 LINE SMOOTH",
"139.5 239.5 OFFCURVE",
"136.5 243.5 OFFCURVE",
"130 243.5 CURVE SMOOTH",
"89.5 243.5 LINE",
"89.5 284.5 LINE SMOOTH",
"89.5 315 OFFCURVE",
"101 318.5 OFFCURVE",
"114.5 318.5 CURVE SMOOTH",
"128 318.5 OFFCURVE",
"130.5 316.5 OFFCURVE",
"134.5 316.5 CURVE SMOOTH",
"141 316.5 OFFCURVE",
"144.5 334.5 OFFCURVE",
"144.5 338.5 CURVE SMOOTH",
"144.5 351 OFFCURVE",
"123 352.5 OFFCURVE",
"110.5 352.5 CURVE SMOOTH",
"87 352.5 OFFCURVE",
"50.5 343.5 OFFCURVE",
"50.5 288 CURVE SMOOTH",
"50.5 243.5 LINE",
"31.5 243.5 LINE SMOOTH",
"25 243.5 OFFCURVE",
"22.5 239.5 OFFCURVE",
"22.5 229.5 CURVE SMOOTH",
"22.5 224 LINE SMOOTH",
"22.5 214.5 OFFCURVE",
"25 210 OFFCURVE",
"31.5 210 CURVE SMOOTH",
"50.5 210 LINE",
"50.5 9.5 LINE SMOOTH",
"50.5 3 OFFCURVE",
"56 -1 OFFCURVE",
"69 -1 CURVE SMOOTH"
);
},
{
closed = 1;
nodes = (
"202 -1 LINE SMOOTH",
"215 -1 OFFCURVE",
"220.5 3 OFFCURVE",
"220.5 9.5 CURVE SMOOTH",
"220.5 234.5 LINE SMOOTH",
"220.5 241 OFFCURVE",
"215 244.5 OFFCURVE",
"202 244.5 CURVE SMOOTH",
"200 244.5 LINE SMOOTH",
"187 244.5 OFFCURVE",
"181.5 241 OFFCURVE",
"181.5 234.5 CURVE SMOOTH",
"181.5 9.5 LINE SMOOTH",
"181.5 3 OFFCURVE",
"187 -1 OFFCURVE",
"200 -1 CURVE SMOOTH"
);
},
{
closed = 1;
nodes = (
"203.5 302.5 LINE SMOOTH",
"216.5 302.5 OFFCURVE",
"222.5 306 OFFCURVE",
"222.5 312.5 CURVE SMOOTH",
"222.5 340 LINE SMOOTH",
"222.5 346.5 OFFCURVE",
"216.5 350.5 OFFCURVE",
"203.5 350.5 CURVE SMOOTH",
"198 350.5 LINE SMOOTH",
"185 350.5 OFFCURVE",
"179.5 346.5 OFFCURVE",
"179.5 340 CURVE SMOOTH",
"179.5 312.5 LINE SMOOTH",
"179.5 306 OFFCURVE",
"185 302.5 OFFCURVE",
"198 302.5 CURVE"
);
}
);
width = 262.5;
},
{
layerId = "209CD697-34B5-4613-8FA2-E55A274D1785";
name = Bold;
paths = (
{
closed = 1;
nodes = (
"71.5 -1 LINE SMOOTH",
"91 -1 OFFCURVE",
"99.5 4 OFFCURVE",
"99.5 14 CURVE SMOOTH",
"99.5 189 LINE",
"122.5 189 LINE SMOOTH",
"132.5 189 OFFCURVE",
"136.5 196 OFFCURVE",
"136.5 212.5 CURVE SMOOTH",
"136.5 220.5 LINE SMOOTH",
"136.5 236.5 OFFCURVE",
"132.5 243.5 OFFCURVE",
"122.5 243.5 CURVE SMOOTH",
"99.5 243.5 LINE",
"99.5 279.5 LINE SMOOTH",
"99.5 293.5 OFFCURVE",
"104 299.5 OFFCURVE",
"116 299.5 CURVE SMOOTH",
"120.5 299.5 OFFCURVE",
"127 298 OFFCURVE",
"130.5 298 CURVE SMOOTH",
"140 298 OFFCURVE",
"145 327.5 OFFCURVE",
"145 331.5 CURVE SMOOTH",
"145 353 OFFCURVE",
"113 354 OFFCURVE",
"98.5 354 CURVE SMOOTH",
"54.5 354 OFFCURVE",
"30.5 330.5 OFFCURVE",
"30.5 278.5 CURVE SMOOTH",
"30.5 243.5 LINE",
"22 243.5 LINE SMOOTH",
"12 243.5 OFFCURVE",
"8 236.5 OFFCURVE",
"8 220.5 CURVE SMOOTH",
"8 212.5 LINE SMOOTH",
"8 196 OFFCURVE",
"12 189 OFFCURVE",
"22 189 CURVE SMOOTH",
"30.5 189 LINE",
"30.5 14 LINE SMOOTH",
"30.5 4 OFFCURVE",
"38.5 -1 OFFCURVE",
"58 -1 CURVE SMOOTH"
);
},
{
closed = 1;
nodes = (
"207.5 -1 LINE SMOOTH",
"227 -1 OFFCURVE",
"235.5 4 OFFCURVE",
"235.5 14 CURVE SMOOTH",
"235.5 229.5 LINE SMOOTH",
"235.5 239.5 OFFCURVE",
"227 244.5 OFFCURVE",
"207.5 244.5 CURVE SMOOTH",
"194.5 244.5 LINE SMOOTH",
"174.5 244.5 OFFCURVE",
"166.5 239.5 OFFCURVE",
"166.5 229.5 CURVE SMOOTH",
"166.5 14 LINE SMOOTH",
"166.5 4 OFFCURVE",
"174.5 -1 OFFCURVE",
"194.5 -1 CURVE SMOOTH"
);
},
{
closed = 1;
nodes = (
"207.5 284 LINE SMOOTH",
"227 284 OFFCURVE",
"235.5 289 OFFCURVE",
"235.5 298.5 CURVE SMOOTH",
"235.5 336.5 LINE SMOOTH",
"235.5 346 OFFCURVE",
"227 351.5 OFFCURVE",
"207.5 351.5 CURVE SMOOTH",
"194.5 351.5 LINE SMOOTH",
"174.5 351.5 OFFCURVE",
"166.5 346 OFFCURVE",
"166.5 336.5 CURVE SMOOTH",
"166.5 298.5 LINE SMOOTH",
"166.5 289 OFFCURVE",
"174.5 284 OFFCURVE",
"194.5 284 CURVE"
);
}
);
width = 262.5;
}
);
unicode = FB01;
},
{
glyphname = fl;
lastChange = "2015-01-14 23:02:33 +0000";
layers = (
{
layerId = "63CB2BE0-8E67-47A9-A148-3C9E8B72ABA2";
name = Regular;
paths = (
{
closed = 1;
nodes = (
"71 -1 LINE SMOOTH",
"84 -1 OFFCURVE",
"89.5 3 OFFCURVE",
"89.5 9.5 CURVE SMOOTH",
"89.5 210 LINE",
"130 210 LINE SMOOTH",
"136.5 210 OFFCURVE",
"139.5 214.5 OFFCURVE",
"139.5 224 CURVE SMOOTH",
"139.5 229.5 LINE SMOOTH",
"139.5 239.5 OFFCURVE",
"136.5 243.5 OFFCURVE",
"130 243.5 CURVE SMOOTH",
"89.5 243.5 LINE",
"89.5 284.5 LINE SMOOTH",
"89.5 315 OFFCURVE",
"101 318.5 OFFCURVE",
"114.5 318.5 CURVE SMOOTH",
"128 318.5 OFFCURVE",
"130.5 316.5 OFFCURVE",
"134.5 316.5 CURVE SMOOTH",
"141 316.5 OFFCURVE",
"144.5 334.5 OFFCURVE",
"144.5 338.5 CURVE SMOOTH",
"144.5 351 OFFCURVE",
"123 352.5 OFFCURVE",
"110.5 352.5 CURVE SMOOTH",
"87 352.5 OFFCURVE",
"50.5 343.5 OFFCURVE",
"50.5 288 CURVE SMOOTH",
"50.5 243.5 LINE",
"31.5 243.5 LINE SMOOTH",
"25 243.5 OFFCURVE",
"22.5 239.5 OFFCURVE",
"22.5 229.5 CURVE SMOOTH",
"22.5 224 LINE SMOOTH",
"22.5 214.5 OFFCURVE",
"25 210 OFFCURVE",
"31.5 210 CURVE SMOOTH",
"50.5 210 LINE",
"50.5 9.5 LINE SMOOTH",
"50.5 3 OFFCURVE",
"56 -1 OFFCURVE",
"69 -1 CURVE SMOOTH"
);
},
{
closed = 1;
nodes = (
"250 -3 OFFCURVE",
"271 -1.5 OFFCURVE",
"271 11 CURVE SMOOTH",
"271 15 OFFCURVE",
"268 33 OFFCURVE",
"261.5 33 CURVE SMOOTH",
"257 33 OFFCURVE",
"255 31 OFFCURVE",
"241.5 31 CURVE SMOOTH",
"228 31 OFFCURVE",
"216 37.5 OFFCURVE",
"216 65 CURVE SMOOTH",
"216 340 LINE SMOOTH",
"216 346.5 OFFCURVE",
"210.5 350.5 OFFCURVE",
"197.5 350.5 CURVE SMOOTH",
"195.5 350.5 LINE SMOOTH",
"182.5 350.5 OFFCURVE",
"177 346.5 OFFCURVE",
"177 340 CURVE SMOOTH",
"177 61.5 LINE SMOOTH",
"177 7.5 OFFCURVE",
"214 -3 OFFCURVE",
"237 -3 CURVE SMOOTH"
);
}
);
width = 275.5;
},
{
layerId = "209CD697-34B5-4613-8FA2-E55A274D1785";
name = Bold;
paths = (
{
closed = 1;
nodes = (
"71.5 -1 LINE SMOOTH",
"91 -1 OFFCURVE",
"99.5 4 OFFCURVE",
"99.5 14 CURVE SMOOTH",
"99.5 189 LINE",
"122.5 189 LINE SMOOTH",
"132.5 189 OFFCURVE",
"136.5 196 OFFCURVE",
"136.5 212.5 CURVE SMOOTH",
"136.5 220.5 LINE SMOOTH",
"136.5 236.5 OFFCURVE",
"132.5 243.5 OFFCURVE",
"122.5 243.5 CURVE SMOOTH",
"99.5 243.5 LINE",
"99.5 279.5 LINE SMOOTH",
"99.5 293.5 OFFCURVE",
"104 299.5 OFFCURVE",
"116 299.5 CURVE SMOOTH",
"120.5 299.5 OFFCURVE",
"127 298 OFFCURVE",
"130.5 298 CURVE SMOOTH",
"140 298 OFFCURVE",
"145 327.5 OFFCURVE",
"145 331.5 CURVE SMOOTH",
"145 353 OFFCURVE",
"113 354 OFFCURVE",
"98.5 354 CURVE SMOOTH",
"54.5 354 OFFCURVE",
"30.5 330.5 OFFCURVE",
"30.5 278.5 CURVE SMOOTH",
"30.5 243.5 LINE",
"22 243.5 LINE SMOOTH",
"12 243.5 OFFCURVE",
"8 236.5 OFFCURVE",
"8 220.5 CURVE SMOOTH",
"8 212.5 LINE SMOOTH",
"8 196 OFFCURVE",
"12 189 OFFCURVE",
"22 189 CURVE SMOOTH",
"30.5 189 LINE",
"30.5 14 LINE SMOOTH",
"30.5 4 OFFCURVE",
"38.5 -1 OFFCURVE",
"58 -1 CURVE SMOOTH"
);
},
{
closed = 1;
nodes = (
"249 -3.5 OFFCURVE",
"279 -2.5 OFFCURVE",
"279 19 CURVE SMOOTH",
"279 23 OFFCURVE",
"274 52.5 OFFCURVE",
"264.5 52.5 CURVE SMOOTH",
"262 52.5 OFFCURVE",
"256.5 51 OFFCURVE",
"252 51 CURVE SMOOTH",
"240 51 OFFCURVE",
"235.5 57 OFFCURVE",
"235.5 71 CURVE SMOOTH",
"235.5 336.5 LINE SMOOTH",
"235.5 346 OFFCURVE",
"227 351.5 OFFCURVE",
"207.5 351.5 CURVE SMOOTH",
"194.5 351.5 LINE SMOOTH",
"174.5 351.5 OFFCURVE",
"166.5 346 OFFCURVE",
"166.5 336.5 CURVE SMOOTH",
"166.5 72 LINE SMOOTH",
"166.5 20 OFFCURVE",
"190.5 -3.5 OFFCURVE",
"234.5 -3.5 CURVE SMOOTH"
);
}
);
width = 275.5;
}
);
unicode = FB02;
},
{
glyphname = ordfeminine;
lastChange = "2015-01-14 23:02:33 +0000";
layers = (
{
layerId = "63CB2BE0-8E67-47A9-A148-3C9E8B72ABA2";
name = Regular;
paths = (
{
closed = 1;
nodes = (
"78 205.5 OFFCURVE",
"90.5 213.5 OFFCURVE",
"99.5 223 CURVE",
"100 216.5 OFFCURVE",
"101.5 207 OFFCURVE",
"107 207 CURVE SMOOTH",
"110 207 OFFCURVE",
"120 208 OFFCURVE",
"120 212 CURVE SMOOTH",
"120 213.5 OFFCURVE",
"117 222.5 OFFCURVE",
"117 241 CURVE SMOOTH",
"117 292.5 LINE SMOOTH",
"117 315.5 OFFCURVE",
"99.5 329 OFFCURVE",
"71.5 329 CURVE SMOOTH",
"48.5 329 OFFCURVE",
"28 320 OFFCURVE",
"28 314 CURVE SMOOTH",
"28 311.5 OFFCURVE",
"33 303 OFFCURVE",
"36.5 303 CURVE SMOOTH",
"38.5 303 OFFCURVE",
"51.5 312 OFFCURVE",
"72 312 CURVE SMOOTH",
"91.5 312 OFFCURVE",
"98 303.5 OFFCURVE",
"98 293 CURVE SMOOTH",
"98 282 LINE",
"62 281.5 OFFCURVE",
"21 279 OFFCURVE",
"21 240 CURVE SMOOTH",
"21 216.5 OFFCURVE",
"38 205.5 OFFCURVE",
"60 205.5 CURVE SMOOTH"
);
},
{
closed = 1;
nodes = (
"48.5 222.5 OFFCURVE",
"42 229 OFFCURVE",
"42 241.5 CURVE SMOOTH",
"42 265.5 OFFCURVE",
"73.5 265.5 OFFCURVE",
"98 265.5 CURVE",
"98 238 LINE",
"88.5 229.5 OFFCURVE",
"78.5 222.5 OFFCURVE",
"61 222.5 CURVE SMOOTH"
);
}
);
width = 148.5;
},
{
layerId = "209CD697-34B5-4613-8FA2-E55A274D1785";
name = Bold;
paths = (
{
closed = 1;
nodes = (
"75 205 OFFCURVE",
"86.5 219.5 OFFCURVE",
"88 222.5 CURVE",
"89.5 216 OFFCURVE",
"90 206.5 OFFCURVE",
"97 206.5 CURVE SMOOTH",
"103 206.5 OFFCURVE",
"123 208.5 OFFCURVE",
"123 214.5 CURVE SMOOTH",
"123 218.5 OFFCURVE",
"120 223.5 OFFCURVE",
"120 247.5 CURVE SMOOTH",
"120 291 LINE SMOOTH",
"120 313.5 OFFCURVE",
"107 330 OFFCURVE",
"71 330 CURVE SMOOTH",
"44.5 330 OFFCURVE",
"26.5 321.5 OFFCURVE",
"26.5 314 CURVE SMOOTH",
"26.5 309 OFFCURVE",
"33.5 295.5 OFFCURVE",
"38 295.5 CURVE SMOOTH",
"41 295.5 OFFCURVE",
"51 302.5 OFFCURVE",
"68 302.5 CURVE SMOOTH",
"80.5 302.5 OFFCURVE",
"86 298.5 OFFCURVE",
"86 289.5 CURVE SMOOTH",
"86 282 LINE",
"27.5 282 OFFCURVE",
"19.5 257.5 OFFCURVE",
"19.5 238.5 CURVE SMOOTH",
"19.5 219.5 OFFCURVE",
"29 205 OFFCURVE",
"53.5 205 CURVE SMOOTH"
);
},
{
closed = 1;
nodes = (
"57.5 232 OFFCURVE",
"53.5 236.5 OFFCURVE",
"53.5 242.5 CURVE SMOOTH",
"53.5 253.5 OFFCURVE",
"64.5 259 OFFCURVE",
"86 259 CURVE",
"86 246.5 LINE",
"82.5 238 OFFCURVE",
"74 232 OFFCURVE",
"65 232 CURVE SMOOTH"
);
}
);
width = 148.5;
}
);
unicode = 00AA;
},
{
glyphname = ordmasculine;
lastChange = "2015-01-14 23:02:33 +0000";
layers = (
{
layerId = "63CB2BE0-8E67-47A9-A148-3C9E8B72ABA2";
name = Regular;
paths = (
{
closed = 1;
nodes = (
"113 205.5 OFFCURVE",
"131.5 227 OFFCURVE",
"131.5 266.5 CURVE SMOOTH",
"131.5 307 OFFCURVE",
"113 329 OFFCURVE",
"79 329 CURVE SMOOTH",
"44.5 329 OFFCURVE",
"25.5 306.5 OFFCURVE",
"25.5 266.5 CURVE SMOOTH",
"25.5 227 OFFCURVE",
"44.5 205.5 OFFCURVE",
"79 205.5 CURVE SMOOTH"
);
},
{
closed = 1;
nodes = (
"56 222.5 OFFCURVE",
"45.5 236.5 OFFCURVE",
"45.5 267 CURVE SMOOTH",
"45.5 298 OFFCURVE",
"56 312 OFFCURVE",
"78.5 312 CURVE SMOOTH",
"101 312 OFFCURVE",
"111.5 298 OFFCURVE",
"111.5 267 CURVE SMOOTH",
"111.5 236.5 OFFCURVE",
"101 222.5 OFFCURVE",
"78.5 222.5 CURVE SMOOTH"
);
}
);
width = 157;
},
{
layerId = "209CD697-34B5-4613-8FA2-E55A274D1785";
name = Bold;
paths = (
{
closed = 1;
nodes = (
"115 205.5 OFFCURVE",
"134 227.5 OFFCURVE",
"134 268 CURVE SMOOTH",
"134 308 OFFCURVE",
"115 330 OFFCURVE",
"78.5 330 CURVE SMOOTH",
"41.5 330 OFFCURVE",
"22 308 OFFCURVE",
"22 268 CURVE SMOOTH",
"22 227.5 OFFCURVE",
"41.5 205.5 OFFCURVE",
"78.5 205.5 CURVE SMOOTH"
);
},
{
closed = 1;
nodes = (
"63.5 232.5 OFFCURVE",
"57 244.5 OFFCURVE",
"57 268 CURVE SMOOTH",
"57 291 OFFCURVE",
"63.5 303 OFFCURVE",
"78.5 303 CURVE SMOOTH",
"93 303 OFFCURVE",
"99.5 291 OFFCURVE",
"99.5 268 CURVE SMOOTH",
"99.5 244.5 OFFCURVE",
"93 232.5 OFFCURVE",
"78.5 232.5 CURVE SMOOTH"
);
}
);
width = 157;
}
);
unicode = 00BA;
},
{
glyphname = Delta;
lastChange = "2015-01-14 23:02:33 +0000";
layers = (
{
layerId = "63CB2BE0-8E67-47A9-A148-3C9E8B72ABA2";
name = Regular;
paths = (
{
closed = 1;
nodes = (
"299.5 0 LINE SMOOTH",
"309 0 OFFCURVE",
"313.5 5 OFFCURVE",
"313.5 14 CURVE",
"313.5 15.5 LINE",
"313.5 21 OFFCURVE",
"312 25.5 OFFCURVE",
"310 31 CURVE SMOOTH",
"187.5 320 LINE SMOOTH",
"184 327.5 OFFCURVE",
"179 331 OFFCURVE",
"171 331 CURVE SMOOTH",
"159 331 LINE SMOOTH",
"151 331 OFFCURVE",
"146 327.5 OFFCURVE",
"142.5 320 CURVE SMOOTH",
"19.5 31 LINE SMOOTH",
"17 24.5 OFFCURVE",
"16 20.5 OFFCURVE",
"16 14 CURVE",
"16 13 LINE",
"16.5 4.5 OFFCURVE",
"21.5 0 OFFCURVE",
"30 0 CURVE SMOOTH"
);
},
{
closed = 1;
nodes = (
"163 288.5 LINE",
"165.5 288.5 LINE",
"273.5 31.5 LINE",
"54 31.5 LINE"
);
}
);
width = 330;
},
{
layerId = "209CD697-34B5-4613-8FA2-E55A274D1785";
name = Bold;
paths = (
{
closed = 1;
nodes = (
"298.5 0 LINE SMOOTH",
"309.5 0 OFFCURVE",
"315 5.5 OFFCURVE",
"315 16.5 CURVE SMOOTH",
"315 40 LINE SMOOTH",
"315 48 OFFCURVE",
"314 53.5 OFFCURVE",
"311 60.5 CURVE SMOOTH",
"197.5 318.5 LINE SMOOTH",
"194 327 OFFCURVE",
"188 331 OFFCURVE",
"178.5 331 CURVE SMOOTH",
"150 331 LINE SMOOTH",
"140.5 331 OFFCURVE",
"134.5 327 OFFCURVE",
"131 318.5 CURVE SMOOTH",
"17.5 60.5 LINE SMOOTH",
"14.5 53.5 OFFCURVE",
"13.5 48 OFFCURVE",
"13.5 40 CURVE SMOOTH",
"13.5 16.5 LINE SMOOTH",
"13.5 5.5 OFFCURVE",
"19 0 OFFCURVE",
"30 0 CURVE SMOOTH"
);
},
{
closed = 1;
nodes = (
"161.5 239 LINE",
"166.5 239 LINE",
"243.5 60.5 LINE",
"84.5 60.5 LINE"
);
}
);
width = 330;
}
);
unicode = 0394;
},
